G04 EAGLE Gerber RS-274X export*
G75*
%MOMM*%
%FSLAX34Y34*%
%LPD*%
%INSilkscreen Bottom*%
%IPPOS*%
%AMOC8*
5,1,8,0,0,1.08239X$1,22.5*%
G01*
%ADD10C,0.152400*%


D10*
X339860Y157420D02*
X362720Y157420D01*
X362720Y101540D01*
X339860Y101540D01*
X339860Y157420D01*
X391460Y233180D02*
X414320Y233180D01*
X391460Y233180D02*
X391460Y289060D01*
X414320Y289060D01*
X414320Y233180D01*
X533550Y126350D02*
X556410Y126350D01*
X533550Y126350D02*
X533550Y182230D01*
X556410Y182230D01*
X556410Y126350D01*
X346320Y288330D02*
X323460Y288330D01*
X346320Y288330D02*
X346320Y232450D01*
X323460Y232450D01*
X323460Y288330D01*
X358460Y288310D02*
X381320Y288310D01*
X381320Y232430D01*
X358460Y232430D01*
X358460Y288310D01*
X303680Y289730D02*
X303680Y266870D01*
X247800Y266870D01*
X247800Y289730D01*
X303680Y289730D01*
X242840Y289490D02*
X242840Y266630D01*
X186960Y266630D01*
X186960Y289490D01*
X242840Y289490D01*
X180340Y289970D02*
X180340Y267110D01*
X124460Y267110D01*
X124460Y289970D01*
X180340Y289970D01*
X533610Y243250D02*
X556470Y243250D01*
X556470Y187370D01*
X533610Y187370D01*
X533610Y243250D01*
X503480Y170000D02*
X503480Y147140D01*
X447600Y147140D01*
X447600Y170000D01*
X503480Y170000D01*
X335930Y132810D02*
X313070Y132810D01*
X313070Y188690D01*
X335930Y188690D01*
X335930Y132810D01*
X53560Y128820D02*
X53560Y151680D01*
X109440Y151680D01*
X109440Y128820D01*
X53560Y128820D01*
X111310Y127820D02*
X111310Y150680D01*
X167190Y150680D01*
X167190Y127820D01*
X111310Y127820D01*
X398070Y129560D02*
X420930Y129560D01*
X398070Y129560D02*
X398070Y185440D01*
X420930Y185440D01*
X420930Y129560D01*
X452690Y78930D02*
X452690Y56070D01*
X396810Y56070D01*
X396810Y78930D01*
X452690Y78930D01*
X188930Y115940D02*
X166070Y115940D01*
X188930Y115940D02*
X188930Y60060D01*
X166070Y60060D01*
X166070Y115940D01*
X169560Y127570D02*
X169560Y150430D01*
X225440Y150430D01*
X225440Y127570D01*
X169560Y127570D01*
X449320Y255190D02*
X472180Y255190D01*
X472180Y199310D01*
X449320Y199310D01*
X449320Y255190D01*
X497810Y303820D02*
X497810Y326680D01*
X553690Y326680D01*
X553690Y303820D01*
X497810Y303820D01*
X481940Y304320D02*
X481940Y327180D01*
X481940Y304320D02*
X426060Y304320D01*
X426060Y327180D01*
X481940Y327180D01*
X569190Y351320D02*
X569190Y374180D01*
X569190Y351320D02*
X513310Y351320D01*
X513310Y374180D01*
X569190Y374180D01*
X455810Y374680D02*
X455810Y351820D01*
X455810Y374680D02*
X511690Y374680D01*
X511690Y351820D01*
X455810Y351820D01*
X649690Y341820D02*
X649690Y364680D01*
X649690Y341820D02*
X593810Y341820D01*
X593810Y364680D01*
X649690Y364680D01*
X588430Y322190D02*
X565570Y322190D01*
X588430Y322190D02*
X588430Y266310D01*
X565570Y266310D01*
X565570Y322190D01*
X129440Y200430D02*
X129440Y177570D01*
X73560Y177570D01*
X73560Y200430D01*
X129440Y200430D01*
M02*
