G04 EAGLE Gerber RS-274X export*
G75*
%MOMM*%
%FSLAX34Y34*%
%LPD*%
%INTop Copper*%
%IPPOS*%
%AMOC8*
5,1,8,0,0,1.08239X$1,22.5*%
G01*
G04 Define Apertures*
%ADD10R,1.815300X1.164600*%
%ADD11R,1.465300X1.164600*%
%ADD12R,0.920900X0.970200*%
%ADD13R,0.961800X1.711800*%
%ADD14R,0.817400X1.351900*%
%ADD15R,0.821800X1.351900*%
%ADD16R,0.511800X0.911800*%
%ADD17C,0.120378*%
%ADD18R,0.401500X1.469200*%
%ADD19R,1.164600X1.815300*%
%ADD20R,1.031200X1.420200*%
%ADD21R,0.798700X0.973900*%
%ADD22R,1.420200X1.031200*%
%ADD23R,0.973900X0.798700*%
%ADD24C,1.524000*%
%ADD25C,0.406400*%
G36*
X294653Y4673D02*
X294158Y4572D01*
X5842Y4572D01*
X5384Y4657D01*
X4958Y4930D01*
X4673Y5347D01*
X4572Y5842D01*
X4572Y294158D01*
X4657Y294616D01*
X4930Y295042D01*
X5347Y295327D01*
X5842Y295428D01*
X294158Y295428D01*
X294616Y295343D01*
X295042Y295070D01*
X295327Y294653D01*
X295428Y294158D01*
X295428Y5842D01*
X295343Y5384D01*
X295070Y4958D01*
X294653Y4673D01*
G37*
%LPC*%
G36*
X56526Y17018D02*
X76824Y17018D01*
X106586Y46780D01*
X106989Y47051D01*
X107484Y47152D01*
X110414Y47152D01*
X110871Y47067D01*
X111297Y46794D01*
X111583Y46377D01*
X111684Y45882D01*
X111684Y44849D01*
X112664Y43868D01*
X112928Y43484D01*
X113036Y42990D01*
X112944Y42493D01*
X112664Y42072D01*
X111684Y41091D01*
X111684Y36756D01*
X131417Y36756D01*
X131417Y41091D01*
X130436Y42072D01*
X130172Y42456D01*
X130064Y42950D01*
X130157Y43447D01*
X130436Y43868D01*
X131417Y44849D01*
X131417Y45486D01*
X131502Y45944D01*
X131774Y46370D01*
X132191Y46655D01*
X132687Y46756D01*
X137271Y46756D01*
X137747Y46663D01*
X138169Y46384D01*
X139758Y44795D01*
X151602Y44795D01*
X153191Y46384D01*
X153594Y46655D01*
X154089Y46756D01*
X164730Y46756D01*
X165188Y46671D01*
X165614Y46398D01*
X165899Y45981D01*
X166000Y45486D01*
X166000Y44286D01*
X166030Y43874D01*
X166109Y43515D01*
X166239Y43171D01*
X166418Y42850D01*
X166641Y42559D01*
X166904Y42302D01*
X167201Y42086D01*
X167526Y41915D01*
X167872Y41793D01*
X168240Y41721D01*
X168579Y41700D01*
X181177Y41700D01*
X181635Y41615D01*
X182061Y41342D01*
X182346Y40925D01*
X182447Y40430D01*
X182447Y38417D01*
X191146Y29718D01*
X257308Y29718D01*
X267462Y39872D01*
X267462Y125084D01*
X255549Y136997D01*
X241311Y136997D01*
X240853Y137082D01*
X240427Y137355D01*
X240142Y137772D01*
X240041Y138267D01*
X240041Y140023D01*
X238510Y141554D01*
X238284Y141596D01*
X237858Y141869D01*
X237573Y142286D01*
X237472Y142781D01*
X237472Y146170D01*
X237565Y146647D01*
X237844Y147068D01*
X240054Y149278D01*
X240457Y149549D01*
X240952Y149650D01*
X243424Y149650D01*
X243836Y149680D01*
X244195Y149759D01*
X244539Y149889D01*
X244860Y150068D01*
X245152Y150291D01*
X245408Y150554D01*
X245624Y150851D01*
X245795Y151176D01*
X245917Y151522D01*
X245989Y151890D01*
X246010Y152229D01*
X246010Y154708D01*
X246103Y155185D01*
X246382Y155606D01*
X254762Y163986D01*
X254762Y260974D01*
X241829Y273907D01*
X231278Y273907D01*
X230820Y273992D01*
X230394Y274265D01*
X230109Y274682D01*
X230008Y275177D01*
X230008Y275543D01*
X228520Y277031D01*
X212214Y277031D01*
X210726Y275543D01*
X210726Y275177D01*
X210641Y274719D01*
X210368Y274293D01*
X209951Y274008D01*
X209456Y273907D01*
X205211Y273907D01*
X199324Y268020D01*
X199324Y254066D01*
X199239Y253608D01*
X198966Y253182D01*
X198549Y252897D01*
X198054Y252796D01*
X183967Y252796D01*
X183509Y252881D01*
X183083Y253154D01*
X182797Y253571D01*
X182697Y254066D01*
X182697Y255099D01*
X181209Y256587D01*
X160951Y256587D01*
X159464Y255099D01*
X159464Y254066D01*
X159378Y253608D01*
X159106Y253182D01*
X158689Y252897D01*
X158194Y252796D01*
X154890Y252796D01*
X149098Y247004D01*
X149098Y244900D01*
X149013Y244442D01*
X148740Y244016D01*
X148323Y243731D01*
X147828Y243630D01*
X130716Y243630D01*
X130258Y243715D01*
X129832Y243988D01*
X129547Y244405D01*
X129446Y244900D01*
X129446Y246383D01*
X129531Y246841D01*
X129804Y247267D01*
X130221Y247552D01*
X130716Y247653D01*
X131749Y247653D01*
X133237Y249141D01*
X133237Y269398D01*
X131749Y270886D01*
X117999Y270886D01*
X116511Y269398D01*
X116511Y249141D01*
X117999Y247653D01*
X119032Y247653D01*
X119490Y247568D01*
X119916Y247295D01*
X120201Y246878D01*
X120302Y246383D01*
X120302Y245404D01*
X120209Y244927D01*
X119930Y244506D01*
X119426Y244002D01*
X119024Y243731D01*
X118528Y243630D01*
X103722Y243630D01*
X103245Y243723D01*
X102824Y244002D01*
X101341Y245485D01*
X101086Y245851D01*
X100970Y246343D01*
X101054Y246841D01*
X101327Y247267D01*
X101744Y247552D01*
X102239Y247653D01*
X102241Y247653D01*
X103729Y249141D01*
X103729Y269398D01*
X102241Y270886D01*
X88491Y270886D01*
X87003Y269398D01*
X87003Y249141D01*
X88491Y247653D01*
X89524Y247653D01*
X89982Y247568D01*
X90408Y247295D01*
X90693Y246878D01*
X90794Y246383D01*
X90794Y244900D01*
X90709Y244442D01*
X90436Y244016D01*
X90019Y243731D01*
X89524Y243630D01*
X70796Y243630D01*
X70384Y243600D01*
X70025Y243521D01*
X69681Y243391D01*
X69360Y243212D01*
X69069Y242989D01*
X68812Y242726D01*
X68596Y242429D01*
X68425Y242104D01*
X68303Y241758D01*
X68231Y241390D01*
X68210Y241051D01*
X68210Y224072D01*
X68125Y223614D01*
X67852Y223188D01*
X67435Y222903D01*
X66940Y222802D01*
X65857Y222802D01*
X65399Y222887D01*
X64973Y223160D01*
X64687Y223577D01*
X64587Y224072D01*
X64587Y224791D01*
X63099Y226279D01*
X42841Y226279D01*
X41354Y224791D01*
X41354Y211041D01*
X42841Y209553D01*
X56511Y209553D01*
X56950Y209475D01*
X57380Y209209D01*
X57673Y208797D01*
X57781Y208303D01*
X57688Y207806D01*
X57409Y207385D01*
X42534Y192510D01*
X42534Y176507D01*
X42449Y176049D01*
X42176Y175623D01*
X41759Y175337D01*
X41264Y175237D01*
X40231Y175237D01*
X38743Y173749D01*
X38743Y153491D01*
X40231Y152004D01*
X41734Y152004D01*
X42192Y151918D01*
X42618Y151646D01*
X42903Y151229D01*
X43004Y150734D01*
X43004Y142217D01*
X42919Y141759D01*
X42646Y141333D01*
X42229Y141047D01*
X41734Y140947D01*
X40701Y140947D01*
X39213Y139459D01*
X39213Y119201D01*
X40701Y117714D01*
X54451Y117714D01*
X55939Y119201D01*
X55939Y139459D01*
X54451Y140947D01*
X53418Y140947D01*
X52960Y141032D01*
X52534Y141304D01*
X52249Y141721D01*
X52148Y142217D01*
X52148Y150734D01*
X52233Y151191D01*
X52506Y151617D01*
X52923Y151903D01*
X53418Y152004D01*
X53981Y152004D01*
X55469Y153491D01*
X55469Y173749D01*
X53981Y175237D01*
X52948Y175237D01*
X52490Y175322D01*
X52064Y175594D01*
X51779Y176011D01*
X51678Y176507D01*
X51678Y188196D01*
X51771Y188673D01*
X52050Y189094D01*
X63542Y200586D01*
X63945Y200857D01*
X64440Y200958D01*
X66940Y200958D01*
X67398Y200873D01*
X67824Y200600D01*
X68109Y200183D01*
X68210Y199688D01*
X68210Y194372D01*
X68117Y193895D01*
X67838Y193474D01*
X65278Y190914D01*
X65278Y179716D01*
X68850Y176144D01*
X69114Y175760D01*
X69222Y175266D01*
X69129Y174769D01*
X68850Y174348D01*
X68251Y173749D01*
X68251Y153491D01*
X69739Y152004D01*
X83489Y152004D01*
X84977Y153491D01*
X84977Y173749D01*
X83489Y175237D01*
X82456Y175237D01*
X81998Y175322D01*
X81572Y175594D01*
X81287Y176011D01*
X81186Y176507D01*
X81186Y176761D01*
X80979Y177058D01*
X80863Y177550D01*
X80947Y178048D01*
X81220Y178474D01*
X81637Y178759D01*
X82132Y178860D01*
X116408Y178860D01*
X116885Y178767D01*
X117306Y178488D01*
X121296Y174498D01*
X144704Y174498D01*
X145161Y174413D01*
X145587Y174140D01*
X145873Y173723D01*
X145974Y173228D01*
X145974Y171104D01*
X153300Y171104D01*
X153300Y178197D01*
X154111Y178197D01*
X154132Y178526D01*
X154357Y178978D01*
X154627Y179208D01*
X154616Y179222D01*
X154982Y179501D01*
X155238Y179764D01*
X155454Y180061D01*
X155625Y180386D01*
X155778Y180819D01*
X155793Y180814D01*
X156094Y181378D01*
X164592Y189876D01*
X164592Y201168D01*
X164677Y201626D01*
X164950Y202052D01*
X165367Y202337D01*
X165862Y202438D01*
X183504Y202438D01*
X192532Y211466D01*
X192532Y227954D01*
X181815Y238671D01*
X181551Y239055D01*
X181443Y239549D01*
X181536Y240046D01*
X181815Y240467D01*
X182697Y241349D01*
X182697Y242382D01*
X182782Y242840D01*
X183054Y243266D01*
X183471Y243551D01*
X183967Y243652D01*
X199320Y243652D01*
X199704Y243593D01*
X200146Y243347D01*
X200457Y242949D01*
X200588Y242461D01*
X200518Y241960D01*
X200383Y241576D01*
X200311Y241209D01*
X200290Y240870D01*
X200290Y203472D01*
X200197Y202995D01*
X199918Y202574D01*
X197868Y200524D01*
X197466Y200253D01*
X196970Y200152D01*
X192416Y200152D01*
X176425Y184161D01*
X176425Y177971D01*
X176340Y177513D01*
X176067Y177087D01*
X175650Y176802D01*
X175155Y176701D01*
X172844Y176701D01*
X171356Y175213D01*
X171356Y162797D01*
X172844Y161309D01*
X189150Y161309D01*
X190638Y162797D01*
X190638Y175213D01*
X189150Y176701D01*
X186839Y176701D01*
X186381Y176786D01*
X185955Y177059D01*
X185670Y177476D01*
X185569Y177971D01*
X185569Y179847D01*
X185662Y180324D01*
X185941Y180745D01*
X195832Y190636D01*
X196235Y190907D01*
X196730Y191008D01*
X199020Y191008D01*
X199478Y190923D01*
X199904Y190650D01*
X200189Y190233D01*
X200290Y189738D01*
X200290Y156457D01*
X200205Y155999D01*
X199932Y155573D01*
X199515Y155288D01*
X199020Y155187D01*
X191908Y155187D01*
X191450Y155272D01*
X191024Y155545D01*
X190739Y155962D01*
X190638Y156457D01*
X190638Y156823D01*
X189150Y158311D01*
X172844Y158311D01*
X171356Y156823D01*
X171356Y156457D01*
X171271Y155999D01*
X170998Y155573D01*
X170581Y155288D01*
X170086Y155187D01*
X166977Y155187D01*
X166519Y155272D01*
X166093Y155545D01*
X165807Y155962D01*
X165707Y156457D01*
X165707Y157931D01*
X164726Y158911D01*
X164462Y159296D01*
X164354Y159789D01*
X164447Y160286D01*
X164726Y160708D01*
X165707Y161688D01*
X165707Y166024D01*
X145974Y166024D01*
X145974Y161688D01*
X146954Y160708D01*
X147218Y160323D01*
X147326Y159830D01*
X147234Y159333D01*
X146954Y158911D01*
X145974Y157931D01*
X145974Y144180D01*
X147461Y142693D01*
X164219Y142693D01*
X165707Y144180D01*
X165707Y144773D01*
X165792Y145231D01*
X166064Y145657D01*
X166481Y145942D01*
X166977Y146043D01*
X170086Y146043D01*
X170544Y145958D01*
X170970Y145685D01*
X171255Y145268D01*
X171356Y144773D01*
X171356Y144407D01*
X172844Y142919D01*
X189150Y142919D01*
X190638Y144407D01*
X190638Y144773D01*
X190723Y145231D01*
X190996Y145657D01*
X191413Y145942D01*
X191908Y146043D01*
X208113Y146043D01*
X208571Y145958D01*
X208997Y145685D01*
X209282Y145268D01*
X209383Y144773D01*
X209383Y142781D01*
X209298Y142323D01*
X209025Y141897D01*
X208608Y141612D01*
X208113Y141511D01*
X207747Y141511D01*
X206259Y140023D01*
X206259Y137712D01*
X206174Y137254D01*
X205901Y136828D01*
X205484Y136543D01*
X204989Y136442D01*
X144791Y136442D01*
X144333Y136527D01*
X143907Y136800D01*
X143622Y137217D01*
X143521Y137712D01*
X143521Y140023D01*
X142033Y141511D01*
X129617Y141511D01*
X128129Y140023D01*
X128129Y123717D01*
X129617Y122229D01*
X142033Y122229D01*
X143521Y123717D01*
X143521Y126028D01*
X143606Y126486D01*
X143879Y126912D01*
X144296Y127197D01*
X144791Y127298D01*
X204989Y127298D01*
X205447Y127213D01*
X205873Y126940D01*
X206158Y126523D01*
X206259Y126028D01*
X206259Y123717D01*
X207747Y122229D01*
X220163Y122229D01*
X221651Y123717D01*
X221651Y140023D01*
X220528Y141146D01*
X220265Y141530D01*
X220156Y142024D01*
X220249Y142521D01*
X220528Y142942D01*
X226160Y148574D01*
X226526Y148829D01*
X227018Y148946D01*
X227516Y148861D01*
X227942Y148588D01*
X228227Y148172D01*
X228328Y147676D01*
X228328Y142781D01*
X228243Y142323D01*
X227970Y141897D01*
X227553Y141612D01*
X227058Y141511D01*
X226137Y141511D01*
X224649Y140023D01*
X224649Y123717D01*
X226137Y122229D01*
X226503Y122229D01*
X226961Y122144D01*
X227387Y121871D01*
X227672Y121454D01*
X227741Y121119D01*
X230458Y118401D01*
X230721Y118017D01*
X230830Y117523D01*
X230737Y117027D01*
X230458Y116605D01*
X230055Y116202D01*
X230055Y106470D01*
X229969Y106012D01*
X229697Y105586D01*
X229280Y105301D01*
X228785Y105200D01*
X225136Y105200D01*
X224678Y105285D01*
X224252Y105558D01*
X223966Y105975D01*
X223866Y106470D01*
X223866Y114932D01*
X222378Y116420D01*
X212286Y116420D01*
X210799Y114932D01*
X210799Y106470D01*
X210713Y106012D01*
X210441Y105586D01*
X210024Y105301D01*
X209529Y105200D01*
X208832Y105200D01*
X208374Y105285D01*
X207948Y105558D01*
X207662Y105975D01*
X207562Y106470D01*
X207562Y114932D01*
X206074Y116420D01*
X195982Y116420D01*
X195125Y115562D01*
X194741Y115299D01*
X194248Y115191D01*
X193751Y115283D01*
X193329Y115562D01*
X187651Y121241D01*
X187403Y121287D01*
X186977Y121560D01*
X186691Y121977D01*
X186591Y122472D01*
X186591Y122533D01*
X185103Y124021D01*
X173789Y124021D01*
X172598Y122830D01*
X172214Y122566D01*
X171720Y122458D01*
X171223Y122551D01*
X170802Y122830D01*
X169611Y124021D01*
X166494Y124021D01*
X166494Y109239D01*
X169611Y109239D01*
X170802Y110430D01*
X171186Y110694D01*
X171680Y110802D01*
X172177Y110710D01*
X172598Y110430D01*
X173789Y109239D01*
X185143Y109239D01*
X185398Y109414D01*
X185892Y109522D01*
X186389Y109429D01*
X186810Y109150D01*
X188592Y107368D01*
X188847Y107002D01*
X188964Y106510D01*
X188879Y106012D01*
X188606Y105586D01*
X188190Y105301D01*
X187694Y105200D01*
X168586Y105200D01*
X168174Y105170D01*
X167815Y105091D01*
X167471Y104961D01*
X167150Y104782D01*
X166859Y104559D01*
X166602Y104296D01*
X166386Y103999D01*
X166215Y103674D01*
X166093Y103328D01*
X166021Y102960D01*
X166000Y102621D01*
X166000Y72942D01*
X165915Y72484D01*
X165642Y72058D01*
X165225Y71773D01*
X164730Y71672D01*
X157415Y71672D01*
X156976Y71750D01*
X156546Y72016D01*
X156254Y72428D01*
X156145Y72922D01*
X156238Y73419D01*
X156517Y73840D01*
X157826Y75148D01*
X157826Y86992D01*
X156236Y88581D01*
X155965Y88984D01*
X155864Y89479D01*
X155864Y91068D01*
X155957Y91544D01*
X156236Y91966D01*
X156239Y91969D01*
X156239Y103191D01*
X154751Y104679D01*
X147529Y104679D01*
X146041Y103191D01*
X146041Y91969D01*
X146348Y91662D01*
X146619Y91259D01*
X146720Y90764D01*
X146720Y89479D01*
X146627Y89003D01*
X146348Y88581D01*
X144759Y86992D01*
X144759Y75436D01*
X144673Y74978D01*
X144401Y74552D01*
X143984Y74266D01*
X143489Y74166D01*
X142792Y74166D01*
X142334Y74251D01*
X141908Y74523D01*
X141622Y74940D01*
X141522Y75436D01*
X141522Y86992D01*
X140034Y88480D01*
X139816Y88480D01*
X139377Y88558D01*
X138947Y88823D01*
X138654Y89236D01*
X138546Y89729D01*
X138639Y90226D01*
X138918Y90648D01*
X140239Y91969D01*
X140239Y95040D01*
X130041Y95040D01*
X130041Y91969D01*
X131362Y90648D01*
X131617Y90282D01*
X131734Y89790D01*
X131649Y89292D01*
X131377Y88866D01*
X130960Y88580D01*
X130464Y88480D01*
X129942Y88480D01*
X128920Y87457D01*
X128554Y87202D01*
X128446Y87177D01*
X128455Y87135D01*
X128455Y75148D01*
X130044Y73559D01*
X130315Y73156D01*
X130416Y72661D01*
X130416Y68858D01*
X136536Y62738D01*
X137593Y62738D01*
X138069Y62645D01*
X138491Y62366D01*
X139758Y61099D01*
X151602Y61099D01*
X152659Y62156D01*
X153062Y62427D01*
X153557Y62528D01*
X164730Y62528D01*
X165188Y62443D01*
X165614Y62170D01*
X165899Y61753D01*
X166000Y61258D01*
X166000Y59182D01*
X165915Y58724D01*
X165642Y58298D01*
X165225Y58013D01*
X164730Y57912D01*
X163578Y57912D01*
X161938Y56272D01*
X161536Y56001D01*
X161040Y55900D01*
X154089Y55900D01*
X153613Y55993D01*
X153191Y56272D01*
X151602Y57862D01*
X139758Y57862D01*
X138169Y56272D01*
X137766Y56001D01*
X137271Y55900D01*
X132687Y55900D01*
X132229Y55985D01*
X131803Y56258D01*
X131517Y56675D01*
X131417Y57170D01*
X131417Y58599D01*
X129929Y60087D01*
X113171Y60087D01*
X111684Y58599D01*
X111684Y57566D01*
X111598Y57108D01*
X111326Y56682D01*
X110909Y56397D01*
X110414Y56296D01*
X103170Y56296D01*
X88158Y41284D01*
X87792Y41029D01*
X87300Y40913D01*
X86802Y40997D01*
X86376Y41270D01*
X86091Y41687D01*
X85990Y42182D01*
X85990Y49320D01*
X78370Y49320D01*
X78370Y33975D01*
X78757Y33736D01*
X79050Y33324D01*
X79158Y32830D01*
X79065Y32333D01*
X78786Y31912D01*
X73408Y26534D01*
X73006Y26263D01*
X72510Y26162D01*
X60840Y26162D01*
X60363Y26255D01*
X59942Y26534D01*
X55374Y31102D01*
X55103Y31505D01*
X55002Y32000D01*
X55002Y34288D01*
X55091Y34755D01*
X55367Y35179D01*
X55786Y35461D01*
X56185Y35627D01*
X59043Y38485D01*
X60590Y42219D01*
X60590Y61501D01*
X59043Y65235D01*
X56185Y68093D01*
X52451Y69640D01*
X48409Y69640D01*
X44675Y68093D01*
X41817Y65235D01*
X40270Y61501D01*
X40270Y42219D01*
X41817Y38485D01*
X44675Y35627D01*
X45074Y35461D01*
X45472Y35200D01*
X45757Y34783D01*
X45858Y34288D01*
X45858Y27686D01*
X56526Y17018D01*
G37*
G36*
X41354Y249964D02*
X50430Y249964D01*
X50430Y255787D01*
X42841Y255787D01*
X41354Y254299D01*
X41354Y249964D01*
G37*
G36*
X55510Y249964D02*
X64587Y249964D01*
X64587Y254299D01*
X63099Y255787D01*
X55510Y255787D01*
X55510Y249964D01*
G37*
G36*
X42841Y239061D02*
X50430Y239061D01*
X50430Y244884D01*
X41354Y244884D01*
X41354Y240549D01*
X42841Y239061D01*
G37*
G36*
X55510Y239061D02*
X63099Y239061D01*
X64587Y240549D01*
X64587Y244884D01*
X55510Y244884D01*
X55510Y239061D01*
G37*
G36*
X158380Y171104D02*
X165707Y171104D01*
X165707Y175439D01*
X164219Y176927D01*
X158380Y176927D01*
X158380Y171104D01*
G37*
G36*
X114942Y87011D02*
X125264Y87011D01*
X126286Y88033D01*
X126652Y88288D01*
X126760Y88314D01*
X126752Y88355D01*
X126752Y104122D01*
X125594Y105280D01*
X125323Y105682D01*
X125222Y106178D01*
X125222Y113654D01*
X122379Y116497D01*
X122108Y116900D01*
X122007Y117395D01*
X122007Y120959D01*
X122092Y121417D01*
X122365Y121843D01*
X122782Y122128D01*
X123277Y122229D01*
X123643Y122229D01*
X125131Y123717D01*
X125131Y140023D01*
X123643Y141511D01*
X111227Y141511D01*
X109739Y140023D01*
X109739Y123717D01*
X111227Y122229D01*
X111593Y122229D01*
X112051Y122144D01*
X112477Y121871D01*
X112762Y121454D01*
X112863Y120959D01*
X112863Y113081D01*
X115706Y110238D01*
X115977Y109836D01*
X116078Y109340D01*
X116078Y106880D01*
X115993Y106422D01*
X115720Y105996D01*
X115303Y105710D01*
X114976Y105644D01*
X113454Y104122D01*
X113454Y88498D01*
X114942Y87011D01*
G37*
G36*
X72519Y85211D02*
X84241Y85211D01*
X85729Y86699D01*
X85729Y105921D01*
X84241Y107409D01*
X84222Y107409D01*
X83764Y107494D01*
X83338Y107767D01*
X83053Y108184D01*
X82952Y108679D01*
X82952Y116444D01*
X83037Y116901D01*
X83310Y117327D01*
X83727Y117613D01*
X83892Y117647D01*
X85447Y119201D01*
X85447Y139459D01*
X83959Y140947D01*
X70209Y140947D01*
X68721Y139459D01*
X68721Y119201D01*
X70209Y117714D01*
X72538Y117714D01*
X72996Y117628D01*
X73422Y117356D01*
X73707Y116939D01*
X73808Y116444D01*
X73808Y108679D01*
X73723Y108221D01*
X73450Y107795D01*
X73033Y107510D01*
X72538Y107409D01*
X72519Y107409D01*
X71031Y105921D01*
X71031Y86699D01*
X72519Y85211D01*
G37*
G36*
X156810Y119170D02*
X161414Y119170D01*
X161414Y124021D01*
X158297Y124021D01*
X156810Y122533D01*
X156810Y119170D01*
G37*
G36*
X158297Y109239D02*
X161414Y109239D01*
X161414Y114090D01*
X156810Y114090D01*
X156810Y110727D01*
X158297Y109239D01*
G37*
G36*
X40531Y98850D02*
X45340Y98850D01*
X45340Y107409D01*
X42019Y107409D01*
X40531Y105921D01*
X40531Y98850D01*
G37*
G36*
X50420Y98850D02*
X55229Y98850D01*
X55229Y105921D01*
X53741Y107409D01*
X50420Y107409D01*
X50420Y98850D01*
G37*
G36*
X93488Y98850D02*
X97575Y98850D01*
X97575Y105610D01*
X94976Y105610D01*
X93488Y104122D01*
X93488Y98850D01*
G37*
G36*
X102655Y98850D02*
X106742Y98850D01*
X106742Y104122D01*
X105254Y105610D01*
X102655Y105610D01*
X102655Y98850D01*
G37*
G36*
X130041Y100120D02*
X132600Y100120D01*
X132600Y104679D01*
X131529Y104679D01*
X130041Y103191D01*
X130041Y100120D01*
G37*
G36*
X137680Y100120D02*
X140239Y100120D01*
X140239Y103191D01*
X138751Y104679D01*
X137680Y104679D01*
X137680Y100120D01*
G37*
G36*
X102655Y87011D02*
X105254Y87011D01*
X106742Y88498D01*
X106742Y93770D01*
X102655Y93770D01*
X102655Y87011D01*
G37*
G36*
X94976Y87011D02*
X97575Y87011D01*
X97575Y93770D01*
X93488Y93770D01*
X93488Y88498D01*
X94976Y87011D01*
G37*
G36*
X50420Y85211D02*
X53741Y85211D01*
X55229Y86699D01*
X55229Y93770D01*
X50420Y93770D01*
X50420Y85211D01*
G37*
G36*
X42019Y85211D02*
X45340Y85211D01*
X45340Y93770D01*
X40531Y93770D01*
X40531Y86699D01*
X42019Y85211D01*
G37*
G36*
X65670Y54400D02*
X73290Y54400D01*
X73290Y69425D01*
X70075Y68093D01*
X67217Y65235D01*
X65670Y61501D01*
X65670Y54400D01*
G37*
G36*
X78370Y54400D02*
X85990Y54400D01*
X85990Y61501D01*
X84443Y65235D01*
X81585Y68093D01*
X78370Y69425D01*
X78370Y54400D01*
G37*
G36*
X70075Y35627D02*
X73290Y34295D01*
X73290Y49320D01*
X65670Y49320D01*
X65670Y42219D01*
X67217Y38485D01*
X70075Y35627D01*
G37*
G36*
X124090Y25853D02*
X129929Y25853D01*
X131417Y27341D01*
X131417Y31676D01*
X124090Y31676D01*
X124090Y25853D01*
G37*
G36*
X113171Y25853D02*
X119010Y25853D01*
X119010Y31676D01*
X111684Y31676D01*
X111684Y27341D01*
X113171Y25853D01*
G37*
%LPD*%
D10*
X52970Y217916D03*
X52970Y247424D03*
D11*
X121550Y51724D03*
X121550Y34216D03*
X155840Y151056D03*
X155840Y168564D03*
D12*
X179446Y116630D03*
X163954Y116630D03*
D13*
X47880Y96310D03*
X78380Y96310D03*
D14*
X100115Y96310D03*
D15*
X120103Y96310D03*
D16*
X135140Y97580D03*
X151140Y97580D03*
D17*
X95914Y228523D02*
X77464Y228523D01*
X77464Y233337D01*
X95914Y233337D01*
X95914Y228523D01*
X95914Y229667D02*
X77464Y229667D01*
X77464Y230811D02*
X95914Y230811D01*
X95914Y231955D02*
X77464Y231955D01*
X77464Y233099D02*
X95914Y233099D01*
X95914Y215823D02*
X77464Y215823D01*
X77464Y220637D01*
X95914Y220637D01*
X95914Y215823D01*
X95914Y216967D02*
X77464Y216967D01*
X77464Y218111D02*
X95914Y218111D01*
X95914Y219255D02*
X77464Y219255D01*
X77464Y220399D02*
X95914Y220399D01*
X95914Y203123D02*
X77464Y203123D01*
X77464Y207937D01*
X95914Y207937D01*
X95914Y203123D01*
X95914Y204267D02*
X77464Y204267D01*
X77464Y205411D02*
X95914Y205411D01*
X95914Y206555D02*
X77464Y206555D01*
X77464Y207699D02*
X95914Y207699D01*
X95914Y190423D02*
X77464Y190423D01*
X77464Y195237D01*
X95914Y195237D01*
X95914Y190423D01*
X95914Y191567D02*
X77464Y191567D01*
X77464Y192711D02*
X95914Y192711D01*
X95914Y193855D02*
X77464Y193855D01*
X77464Y194999D02*
X95914Y194999D01*
X126866Y190423D02*
X145316Y190423D01*
X126866Y190423D02*
X126866Y195237D01*
X145316Y195237D01*
X145316Y190423D01*
X145316Y191567D02*
X126866Y191567D01*
X126866Y192711D02*
X145316Y192711D01*
X145316Y193855D02*
X126866Y193855D01*
X126866Y194999D02*
X145316Y194999D01*
X145316Y203123D02*
X126866Y203123D01*
X126866Y207937D01*
X145316Y207937D01*
X145316Y203123D01*
X145316Y204267D02*
X126866Y204267D01*
X126866Y205411D02*
X145316Y205411D01*
X145316Y206555D02*
X126866Y206555D01*
X126866Y207699D02*
X145316Y207699D01*
X145316Y215823D02*
X126866Y215823D01*
X126866Y220637D01*
X145316Y220637D01*
X145316Y215823D01*
X145316Y216967D02*
X126866Y216967D01*
X126866Y218111D02*
X145316Y218111D01*
X145316Y219255D02*
X126866Y219255D01*
X126866Y220399D02*
X145316Y220399D01*
X145316Y228523D02*
X126866Y228523D01*
X126866Y233337D01*
X145316Y233337D01*
X145316Y228523D01*
X145316Y229667D02*
X126866Y229667D01*
X126866Y230811D02*
X145316Y230811D01*
X145316Y231955D02*
X126866Y231955D01*
X126866Y233099D02*
X145316Y233099D01*
D18*
X213400Y167927D03*
X219900Y167927D03*
X226400Y167927D03*
X232900Y167927D03*
X232900Y225353D03*
X226400Y225353D03*
X219900Y225353D03*
X213400Y225353D03*
D17*
X196244Y90093D02*
X177794Y90093D01*
X177794Y94907D01*
X196244Y94907D01*
X196244Y90093D01*
X196244Y91237D02*
X177794Y91237D01*
X177794Y92381D02*
X196244Y92381D01*
X196244Y93525D02*
X177794Y93525D01*
X177794Y94669D02*
X196244Y94669D01*
X196244Y77393D02*
X177794Y77393D01*
X177794Y82207D01*
X196244Y82207D01*
X196244Y77393D01*
X196244Y78537D02*
X177794Y78537D01*
X177794Y79681D02*
X196244Y79681D01*
X196244Y80825D02*
X177794Y80825D01*
X177794Y81969D02*
X196244Y81969D01*
X196244Y64693D02*
X177794Y64693D01*
X177794Y69507D01*
X196244Y69507D01*
X196244Y64693D01*
X196244Y65837D02*
X177794Y65837D01*
X177794Y66981D02*
X196244Y66981D01*
X196244Y68125D02*
X177794Y68125D01*
X177794Y69269D02*
X196244Y69269D01*
X196244Y51993D02*
X177794Y51993D01*
X177794Y56807D01*
X196244Y56807D01*
X196244Y51993D01*
X196244Y53137D02*
X177794Y53137D01*
X177794Y54281D02*
X196244Y54281D01*
X196244Y55425D02*
X177794Y55425D01*
X177794Y56569D02*
X196244Y56569D01*
X227196Y51993D02*
X245646Y51993D01*
X227196Y51993D02*
X227196Y56807D01*
X245646Y56807D01*
X245646Y51993D01*
X245646Y53137D02*
X227196Y53137D01*
X227196Y54281D02*
X245646Y54281D01*
X245646Y55425D02*
X227196Y55425D01*
X227196Y56569D02*
X245646Y56569D01*
X245646Y64693D02*
X227196Y64693D01*
X227196Y69507D01*
X245646Y69507D01*
X245646Y64693D01*
X245646Y65837D02*
X227196Y65837D01*
X227196Y66981D02*
X245646Y66981D01*
X245646Y68125D02*
X227196Y68125D01*
X227196Y69269D02*
X245646Y69269D01*
X245646Y77393D02*
X227196Y77393D01*
X227196Y82207D01*
X245646Y82207D01*
X245646Y77393D01*
X245646Y78537D02*
X227196Y78537D01*
X227196Y79681D02*
X245646Y79681D01*
X245646Y80825D02*
X227196Y80825D01*
X227196Y81969D02*
X245646Y81969D01*
X245646Y90093D02*
X227196Y90093D01*
X227196Y94907D01*
X245646Y94907D01*
X245646Y90093D01*
X245646Y91237D02*
X227196Y91237D01*
X227196Y92381D02*
X245646Y92381D01*
X245646Y93525D02*
X227196Y93525D01*
X227196Y94669D02*
X245646Y94669D01*
D19*
X77084Y129330D03*
X47576Y129330D03*
D20*
X117435Y131870D03*
X135825Y131870D03*
D21*
X151292Y81070D03*
X134988Y81070D03*
D10*
X171080Y248224D03*
X171080Y218716D03*
D22*
X220367Y269335D03*
X220367Y250945D03*
D21*
X236588Y110280D03*
X252892Y110280D03*
D19*
X124874Y259270D03*
X95366Y259270D03*
D22*
X180997Y169005D03*
X180997Y150615D03*
D21*
X217332Y109010D03*
X201028Y109010D03*
D19*
X76614Y163620D03*
X47106Y163620D03*
D20*
X232345Y131870D03*
X213955Y131870D03*
D23*
X145680Y51328D03*
X145680Y67632D03*
D24*
X50430Y59480D02*
X50430Y44240D01*
X75830Y44240D02*
X75830Y59480D01*
D25*
X135825Y131870D02*
X213955Y131870D01*
X226400Y155280D02*
X226400Y167927D01*
X226400Y155280D02*
X213955Y142835D01*
X213955Y131870D01*
X86689Y230930D02*
X56090Y230930D01*
X55880Y231140D01*
X161500Y92500D02*
X187019Y92500D01*
X161500Y92500D02*
X161290Y92710D01*
X213400Y167927D02*
X213400Y181570D01*
X208280Y186690D01*
X198120Y186690D01*
X193040Y181610D01*
X124874Y242984D02*
X124874Y259270D01*
X124874Y242984D02*
X118110Y236220D01*
X118110Y223520D01*
X123400Y218230D01*
X136091Y218230D01*
X136577Y218716D01*
X171080Y218716D01*
X104350Y218230D02*
X86689Y218230D01*
X104350Y218230D02*
X117050Y205530D01*
X136091Y205530D01*
X86689Y218230D02*
X53284Y218230D01*
X52970Y217916D01*
X95366Y244994D02*
X95366Y259270D01*
X95366Y244994D02*
X104350Y236010D01*
X104350Y218230D01*
X50430Y51860D02*
X50430Y29580D01*
X58420Y21590D01*
X74930Y21590D01*
X105064Y51724D01*
X121550Y51724D01*
X121946Y51328D01*
X145680Y51328D01*
X185959Y53340D02*
X187019Y54400D01*
X185959Y53340D02*
X165472Y53340D01*
X163460Y51328D01*
X145680Y51328D01*
X86689Y192830D02*
X73660Y192830D01*
X69850Y189020D02*
X69850Y181610D01*
X76614Y174846D01*
X76614Y163620D01*
X69850Y189020D02*
X73660Y192830D01*
X136091Y230930D02*
X149650Y230930D01*
X153670Y234950D01*
X153670Y245110D01*
X156784Y248224D01*
X171080Y248224D01*
X213400Y238720D02*
X213400Y225353D01*
X213400Y238720D02*
X203896Y248224D01*
X171080Y248224D01*
X207105Y269335D02*
X220367Y269335D01*
X207105Y269335D02*
X203896Y266126D01*
X203896Y248224D01*
X232900Y167927D02*
X232900Y148590D01*
X232900Y132425D01*
X232345Y131870D01*
X232345Y122980D02*
X236588Y118737D01*
X232345Y122980D02*
X232345Y131870D01*
X236588Y118737D02*
X236588Y110280D01*
X187019Y54400D02*
X187019Y40311D01*
X193040Y34290D01*
X255414Y34290D01*
X262890Y41766D01*
X262890Y123190D01*
X253655Y132425D01*
X232900Y132425D01*
X236588Y110280D02*
X236588Y92667D01*
X236421Y92500D01*
X239935Y269335D02*
X220367Y269335D01*
X239935Y269335D02*
X250190Y259080D01*
X250190Y165880D01*
X232900Y148590D01*
X109430Y192830D02*
X86689Y192830D01*
X109430Y192830D02*
X123190Y179070D01*
X147320Y179070D01*
X160020Y191770D01*
X160020Y204470D01*
X162560Y207010D01*
X181610Y207010D01*
X187960Y213360D01*
X187960Y226060D01*
X179070Y234950D01*
X153670Y234950D01*
X219900Y225353D02*
X219900Y250478D01*
X220367Y250945D01*
X219900Y225353D02*
X219900Y216090D01*
X199390Y195580D01*
X194310Y195580D01*
X180997Y182267D01*
X180997Y169005D01*
X226400Y197190D02*
X226400Y225353D01*
X226400Y197190D02*
X219900Y190690D01*
X219900Y167927D01*
X219900Y158940D01*
X211575Y150615D01*
X180997Y150615D01*
X156281Y150615D01*
X155840Y151056D01*
X47576Y163150D02*
X47576Y129330D01*
X47576Y163150D02*
X47106Y163620D01*
X62020Y205530D02*
X86689Y205530D01*
X62020Y205530D02*
X47106Y190616D01*
X47106Y163620D01*
X252892Y110280D02*
X252892Y83982D01*
X248710Y79800D01*
X240030Y79800D01*
X236421Y79800D01*
X217332Y83658D02*
X217332Y109010D01*
X217332Y83658D02*
X221190Y79800D01*
X236421Y79800D01*
X201930Y79800D02*
X187019Y79800D01*
X201930Y79800D02*
X203410Y79800D01*
X216110Y67100D01*
X236421Y67100D01*
X201028Y94882D02*
X201028Y109010D01*
X201028Y94882D02*
X203200Y92710D01*
X203200Y81070D01*
X201930Y79800D01*
X193416Y109010D02*
X185796Y116630D01*
X179446Y116630D01*
X193416Y109010D02*
X201028Y109010D01*
X187019Y67100D02*
X146212Y67100D01*
X145680Y67632D01*
X134988Y70752D02*
X134988Y81070D01*
X134988Y70752D02*
X138430Y67310D01*
X145358Y67310D01*
X145680Y67632D01*
X78380Y96310D02*
X78380Y128034D01*
X77084Y129330D01*
X117435Y131870D02*
X117435Y114975D01*
X120650Y111760D01*
X120650Y96857D01*
X120103Y96310D01*
X151292Y97428D02*
X151292Y81070D01*
X151292Y97428D02*
X151140Y97580D01*
M02*
