G04 EAGLE Gerber RS-274X export*
G75*
%MOMM*%
%FSLAX34Y34*%
%LPD*%
%INPads Top*%
%IPPOS*%
%AMOC8*
5,1,8,0,0,1.08239X$1,22.5*%
G01*
G04 Define Apertures*
%ADD10R,2.018500X1.367800*%
%ADD11R,1.668500X1.367800*%
%ADD12R,1.124100X1.173400*%
%ADD13R,1.165000X1.915000*%
%ADD14R,1.020600X1.555100*%
%ADD15R,1.025000X1.555100*%
%ADD16R,0.715000X1.115000*%
%ADD17C,0.322038*%
%ADD18R,0.604700X1.672400*%
%ADD19R,1.367800X2.018500*%
%ADD20R,1.234400X1.623400*%
%ADD21R,1.001900X1.177100*%
%ADD22R,1.623400X1.234400*%
%ADD23R,1.177100X1.001900*%
%ADD24C,1.727200*%
D10*
X52970Y217916D03*
X52970Y247424D03*
D11*
X121550Y51724D03*
X121550Y34216D03*
X155840Y151056D03*
X155840Y168564D03*
D12*
X179446Y116630D03*
X163954Y116630D03*
D13*
X47880Y96310D03*
X78380Y96310D03*
D14*
X100115Y96310D03*
D15*
X120103Y96310D03*
D16*
X135140Y97580D03*
X151140Y97580D03*
D17*
X95922Y228515D02*
X77456Y228515D01*
X77456Y233345D01*
X95922Y233345D01*
X95922Y228515D01*
X95922Y231574D02*
X77456Y231574D01*
X77456Y215815D02*
X95922Y215815D01*
X77456Y215815D02*
X77456Y220645D01*
X95922Y220645D01*
X95922Y215815D01*
X95922Y218874D02*
X77456Y218874D01*
X77456Y203115D02*
X95922Y203115D01*
X77456Y203115D02*
X77456Y207945D01*
X95922Y207945D01*
X95922Y203115D01*
X95922Y206174D02*
X77456Y206174D01*
X77456Y190415D02*
X95922Y190415D01*
X77456Y190415D02*
X77456Y195245D01*
X95922Y195245D01*
X95922Y190415D01*
X95922Y193474D02*
X77456Y193474D01*
X126858Y190415D02*
X145324Y190415D01*
X126858Y190415D02*
X126858Y195245D01*
X145324Y195245D01*
X145324Y190415D01*
X145324Y193474D02*
X126858Y193474D01*
X126858Y203115D02*
X145324Y203115D01*
X126858Y203115D02*
X126858Y207945D01*
X145324Y207945D01*
X145324Y203115D01*
X145324Y206174D02*
X126858Y206174D01*
X126858Y215815D02*
X145324Y215815D01*
X126858Y215815D02*
X126858Y220645D01*
X145324Y220645D01*
X145324Y215815D01*
X145324Y218874D02*
X126858Y218874D01*
X126858Y228515D02*
X145324Y228515D01*
X126858Y228515D02*
X126858Y233345D01*
X145324Y233345D01*
X145324Y228515D01*
X145324Y231574D02*
X126858Y231574D01*
D18*
X213400Y167927D03*
X219900Y167927D03*
X226400Y167927D03*
X232900Y167927D03*
X232900Y225353D03*
X226400Y225353D03*
X219900Y225353D03*
X213400Y225353D03*
D17*
X196252Y90085D02*
X177786Y90085D01*
X177786Y94915D01*
X196252Y94915D01*
X196252Y90085D01*
X196252Y93144D02*
X177786Y93144D01*
X177786Y77385D02*
X196252Y77385D01*
X177786Y77385D02*
X177786Y82215D01*
X196252Y82215D01*
X196252Y77385D01*
X196252Y80444D02*
X177786Y80444D01*
X177786Y64685D02*
X196252Y64685D01*
X177786Y64685D02*
X177786Y69515D01*
X196252Y69515D01*
X196252Y64685D01*
X196252Y67744D02*
X177786Y67744D01*
X177786Y51985D02*
X196252Y51985D01*
X177786Y51985D02*
X177786Y56815D01*
X196252Y56815D01*
X196252Y51985D01*
X196252Y55044D02*
X177786Y55044D01*
X227188Y51985D02*
X245654Y51985D01*
X227188Y51985D02*
X227188Y56815D01*
X245654Y56815D01*
X245654Y51985D01*
X245654Y55044D02*
X227188Y55044D01*
X227188Y64685D02*
X245654Y64685D01*
X227188Y64685D02*
X227188Y69515D01*
X245654Y69515D01*
X245654Y64685D01*
X245654Y67744D02*
X227188Y67744D01*
X227188Y77385D02*
X245654Y77385D01*
X227188Y77385D02*
X227188Y82215D01*
X245654Y82215D01*
X245654Y77385D01*
X245654Y80444D02*
X227188Y80444D01*
X227188Y90085D02*
X245654Y90085D01*
X227188Y90085D02*
X227188Y94915D01*
X245654Y94915D01*
X245654Y90085D01*
X245654Y93144D02*
X227188Y93144D01*
D19*
X77084Y129330D03*
X47576Y129330D03*
D20*
X117435Y131870D03*
X135825Y131870D03*
D21*
X151292Y81070D03*
X134988Y81070D03*
D10*
X171080Y248224D03*
X171080Y218716D03*
D22*
X220367Y269335D03*
X220367Y250945D03*
D21*
X236588Y110280D03*
X252892Y110280D03*
D19*
X124874Y259270D03*
X95366Y259270D03*
D22*
X180997Y169005D03*
X180997Y150615D03*
D21*
X217332Y109010D03*
X201028Y109010D03*
D19*
X76614Y163620D03*
X47106Y163620D03*
D20*
X232345Y131870D03*
X213955Y131870D03*
D23*
X145680Y51328D03*
X145680Y67632D03*
D24*
X50430Y59480D02*
X50430Y44240D01*
X75830Y44240D02*
X75830Y59480D01*
M02*
