G04 EAGLE Gerber RS-274X export*
G75*
%MOMM*%
%FSLAX34Y34*%
%LPD*%
%INSolderpaste Top*%
%IPPOS*%
%AMOC8*
5,1,8,0,0,1.08239X$1,22.5*%
G01*
G04 Define Apertures*
%ADD10R,1.815300X1.164600*%
%ADD11R,1.465300X1.164600*%
%ADD12R,0.920900X0.970200*%
%ADD13R,0.961800X1.711800*%
%ADD14R,0.817400X1.351900*%
%ADD15R,0.821800X1.351900*%
%ADD16R,0.511800X0.911800*%
%ADD17C,0.120378*%
%ADD18R,0.401500X1.469200*%
%ADD19R,1.164600X1.815300*%
%ADD20R,1.031200X1.420200*%
%ADD21R,0.798700X0.973900*%
%ADD22R,1.420200X1.031200*%
%ADD23R,0.973900X0.798700*%
D10*
X52970Y217916D03*
X52970Y247424D03*
D11*
X121550Y51724D03*
X121550Y34216D03*
X155840Y151056D03*
X155840Y168564D03*
D12*
X179446Y116630D03*
X163954Y116630D03*
D13*
X47880Y96310D03*
X78380Y96310D03*
D14*
X100115Y96310D03*
D15*
X120103Y96310D03*
D16*
X135140Y97580D03*
X151140Y97580D03*
D17*
X95914Y228523D02*
X77464Y228523D01*
X77464Y233337D01*
X95914Y233337D01*
X95914Y228523D01*
X95914Y229667D02*
X77464Y229667D01*
X77464Y230811D02*
X95914Y230811D01*
X95914Y231955D02*
X77464Y231955D01*
X77464Y233099D02*
X95914Y233099D01*
X95914Y215823D02*
X77464Y215823D01*
X77464Y220637D01*
X95914Y220637D01*
X95914Y215823D01*
X95914Y216967D02*
X77464Y216967D01*
X77464Y218111D02*
X95914Y218111D01*
X95914Y219255D02*
X77464Y219255D01*
X77464Y220399D02*
X95914Y220399D01*
X95914Y203123D02*
X77464Y203123D01*
X77464Y207937D01*
X95914Y207937D01*
X95914Y203123D01*
X95914Y204267D02*
X77464Y204267D01*
X77464Y205411D02*
X95914Y205411D01*
X95914Y206555D02*
X77464Y206555D01*
X77464Y207699D02*
X95914Y207699D01*
X95914Y190423D02*
X77464Y190423D01*
X77464Y195237D01*
X95914Y195237D01*
X95914Y190423D01*
X95914Y191567D02*
X77464Y191567D01*
X77464Y192711D02*
X95914Y192711D01*
X95914Y193855D02*
X77464Y193855D01*
X77464Y194999D02*
X95914Y194999D01*
X126866Y190423D02*
X145316Y190423D01*
X126866Y190423D02*
X126866Y195237D01*
X145316Y195237D01*
X145316Y190423D01*
X145316Y191567D02*
X126866Y191567D01*
X126866Y192711D02*
X145316Y192711D01*
X145316Y193855D02*
X126866Y193855D01*
X126866Y194999D02*
X145316Y194999D01*
X145316Y203123D02*
X126866Y203123D01*
X126866Y207937D01*
X145316Y207937D01*
X145316Y203123D01*
X145316Y204267D02*
X126866Y204267D01*
X126866Y205411D02*
X145316Y205411D01*
X145316Y206555D02*
X126866Y206555D01*
X126866Y207699D02*
X145316Y207699D01*
X145316Y215823D02*
X126866Y215823D01*
X126866Y220637D01*
X145316Y220637D01*
X145316Y215823D01*
X145316Y216967D02*
X126866Y216967D01*
X126866Y218111D02*
X145316Y218111D01*
X145316Y219255D02*
X126866Y219255D01*
X126866Y220399D02*
X145316Y220399D01*
X145316Y228523D02*
X126866Y228523D01*
X126866Y233337D01*
X145316Y233337D01*
X145316Y228523D01*
X145316Y229667D02*
X126866Y229667D01*
X126866Y230811D02*
X145316Y230811D01*
X145316Y231955D02*
X126866Y231955D01*
X126866Y233099D02*
X145316Y233099D01*
D18*
X213400Y167927D03*
X219900Y167927D03*
X226400Y167927D03*
X232900Y167927D03*
X232900Y225353D03*
X226400Y225353D03*
X219900Y225353D03*
X213400Y225353D03*
D17*
X196244Y90093D02*
X177794Y90093D01*
X177794Y94907D01*
X196244Y94907D01*
X196244Y90093D01*
X196244Y91237D02*
X177794Y91237D01*
X177794Y92381D02*
X196244Y92381D01*
X196244Y93525D02*
X177794Y93525D01*
X177794Y94669D02*
X196244Y94669D01*
X196244Y77393D02*
X177794Y77393D01*
X177794Y82207D01*
X196244Y82207D01*
X196244Y77393D01*
X196244Y78537D02*
X177794Y78537D01*
X177794Y79681D02*
X196244Y79681D01*
X196244Y80825D02*
X177794Y80825D01*
X177794Y81969D02*
X196244Y81969D01*
X196244Y64693D02*
X177794Y64693D01*
X177794Y69507D01*
X196244Y69507D01*
X196244Y64693D01*
X196244Y65837D02*
X177794Y65837D01*
X177794Y66981D02*
X196244Y66981D01*
X196244Y68125D02*
X177794Y68125D01*
X177794Y69269D02*
X196244Y69269D01*
X196244Y51993D02*
X177794Y51993D01*
X177794Y56807D01*
X196244Y56807D01*
X196244Y51993D01*
X196244Y53137D02*
X177794Y53137D01*
X177794Y54281D02*
X196244Y54281D01*
X196244Y55425D02*
X177794Y55425D01*
X177794Y56569D02*
X196244Y56569D01*
X227196Y51993D02*
X245646Y51993D01*
X227196Y51993D02*
X227196Y56807D01*
X245646Y56807D01*
X245646Y51993D01*
X245646Y53137D02*
X227196Y53137D01*
X227196Y54281D02*
X245646Y54281D01*
X245646Y55425D02*
X227196Y55425D01*
X227196Y56569D02*
X245646Y56569D01*
X245646Y64693D02*
X227196Y64693D01*
X227196Y69507D01*
X245646Y69507D01*
X245646Y64693D01*
X245646Y65837D02*
X227196Y65837D01*
X227196Y66981D02*
X245646Y66981D01*
X245646Y68125D02*
X227196Y68125D01*
X227196Y69269D02*
X245646Y69269D01*
X245646Y77393D02*
X227196Y77393D01*
X227196Y82207D01*
X245646Y82207D01*
X245646Y77393D01*
X245646Y78537D02*
X227196Y78537D01*
X227196Y79681D02*
X245646Y79681D01*
X245646Y80825D02*
X227196Y80825D01*
X227196Y81969D02*
X245646Y81969D01*
X245646Y90093D02*
X227196Y90093D01*
X227196Y94907D01*
X245646Y94907D01*
X245646Y90093D01*
X245646Y91237D02*
X227196Y91237D01*
X227196Y92381D02*
X245646Y92381D01*
X245646Y93525D02*
X227196Y93525D01*
X227196Y94669D02*
X245646Y94669D01*
D19*
X77084Y129330D03*
X47576Y129330D03*
D20*
X117435Y131870D03*
X135825Y131870D03*
D21*
X151292Y81070D03*
X134988Y81070D03*
D10*
X171080Y248224D03*
X171080Y218716D03*
D22*
X220367Y269335D03*
X220367Y250945D03*
D21*
X236588Y110280D03*
X252892Y110280D03*
D19*
X124874Y259270D03*
X95366Y259270D03*
D22*
X180997Y169005D03*
X180997Y150615D03*
D21*
X217332Y109010D03*
X201028Y109010D03*
D19*
X76614Y163620D03*
X47106Y163620D03*
D20*
X232345Y131870D03*
X213955Y131870D03*
D23*
X145680Y51328D03*
X145680Y67632D03*
M02*
