M48
;GenerationSoftware,Autodesk,EAGLE,9.6.2*%
;CreationDate,2023-07-03T21:34:05Z*%
FMAT,2
ICI,OFF
METRIC,TZ,000.000
T5C0.813
T4C1.016
T3C1.372
T2C3.000
T1C3.500
%
G90
M71
T1
X-3500Y35000
X-70000Y35000
X-3500Y10000
X-70000Y10000
T2
X-6350Y3866
X-68350Y3866
T3
X-60550Y32915
X-14890Y9672
X-47335Y33900
X-60550Y27835
X-60550Y30375
X-9810Y9672
X-12350Y9672
X-38210Y9672
X-40750Y9672
X-43290Y9672
X-23810Y9672
X-26350Y9672
X-28890Y9672
X-56810Y9672
X-59350Y9672
X-61890Y9672
X-52415Y33900
X-49875Y33900
T4
X-5354Y16530
X-5354Y19070
X-5354Y21610
X-5354Y27452
X-5354Y24912
X-69400Y26745
X-69400Y24205
X-69400Y15279
X-69400Y17819
T5
X-43598Y18251
X-26674Y17038
X-24134Y17038
X-26674Y24658
X-24134Y24658
X-21594Y24658
X-19054Y24658
X-16514Y24658
X-13974Y24658
X-51218Y18251
X-43598Y25871
X-43598Y23331
X-51218Y23331
X-51218Y25871
X-43598Y20791
X-51218Y20791
X-13974Y17038
X-16514Y17038
X-29214Y17038
X-29214Y24658
X-19054Y17038
X-21594Y17038
M30