M48
;GenerationSoftware,Autodesk,EAGLE,9.6.2*%
;CreationDate,2023-07-03T21:34:05Z*%
FMAT,2
ICI,OFF
METRIC,TZ,000.000
T5C0.813
T4C1.016
T3C1.372
T2C3.000
T1C3.500
%
G90
M71
T1
X3500Y35000
X70000Y35000
X3500Y10000
X70000Y10000
T2
X6350Y3866
X68350Y3866
T3
X60550Y32915
X14890Y9672
X47335Y33900
X60550Y27835
X60550Y30375
X9810Y9672
X12350Y9672
X38210Y9672
X40750Y9672
X43290Y9672
X23810Y9672
X26350Y9672
X28890Y9672
X56810Y9672
X59350Y9672
X61890Y9672
X52415Y33900
X49875Y33900
T4
X5354Y16530
X5354Y19070
X5354Y21610
X5354Y27452
X5354Y24912
X69400Y26745
X69400Y24205
X69400Y15279
X69400Y17819
T5
X43598Y18251
X26674Y17038
X24134Y17038
X26674Y24658
X24134Y24658
X21594Y24658
X19054Y24658
X16514Y24658
X13974Y24658
X51218Y18251
X43598Y25871
X43598Y23331
X51218Y23331
X51218Y25871
X43598Y20791
X51218Y20791
X13974Y17038
X16514Y17038
X29214Y17038
X29214Y24658
X19054Y17038
X21594Y17038
M30