G04 EAGLE Gerber RS-274X export*
G75*
%MOMM*%
%FSLAX34Y34*%
%LPD*%
%INBottom Copper*%
%IPPOS*%
%AMOC8*
5,1,8,0,0,1.08239X$1,22.5*%
G01*
G04 Define Apertures*
%ADD10C,0.130000*%
%ADD11R,1.200000X0.550000*%
%ADD12R,1.524000X1.524000*%
%ADD13C,1.524000*%
%ADD14R,1.780000X0.450000*%
%ADD15C,0.300000*%
G36*
X256085Y3119D02*
X255500Y3000D01*
X4500Y3000D01*
X3959Y3101D01*
X3456Y3423D01*
X3119Y3915D01*
X3000Y4500D01*
X3000Y275500D01*
X3101Y276041D01*
X3423Y276544D01*
X3915Y276881D01*
X4500Y277000D01*
X255500Y277000D01*
X256041Y276899D01*
X256544Y276577D01*
X256881Y276085D01*
X257000Y275500D01*
X257000Y189985D01*
X256908Y189467D01*
X256594Y188959D01*
X256107Y188614D01*
X255524Y188485D01*
X254937Y188595D01*
X254439Y188925D01*
X224864Y218500D01*
X209485Y218500D01*
X208922Y218610D01*
X208425Y218939D01*
X186614Y240750D01*
X165000Y240750D01*
X164459Y240851D01*
X163956Y241173D01*
X163619Y241665D01*
X163500Y242250D01*
X163500Y245450D01*
X163470Y245898D01*
X163391Y246290D01*
X163260Y246667D01*
X163080Y247024D01*
X162855Y247353D01*
X162588Y247650D01*
X162283Y247908D01*
X161947Y248124D01*
X161585Y248293D01*
X161204Y248413D01*
X160800Y248482D01*
X160461Y248500D01*
X112550Y248500D01*
X112102Y248470D01*
X111710Y248391D01*
X111333Y248260D01*
X110976Y248080D01*
X110647Y247855D01*
X110350Y247588D01*
X110092Y247283D01*
X109876Y246947D01*
X109707Y246585D01*
X109587Y246204D01*
X109518Y245800D01*
X109500Y245461D01*
X109500Y242250D01*
X109399Y241709D01*
X109077Y241206D01*
X108585Y240869D01*
X108000Y240750D01*
X82386Y240750D01*
X51375Y209739D01*
X50900Y209419D01*
X50315Y209300D01*
X46653Y209300D01*
X46101Y209405D01*
X45601Y209731D01*
X45268Y210226D01*
X45023Y210816D01*
X42036Y213803D01*
X38132Y215420D01*
X18668Y215420D01*
X14764Y213803D01*
X11777Y210816D01*
X10160Y206912D01*
X10160Y202688D01*
X11777Y198784D01*
X14764Y195797D01*
X18668Y194180D01*
X38132Y194180D01*
X42036Y195797D01*
X45023Y198784D01*
X45268Y199374D01*
X45576Y199844D01*
X46068Y200181D01*
X46653Y200300D01*
X54664Y200300D01*
X85675Y231311D01*
X86150Y231631D01*
X86735Y231750D01*
X94765Y231750D01*
X95283Y231658D01*
X95791Y231344D01*
X96136Y230857D01*
X96265Y230274D01*
X96155Y229687D01*
X95825Y229189D01*
X87500Y220864D01*
X87500Y199000D01*
X87399Y198459D01*
X87077Y197956D01*
X86585Y197619D01*
X86000Y197500D01*
X58136Y197500D01*
X46598Y185962D01*
X46145Y185651D01*
X45561Y185523D01*
X44975Y185632D01*
X44477Y185962D01*
X42036Y188403D01*
X38132Y190020D01*
X18668Y190020D01*
X14764Y188403D01*
X11777Y185416D01*
X10160Y181512D01*
X10160Y177288D01*
X11777Y173384D01*
X14764Y170397D01*
X18668Y168780D01*
X38132Y168780D01*
X42036Y170397D01*
X45023Y173384D01*
X45268Y173974D01*
X45576Y174444D01*
X46068Y174781D01*
X46653Y174900D01*
X48264Y174900D01*
X61425Y188061D01*
X61900Y188381D01*
X62485Y188500D01*
X86000Y188500D01*
X86541Y188399D01*
X87044Y188077D01*
X87381Y187585D01*
X87500Y187000D01*
X87500Y171136D01*
X92976Y165660D01*
X97780Y165660D01*
X98321Y165559D01*
X98824Y165237D01*
X99161Y164745D01*
X99280Y164160D01*
X99280Y162000D01*
X99179Y161459D01*
X98857Y160956D01*
X98365Y160619D01*
X97780Y160500D01*
X85160Y160500D01*
X84619Y160601D01*
X84116Y160923D01*
X83779Y161415D01*
X83660Y162000D01*
X83660Y168660D01*
X63340Y168660D01*
X63340Y162000D01*
X63239Y161459D01*
X62917Y160956D01*
X62425Y160619D01*
X61840Y160500D01*
X45160Y160500D01*
X44597Y160610D01*
X44100Y160939D01*
X42036Y163003D01*
X38132Y164620D01*
X18668Y164620D01*
X14764Y163003D01*
X11777Y160016D01*
X10160Y156112D01*
X10160Y151888D01*
X11777Y147984D01*
X14764Y144997D01*
X18668Y143380D01*
X38132Y143380D01*
X42036Y144997D01*
X45023Y147984D01*
X46096Y150574D01*
X46404Y151044D01*
X46897Y151381D01*
X47482Y151500D01*
X142864Y151500D01*
X148800Y157436D01*
X148800Y158040D01*
X148901Y158581D01*
X149223Y159084D01*
X149715Y159421D01*
X150300Y159540D01*
X153163Y159540D01*
X154920Y161297D01*
X154920Y179023D01*
X153163Y180780D01*
X150300Y180780D01*
X149759Y180881D01*
X149256Y181203D01*
X148919Y181695D01*
X148800Y182280D01*
X148800Y190564D01*
X142864Y196500D01*
X116485Y196500D01*
X115922Y196610D01*
X115425Y196939D01*
X110939Y201425D01*
X110619Y201900D01*
X110500Y202485D01*
X110500Y204030D01*
X110713Y204800D01*
X111115Y205241D01*
X111657Y205490D01*
X112110Y205504D01*
X112111Y205522D01*
X112539Y205500D01*
X160450Y205500D01*
X160898Y205530D01*
X161290Y205609D01*
X161667Y205740D01*
X162024Y205920D01*
X162353Y206145D01*
X162650Y206412D01*
X162908Y206717D01*
X163124Y207053D01*
X163293Y207415D01*
X163413Y207796D01*
X163482Y208200D01*
X163500Y208539D01*
X163500Y211250D01*
X163601Y211791D01*
X163923Y212294D01*
X164415Y212631D01*
X165000Y212750D01*
X165265Y212750D01*
X165828Y212640D01*
X166325Y212311D01*
X169061Y209575D01*
X169381Y209100D01*
X169500Y208515D01*
X169500Y196485D01*
X169390Y195922D01*
X169061Y195425D01*
X158500Y184864D01*
X158500Y145485D01*
X158390Y144922D01*
X158061Y144425D01*
X157481Y143845D01*
X157049Y143543D01*
X156468Y143406D01*
X155879Y143506D01*
X155376Y143828D01*
X155039Y144320D01*
X154920Y144905D01*
X154920Y146003D01*
X153163Y147760D01*
X135437Y147760D01*
X133680Y146003D01*
X133680Y143140D01*
X133579Y142599D01*
X133257Y142096D01*
X132765Y141759D01*
X132180Y141640D01*
X122020Y141640D01*
X121479Y141741D01*
X120976Y142063D01*
X120639Y142555D01*
X120520Y143140D01*
X120520Y146003D01*
X118763Y147760D01*
X101037Y147760D01*
X99280Y146003D01*
X99280Y143140D01*
X99179Y142599D01*
X98857Y142096D01*
X98365Y141759D01*
X97780Y141640D01*
X85620Y141640D01*
X85079Y141741D01*
X84576Y142063D01*
X84239Y142555D01*
X84120Y143140D01*
X84120Y146003D01*
X82363Y147760D01*
X64637Y147760D01*
X62880Y146003D01*
X62880Y128277D01*
X64637Y126520D01*
X67500Y126520D01*
X68041Y126419D01*
X68544Y126097D01*
X68881Y125605D01*
X69000Y125020D01*
X69000Y121985D01*
X68890Y121422D01*
X68561Y120925D01*
X55775Y108139D01*
X55300Y107819D01*
X54715Y107700D01*
X46653Y107700D01*
X46101Y107805D01*
X45601Y108131D01*
X45268Y108626D01*
X45023Y109216D01*
X42036Y112203D01*
X38132Y113820D01*
X18668Y113820D01*
X14764Y112203D01*
X11777Y109216D01*
X10160Y105312D01*
X10160Y101088D01*
X11777Y97184D01*
X14764Y94197D01*
X18668Y92580D01*
X38132Y92580D01*
X42036Y94197D01*
X45023Y97184D01*
X45268Y97774D01*
X45576Y98244D01*
X46068Y98581D01*
X46653Y98700D01*
X59064Y98700D01*
X78000Y117636D01*
X78000Y125020D01*
X78101Y125561D01*
X78423Y126064D01*
X78915Y126401D01*
X79500Y126520D01*
X82363Y126520D01*
X84120Y128277D01*
X84120Y131140D01*
X84221Y131681D01*
X84543Y132184D01*
X85035Y132521D01*
X85620Y132640D01*
X97780Y132640D01*
X98321Y132539D01*
X98824Y132217D01*
X99161Y131725D01*
X99280Y131140D01*
X99280Y128277D01*
X101037Y126520D01*
X118763Y126520D01*
X120520Y128277D01*
X120520Y131140D01*
X120621Y131681D01*
X120943Y132184D01*
X121435Y132521D01*
X122020Y132640D01*
X132180Y132640D01*
X132721Y132539D01*
X133224Y132217D01*
X133561Y131725D01*
X133680Y131140D01*
X133680Y128277D01*
X135437Y126520D01*
X153163Y126520D01*
X154920Y128277D01*
X154920Y131140D01*
X155021Y131681D01*
X155343Y132184D01*
X155835Y132521D01*
X156420Y132640D01*
X159004Y132640D01*
X167500Y141136D01*
X167500Y180515D01*
X167610Y181078D01*
X167939Y181575D01*
X178500Y192136D01*
X178500Y212864D01*
X169614Y221750D01*
X165000Y221750D01*
X164459Y221851D01*
X163956Y222173D01*
X163619Y222665D01*
X163500Y223250D01*
X163500Y230250D01*
X163601Y230791D01*
X163923Y231294D01*
X164415Y231631D01*
X165000Y231750D01*
X182265Y231750D01*
X182828Y231640D01*
X183325Y231311D01*
X205136Y209500D01*
X220515Y209500D01*
X221078Y209390D01*
X221575Y209061D01*
X244561Y186075D01*
X244881Y185600D01*
X245000Y185015D01*
X245000Y107985D01*
X244890Y107422D01*
X244561Y106925D01*
X244431Y106795D01*
X243999Y106493D01*
X243418Y106356D01*
X242829Y106456D01*
X242326Y106778D01*
X241989Y107270D01*
X241870Y107855D01*
X241870Y121173D01*
X240113Y122930D01*
X237250Y122930D01*
X236709Y123031D01*
X236206Y123353D01*
X235869Y123845D01*
X235750Y124430D01*
X235750Y125320D01*
X235851Y125861D01*
X236173Y126364D01*
X236665Y126701D01*
X237250Y126820D01*
X240113Y126820D01*
X241870Y128577D01*
X241870Y146303D01*
X240113Y148060D01*
X222387Y148060D01*
X220630Y146303D01*
X220630Y128577D01*
X222387Y126820D01*
X225250Y126820D01*
X225791Y126719D01*
X226294Y126397D01*
X226631Y125905D01*
X226750Y125320D01*
X226750Y124430D01*
X226649Y123889D01*
X226327Y123386D01*
X225835Y123049D01*
X225250Y122930D01*
X222387Y122930D01*
X220630Y121173D01*
X220630Y116000D01*
X220529Y115459D01*
X220207Y114956D01*
X219715Y114619D01*
X219130Y114500D01*
X209136Y114500D01*
X195275Y100639D01*
X194800Y100319D01*
X194215Y100200D01*
X194185Y100200D01*
X193667Y100292D01*
X193159Y100606D01*
X192814Y101093D01*
X192685Y101676D01*
X192795Y102263D01*
X193125Y102761D01*
X211950Y121586D01*
X211950Y161115D01*
X212060Y161678D01*
X212389Y162175D01*
X215735Y165521D01*
X216210Y165841D01*
X216795Y165960D01*
X219130Y165960D01*
X219671Y165859D01*
X220174Y165537D01*
X220511Y165045D01*
X220630Y164460D01*
X220630Y161597D01*
X222387Y159840D01*
X240113Y159840D01*
X241870Y161597D01*
X241870Y179323D01*
X240113Y181080D01*
X222387Y181080D01*
X220630Y179323D01*
X220630Y176460D01*
X220529Y175919D01*
X220207Y175416D01*
X219715Y175079D01*
X219130Y174960D01*
X212446Y174960D01*
X208511Y171025D01*
X208057Y170714D01*
X207474Y170585D01*
X206887Y170695D01*
X206389Y171025D01*
X204304Y173110D01*
X193370Y173110D01*
X192829Y173211D01*
X192326Y173533D01*
X191989Y174025D01*
X191870Y174610D01*
X191870Y177473D01*
X190113Y179230D01*
X172387Y179230D01*
X170630Y177473D01*
X170630Y159747D01*
X172387Y157990D01*
X190113Y157990D01*
X191870Y159747D01*
X191870Y162610D01*
X191971Y163151D01*
X192293Y163654D01*
X192785Y163991D01*
X193370Y164110D01*
X199955Y164110D01*
X200518Y164000D01*
X201015Y163671D01*
X202511Y162175D01*
X202831Y161700D01*
X202950Y161115D01*
X202950Y125935D01*
X202840Y125372D01*
X202511Y124875D01*
X184775Y107139D01*
X184300Y106819D01*
X183715Y106700D01*
X178000Y106700D01*
X177459Y106801D01*
X176956Y107123D01*
X176619Y107615D01*
X176500Y108200D01*
X176500Y110450D01*
X176470Y110898D01*
X176391Y111290D01*
X176260Y111667D01*
X176080Y112024D01*
X175855Y112353D01*
X175588Y112650D01*
X175283Y112908D01*
X174947Y113124D01*
X174585Y113293D01*
X174204Y113413D01*
X173800Y113482D01*
X173461Y113500D01*
X83550Y113500D01*
X83102Y113470D01*
X82710Y113391D01*
X82333Y113260D01*
X81976Y113080D01*
X81647Y112855D01*
X81350Y112588D01*
X81092Y112283D01*
X80876Y111947D01*
X80707Y111585D01*
X80587Y111204D01*
X80518Y110800D01*
X80500Y110461D01*
X80500Y104485D01*
X80390Y103922D01*
X80061Y103425D01*
X59375Y82739D01*
X58900Y82419D01*
X58315Y82300D01*
X46653Y82300D01*
X46101Y82405D01*
X45601Y82731D01*
X45268Y83226D01*
X45023Y83816D01*
X42036Y86803D01*
X38132Y88420D01*
X18668Y88420D01*
X14764Y86803D01*
X11777Y83816D01*
X10160Y79912D01*
X10160Y75688D01*
X11777Y71784D01*
X14764Y68797D01*
X18668Y67180D01*
X38132Y67180D01*
X42036Y68797D01*
X45023Y71784D01*
X45268Y72374D01*
X45576Y72844D01*
X46068Y73181D01*
X46653Y73300D01*
X62664Y73300D01*
X77939Y88575D01*
X78371Y88877D01*
X78952Y89014D01*
X79541Y88914D01*
X80044Y88592D01*
X80381Y88100D01*
X80500Y87515D01*
X80500Y74550D01*
X80530Y74102D01*
X80609Y73710D01*
X80740Y73333D01*
X80920Y72976D01*
X81145Y72647D01*
X81412Y72350D01*
X81717Y72092D01*
X82053Y71876D01*
X82415Y71707D01*
X82796Y71587D01*
X83200Y71518D01*
X83539Y71500D01*
X111300Y71500D01*
X111841Y71399D01*
X112344Y71077D01*
X112681Y70585D01*
X112800Y70000D01*
X112800Y47253D01*
X112695Y46701D01*
X112369Y46201D01*
X111874Y45868D01*
X111284Y45623D01*
X108297Y42636D01*
X106680Y38732D01*
X106680Y19268D01*
X108297Y15364D01*
X111284Y12377D01*
X115188Y10760D01*
X119412Y10760D01*
X123316Y12377D01*
X126303Y15364D01*
X127920Y19268D01*
X127920Y38732D01*
X126303Y42636D01*
X123316Y45623D01*
X122726Y45868D01*
X122256Y46176D01*
X121919Y46668D01*
X121800Y47253D01*
X121800Y70000D01*
X121901Y70541D01*
X122223Y71044D01*
X122715Y71381D01*
X123300Y71500D01*
X129515Y71500D01*
X130078Y71390D01*
X130575Y71061D01*
X137761Y63875D01*
X138081Y63400D01*
X138200Y62815D01*
X138200Y47253D01*
X138095Y46701D01*
X137769Y46201D01*
X137274Y45868D01*
X136684Y45623D01*
X133697Y42636D01*
X132080Y38732D01*
X132080Y19268D01*
X133697Y15364D01*
X136684Y12377D01*
X140588Y10760D01*
X144812Y10760D01*
X148716Y12377D01*
X151703Y15364D01*
X153320Y19268D01*
X153320Y38732D01*
X151703Y42636D01*
X148716Y45623D01*
X148126Y45868D01*
X147656Y46176D01*
X147319Y46668D01*
X147200Y47253D01*
X147200Y67164D01*
X145425Y68939D01*
X145123Y69371D01*
X144986Y69952D01*
X145086Y70541D01*
X145408Y71044D01*
X145900Y71381D01*
X146485Y71500D01*
X173450Y71500D01*
X173898Y71530D01*
X174290Y71609D01*
X174667Y71740D01*
X175024Y71920D01*
X175353Y72145D01*
X175650Y72412D01*
X175908Y72717D01*
X176124Y73053D01*
X176293Y73415D01*
X176413Y73796D01*
X176482Y74200D01*
X176500Y74539D01*
X176500Y83200D01*
X176601Y83741D01*
X176923Y84244D01*
X177415Y84581D01*
X178000Y84700D01*
X212064Y84700D01*
X220425Y93061D01*
X220900Y93381D01*
X221485Y93500D01*
X243864Y93500D01*
X254439Y104075D01*
X254871Y104377D01*
X255452Y104514D01*
X256041Y104414D01*
X256544Y104092D01*
X256881Y103600D01*
X257000Y103015D01*
X257000Y4500D01*
X256899Y3959D01*
X256577Y3456D01*
X256085Y3119D01*
G37*
%LPC*%
G36*
X28922Y227500D02*
X37078Y227500D01*
X44612Y230621D01*
X50379Y236388D01*
X53500Y243922D01*
X53500Y252078D01*
X50379Y259612D01*
X44612Y265379D01*
X37078Y268500D01*
X28922Y268500D01*
X21388Y265379D01*
X15621Y259612D01*
X12500Y252078D01*
X12500Y243922D01*
X15621Y236388D01*
X21388Y230621D01*
X28922Y227500D01*
G37*
G36*
X223922Y227500D02*
X232078Y227500D01*
X239612Y230621D01*
X245379Y236388D01*
X248500Y243922D01*
X248500Y252078D01*
X245379Y259612D01*
X239612Y265379D01*
X232078Y268500D01*
X223922Y268500D01*
X216388Y265379D01*
X210621Y259612D01*
X207500Y252078D01*
X207500Y243922D01*
X210621Y236388D01*
X216388Y230621D01*
X223922Y227500D01*
G37*
G36*
X63340Y171660D02*
X72000Y171660D01*
X72000Y180320D01*
X64828Y180320D01*
X63340Y178832D01*
X63340Y171660D01*
G37*
G36*
X75000Y171660D02*
X83660Y171660D01*
X83660Y178832D01*
X82172Y180320D01*
X75000Y180320D01*
X75000Y171660D01*
G37*
G36*
X171090Y137090D02*
X179750Y137090D01*
X179750Y145750D01*
X172578Y145750D01*
X171090Y144262D01*
X171090Y137090D01*
G37*
G36*
X182750Y137090D02*
X191410Y137090D01*
X191410Y144262D01*
X189922Y145750D01*
X182750Y145750D01*
X182750Y137090D01*
G37*
G36*
X10620Y130100D02*
X26900Y130100D01*
X26900Y138760D01*
X18759Y138760D01*
X15025Y137213D01*
X12167Y134355D01*
X10620Y130621D01*
X10620Y130100D01*
G37*
G36*
X29900Y130100D02*
X46180Y130100D01*
X46180Y130621D01*
X44633Y134355D01*
X41775Y137213D01*
X38041Y138760D01*
X29900Y138760D01*
X29900Y130100D01*
G37*
G36*
X182750Y125430D02*
X189922Y125430D01*
X191410Y126918D01*
X191410Y134090D01*
X182750Y134090D01*
X182750Y125430D01*
G37*
G36*
X172578Y125430D02*
X179750Y125430D01*
X179750Y134090D01*
X171090Y134090D01*
X171090Y126918D01*
X172578Y125430D01*
G37*
G36*
X29900Y118440D02*
X38041Y118440D01*
X41775Y119987D01*
X44633Y122845D01*
X46180Y126579D01*
X46180Y127100D01*
X29900Y127100D01*
X29900Y118440D01*
G37*
G36*
X18759Y118440D02*
X26900Y118440D01*
X26900Y127100D01*
X10620Y127100D01*
X10620Y126579D01*
X12167Y122845D01*
X15025Y119987D01*
X18759Y118440D01*
G37*
G36*
X221090Y80790D02*
X229750Y80790D01*
X229750Y89450D01*
X222578Y89450D01*
X221090Y87962D01*
X221090Y80790D01*
G37*
G36*
X232750Y80790D02*
X241410Y80790D01*
X241410Y87962D01*
X239922Y89450D01*
X232750Y89450D01*
X232750Y80790D01*
G37*
G36*
X232750Y69130D02*
X239922Y69130D01*
X241410Y70618D01*
X241410Y77790D01*
X232750Y77790D01*
X232750Y69130D01*
G37*
G36*
X222578Y69130D02*
X229750Y69130D01*
X229750Y77790D01*
X221090Y77790D01*
X221090Y70618D01*
X222578Y69130D01*
G37*
G36*
X223922Y11250D02*
X232078Y11250D01*
X239612Y14371D01*
X245379Y20138D01*
X248500Y27672D01*
X248500Y35828D01*
X245379Y43362D01*
X239612Y49129D01*
X232078Y52250D01*
X223922Y52250D01*
X216388Y49129D01*
X210621Y43362D01*
X207500Y35828D01*
X207500Y27672D01*
X210621Y20138D01*
X216388Y14371D01*
X223922Y11250D01*
G37*
G36*
X28922Y11250D02*
X37078Y11250D01*
X44612Y14371D01*
X50379Y20138D01*
X53500Y27672D01*
X53500Y35828D01*
X50379Y43362D01*
X44612Y49129D01*
X37078Y52250D01*
X28922Y52250D01*
X21388Y49129D01*
X15621Y43362D01*
X12500Y35828D01*
X12500Y27672D01*
X15621Y20138D01*
X21388Y14371D01*
X28922Y11250D01*
G37*
%LPD*%
G36*
X113971Y74540D02*
X113776Y74500D01*
X84000Y74500D01*
X83820Y74534D01*
X83652Y74641D01*
X83540Y74805D01*
X83500Y75000D01*
X83500Y96016D01*
X83537Y96204D01*
X83646Y96370D01*
X86306Y99030D01*
X86465Y99136D01*
X86660Y99176D01*
X87026Y99176D01*
X87206Y99142D01*
X87374Y99035D01*
X87486Y98871D01*
X87526Y98676D01*
X87526Y92819D01*
X87541Y92804D01*
X87645Y92652D01*
X87688Y92458D01*
X87651Y92262D01*
X87541Y92096D01*
X87526Y92081D01*
X87526Y86319D01*
X87541Y86304D01*
X87645Y86152D01*
X87688Y85958D01*
X87651Y85762D01*
X87541Y85596D01*
X87526Y85581D01*
X87526Y79819D01*
X88419Y78926D01*
X107481Y78926D01*
X108374Y79819D01*
X108374Y85581D01*
X108359Y85596D01*
X108255Y85748D01*
X108212Y85942D01*
X108249Y86138D01*
X108359Y86304D01*
X108374Y86319D01*
X108374Y92081D01*
X108359Y92096D01*
X108255Y92248D01*
X108212Y92442D01*
X108249Y92638D01*
X108359Y92804D01*
X108374Y92819D01*
X108374Y98581D01*
X108359Y98596D01*
X108255Y98748D01*
X108212Y98942D01*
X108249Y99138D01*
X108359Y99304D01*
X108374Y99319D01*
X108374Y105081D01*
X107481Y105974D01*
X88419Y105974D01*
X87815Y105370D01*
X87657Y105264D01*
X87462Y105224D01*
X84000Y105224D01*
X83820Y105258D01*
X83652Y105365D01*
X83540Y105529D01*
X83500Y105724D01*
X83500Y110000D01*
X83534Y110180D01*
X83641Y110348D01*
X83805Y110460D01*
X84000Y110500D01*
X173000Y110500D01*
X173180Y110466D01*
X173348Y110359D01*
X173460Y110195D01*
X173500Y110000D01*
X173500Y105724D01*
X173466Y105544D01*
X173359Y105376D01*
X173195Y105264D01*
X173000Y105224D01*
X167838Y105224D01*
X167651Y105261D01*
X167485Y105370D01*
X166881Y105974D01*
X147819Y105974D01*
X147215Y105370D01*
X147057Y105264D01*
X146862Y105224D01*
X123947Y105224D01*
X114276Y95553D01*
X114276Y75000D01*
X114242Y74820D01*
X114135Y74652D01*
X113971Y74540D01*
G37*
G36*
X129671Y74540D02*
X129476Y74500D01*
X120824Y74500D01*
X120644Y74534D01*
X120476Y74641D01*
X120364Y74805D01*
X120324Y75000D01*
X120324Y92840D01*
X120361Y93028D01*
X120470Y93194D01*
X126306Y99030D01*
X126465Y99136D01*
X126660Y99176D01*
X146426Y99176D01*
X146606Y99142D01*
X146774Y99035D01*
X146886Y98871D01*
X146926Y98676D01*
X146926Y92724D01*
X146892Y92544D01*
X146785Y92376D01*
X146621Y92264D01*
X146426Y92224D01*
X134947Y92224D01*
X129976Y87253D01*
X129976Y75000D01*
X129942Y74820D01*
X129835Y74652D01*
X129671Y74540D01*
G37*
G36*
X173195Y74540D02*
X173000Y74500D01*
X137984Y74500D01*
X137796Y74537D01*
X137630Y74646D01*
X136170Y76106D01*
X136064Y76265D01*
X136024Y76460D01*
X136024Y84540D01*
X136061Y84728D01*
X136170Y84894D01*
X137306Y86030D01*
X137465Y86136D01*
X137660Y86176D01*
X146426Y86176D01*
X146606Y86142D01*
X146774Y86035D01*
X146886Y85871D01*
X146926Y85676D01*
X146926Y79819D01*
X147819Y78926D01*
X166881Y78926D01*
X167485Y79530D01*
X167643Y79636D01*
X167838Y79676D01*
X173000Y79676D01*
X173180Y79642D01*
X173348Y79535D01*
X173460Y79371D01*
X173500Y79176D01*
X173500Y75000D01*
X173466Y74820D01*
X173359Y74652D01*
X173195Y74540D01*
G37*
G36*
X160195Y208540D02*
X160000Y208500D01*
X113000Y208500D01*
X112820Y208534D01*
X112652Y208641D01*
X112540Y208805D01*
X112500Y209000D01*
X112500Y213476D01*
X112534Y213656D01*
X112641Y213824D01*
X112805Y213936D01*
X113000Y213976D01*
X115261Y213976D01*
X115448Y213939D01*
X115614Y213830D01*
X116468Y212976D01*
X129730Y212976D01*
X130623Y213869D01*
X130623Y220631D01*
X129608Y221646D01*
X129504Y221798D01*
X129461Y221992D01*
X129498Y222188D01*
X129608Y222354D01*
X130623Y223369D01*
X130623Y230131D01*
X129608Y231146D01*
X129504Y231298D01*
X129461Y231492D01*
X129498Y231688D01*
X129608Y231854D01*
X130623Y232869D01*
X130623Y239631D01*
X129730Y240524D01*
X116468Y240524D01*
X115542Y239599D01*
X115541Y239594D01*
X115434Y239426D01*
X115270Y239314D01*
X115075Y239274D01*
X113000Y239274D01*
X112820Y239308D01*
X112652Y239415D01*
X112540Y239579D01*
X112500Y239774D01*
X112500Y245000D01*
X112534Y245180D01*
X112641Y245348D01*
X112805Y245460D01*
X113000Y245500D01*
X160000Y245500D01*
X160180Y245466D01*
X160348Y245359D01*
X160460Y245195D01*
X160500Y245000D01*
X160500Y239774D01*
X160466Y239594D01*
X160359Y239426D01*
X160195Y239314D01*
X160000Y239274D01*
X157125Y239274D01*
X156945Y239308D01*
X156777Y239415D01*
X156665Y239579D01*
X156661Y239595D01*
X155732Y240524D01*
X142470Y240524D01*
X141577Y239631D01*
X141577Y232869D01*
X142592Y231854D01*
X142696Y231702D01*
X142739Y231508D01*
X142702Y231312D01*
X142592Y231146D01*
X141577Y230131D01*
X141577Y223369D01*
X142592Y222354D01*
X142696Y222202D01*
X142739Y222008D01*
X142702Y221812D01*
X142592Y221646D01*
X141577Y220631D01*
X141577Y213869D01*
X142470Y212976D01*
X155732Y212976D01*
X156658Y213902D01*
X156659Y213906D01*
X156766Y214074D01*
X156930Y214186D01*
X157125Y214226D01*
X160000Y214226D01*
X160180Y214192D01*
X160348Y214085D01*
X160460Y213921D01*
X160500Y213726D01*
X160500Y209000D01*
X160466Y208820D01*
X160359Y208652D01*
X160195Y208540D01*
G37*
G36*
X160195Y229814D02*
X160000Y229774D01*
X157125Y229774D01*
X156945Y229808D01*
X156777Y229915D01*
X156665Y230079D01*
X156661Y230095D01*
X155610Y231146D01*
X155506Y231298D01*
X155463Y231492D01*
X155500Y231688D01*
X155610Y231854D01*
X156658Y232902D01*
X156659Y232906D01*
X156766Y233074D01*
X156930Y233186D01*
X157125Y233226D01*
X160000Y233226D01*
X160180Y233192D01*
X160348Y233085D01*
X160460Y232921D01*
X160500Y232726D01*
X160500Y230274D01*
X160466Y230094D01*
X160359Y229926D01*
X160195Y229814D01*
G37*
G36*
X115270Y229814D02*
X115075Y229774D01*
X113000Y229774D01*
X112820Y229808D01*
X112652Y229915D01*
X112540Y230079D01*
X112500Y230274D01*
X112500Y232726D01*
X112534Y232906D01*
X112641Y233074D01*
X112805Y233186D01*
X113000Y233226D01*
X115075Y233226D01*
X115255Y233192D01*
X115423Y233085D01*
X115535Y232921D01*
X115539Y232905D01*
X116590Y231854D01*
X116694Y231702D01*
X116737Y231508D01*
X116700Y231312D01*
X116590Y231146D01*
X115542Y230099D01*
X115541Y230094D01*
X115434Y229926D01*
X115270Y229814D01*
G37*
G36*
X115270Y220064D02*
X115075Y220024D01*
X113000Y220024D01*
X112820Y220058D01*
X112652Y220165D01*
X112540Y220329D01*
X112500Y220524D01*
X112500Y223226D01*
X112534Y223406D01*
X112641Y223574D01*
X112805Y223686D01*
X113000Y223726D01*
X115075Y223726D01*
X115255Y223692D01*
X115423Y223585D01*
X115535Y223421D01*
X115539Y223405D01*
X116590Y222354D01*
X116694Y222202D01*
X116737Y222008D01*
X116700Y221812D01*
X116590Y221646D01*
X115575Y220631D01*
X115575Y220524D01*
X115541Y220344D01*
X115434Y220176D01*
X115270Y220064D01*
G37*
G36*
X160195Y220314D02*
X160000Y220274D01*
X157125Y220274D01*
X156945Y220308D01*
X156777Y220415D01*
X156665Y220579D01*
X156661Y220595D01*
X155610Y221646D01*
X155506Y221798D01*
X155463Y221992D01*
X155500Y222188D01*
X155610Y222354D01*
X156658Y223402D01*
X156659Y223406D01*
X156766Y223574D01*
X156930Y223686D01*
X157125Y223726D01*
X160000Y223726D01*
X160180Y223692D01*
X160348Y223585D01*
X160460Y223421D01*
X160500Y223226D01*
X160500Y220774D01*
X160466Y220594D01*
X160359Y220426D01*
X160195Y220314D01*
G37*
G36*
X106079Y306500D02*
X105712Y306509D01*
X105356Y306535D01*
X105012Y306580D01*
X104679Y306642D01*
X104358Y306723D01*
X104048Y306821D01*
X103749Y306936D01*
X103461Y307070D01*
X103185Y307222D01*
X102920Y307391D01*
X102667Y307578D01*
X102425Y307783D01*
X102194Y308006D01*
X101975Y308247D01*
X101767Y308505D01*
X101571Y308781D01*
X101386Y309075D01*
X101213Y309384D01*
X101051Y309709D01*
X100902Y310050D01*
X100765Y310408D01*
X100640Y310781D01*
X100526Y311170D01*
X100425Y311576D01*
X100335Y311997D01*
X100258Y312434D01*
X100192Y312887D01*
X100139Y313357D01*
X100097Y313842D01*
X100067Y314343D01*
X100049Y314861D01*
X100043Y315394D01*
X100066Y316461D01*
X100134Y317461D01*
X100185Y317936D01*
X100248Y318394D01*
X100321Y318834D01*
X100407Y319258D01*
X100503Y319666D01*
X100611Y320056D01*
X100730Y320429D01*
X100861Y320786D01*
X101003Y321125D01*
X101156Y321448D01*
X101321Y321754D01*
X101497Y322043D01*
X101685Y322315D01*
X101885Y322569D01*
X102098Y322806D01*
X102324Y323025D01*
X102562Y323227D01*
X102812Y323411D01*
X103075Y323578D01*
X103351Y323727D01*
X103639Y323859D01*
X103940Y323973D01*
X104253Y324069D01*
X104578Y324148D01*
X104916Y324209D01*
X105267Y324253D01*
X105630Y324280D01*
X106005Y324288D01*
X106391Y324280D01*
X106764Y324254D01*
X107124Y324210D01*
X107470Y324150D01*
X107804Y324071D01*
X108124Y323976D01*
X108431Y323863D01*
X108724Y323733D01*
X109005Y323586D01*
X109272Y323421D01*
X109526Y323239D01*
X109768Y323039D01*
X109995Y322822D01*
X110210Y322588D01*
X110412Y322337D01*
X110600Y322068D01*
X110776Y321782D01*
X110941Y321478D01*
X111094Y321157D01*
X111236Y320818D01*
X111366Y320462D01*
X111486Y320088D01*
X111594Y319697D01*
X111690Y319289D01*
X111775Y318863D01*
X111849Y318420D01*
X111912Y317959D01*
X111963Y317481D01*
X112002Y316985D01*
X112031Y316472D01*
X112054Y315394D01*
X112048Y314858D01*
X112030Y314338D01*
X112001Y313834D01*
X111960Y313347D01*
X111907Y312876D01*
X111843Y312421D01*
X111767Y311982D01*
X111679Y311560D01*
X111580Y311154D01*
X111469Y310765D01*
X111346Y310391D01*
X111212Y310034D01*
X111066Y309694D01*
X110908Y309369D01*
X110738Y309061D01*
X110557Y308769D01*
X110364Y308494D01*
X110160Y308237D01*
X109943Y307998D01*
X109716Y307776D01*
X109476Y307572D01*
X109226Y307386D01*
X108963Y307218D01*
X108689Y307067D01*
X108403Y306934D01*
X108106Y306819D01*
X107797Y306721D01*
X107477Y306642D01*
X107145Y306579D01*
X106801Y306535D01*
X106446Y306509D01*
X106079Y306500D01*
G37*
%LPC*%
G36*
X106055Y308303D02*
X106296Y308310D01*
X106529Y308330D01*
X106753Y308363D01*
X106970Y308410D01*
X107178Y308470D01*
X107377Y308543D01*
X107752Y308729D01*
X108094Y308969D01*
X108402Y309262D01*
X108677Y309609D01*
X108919Y310008D01*
X109130Y310465D01*
X109314Y310984D01*
X109469Y311565D01*
X109595Y312207D01*
X109694Y312911D01*
X109764Y313677D01*
X109807Y314505D01*
X109821Y315394D01*
X109807Y316308D01*
X109765Y317156D01*
X109696Y317937D01*
X109598Y318651D01*
X109473Y319299D01*
X109320Y319879D01*
X109140Y320394D01*
X108931Y320841D01*
X108691Y321229D01*
X108415Y321566D01*
X108103Y321850D01*
X107755Y322083D01*
X107371Y322264D01*
X107166Y322335D01*
X106952Y322394D01*
X106729Y322439D01*
X106497Y322471D01*
X106256Y322491D01*
X106005Y322497D01*
X105761Y322491D01*
X105526Y322471D01*
X105300Y322438D01*
X105082Y322392D01*
X104873Y322333D01*
X104673Y322261D01*
X104299Y322077D01*
X103960Y321841D01*
X103656Y321552D01*
X103387Y321210D01*
X103153Y320816D01*
X102950Y320364D01*
X102775Y319847D01*
X102626Y319266D01*
X102504Y318620D01*
X102410Y317910D01*
X102342Y317136D01*
X102302Y316297D01*
X102288Y315394D01*
X102302Y314521D01*
X102345Y313707D01*
X102416Y312951D01*
X102515Y312253D01*
X102643Y311614D01*
X102799Y311033D01*
X102983Y310510D01*
X103196Y310045D01*
X103439Y309637D01*
X103715Y309283D01*
X104024Y308984D01*
X104365Y308739D01*
X104547Y308636D01*
X104738Y308548D01*
X104937Y308473D01*
X105144Y308412D01*
X105360Y308364D01*
X105583Y308330D01*
X105815Y308310D01*
X106055Y308303D01*
G37*
%LPD*%
G36*
X120048Y306500D02*
X119681Y306509D01*
X119325Y306535D01*
X118981Y306580D01*
X118648Y306642D01*
X118327Y306723D01*
X118016Y306821D01*
X117718Y306936D01*
X117430Y307070D01*
X117154Y307222D01*
X116889Y307391D01*
X116636Y307578D01*
X116394Y307783D01*
X116163Y308006D01*
X115944Y308247D01*
X115736Y308505D01*
X115539Y308781D01*
X115354Y309075D01*
X115181Y309384D01*
X115020Y309709D01*
X114871Y310050D01*
X114734Y310408D01*
X114609Y310781D01*
X114495Y311170D01*
X114394Y311576D01*
X114304Y311997D01*
X114227Y312434D01*
X114161Y312887D01*
X114107Y313357D01*
X114066Y313842D01*
X114036Y314343D01*
X114018Y314861D01*
X114012Y315394D01*
X114035Y316461D01*
X114103Y317461D01*
X114154Y317936D01*
X114216Y318394D01*
X114290Y318834D01*
X114375Y319258D01*
X114472Y319666D01*
X114580Y320056D01*
X114699Y320429D01*
X114830Y320786D01*
X114972Y321125D01*
X115125Y321448D01*
X115290Y321754D01*
X115466Y322043D01*
X115654Y322315D01*
X115854Y322569D01*
X116067Y322806D01*
X116293Y323025D01*
X116531Y323227D01*
X116781Y323411D01*
X117044Y323578D01*
X117320Y323727D01*
X117608Y323859D01*
X117908Y323973D01*
X118221Y324069D01*
X118547Y324148D01*
X118885Y324209D01*
X119236Y324253D01*
X119599Y324280D01*
X119974Y324288D01*
X120360Y324280D01*
X120733Y324254D01*
X121093Y324210D01*
X121439Y324150D01*
X121772Y324071D01*
X122092Y323976D01*
X122399Y323863D01*
X122693Y323733D01*
X122974Y323586D01*
X123241Y323421D01*
X123495Y323239D01*
X123736Y323039D01*
X123964Y322822D01*
X124179Y322588D01*
X124380Y322337D01*
X124569Y322068D01*
X124745Y321782D01*
X124909Y321478D01*
X125063Y321157D01*
X125205Y320818D01*
X125335Y320462D01*
X125454Y320088D01*
X125562Y319697D01*
X125659Y319289D01*
X125744Y318863D01*
X125818Y318420D01*
X125880Y317959D01*
X125931Y317481D01*
X125971Y316985D01*
X126000Y316472D01*
X126022Y315394D01*
X126016Y314858D01*
X125999Y314338D01*
X125970Y313834D01*
X125929Y313347D01*
X125876Y312876D01*
X125812Y312421D01*
X125736Y311982D01*
X125648Y311560D01*
X125549Y311154D01*
X125438Y310765D01*
X125315Y310391D01*
X125180Y310034D01*
X125034Y309694D01*
X124876Y309369D01*
X124707Y309061D01*
X124526Y308769D01*
X124333Y308494D01*
X124128Y308237D01*
X123912Y307998D01*
X123685Y307776D01*
X123445Y307572D01*
X123194Y307386D01*
X122932Y307218D01*
X122658Y307067D01*
X122372Y306934D01*
X122075Y306819D01*
X121766Y306721D01*
X121446Y306642D01*
X121114Y306579D01*
X120770Y306535D01*
X120415Y306509D01*
X120048Y306500D01*
G37*
%LPC*%
G36*
X120023Y308303D02*
X120264Y308310D01*
X120497Y308330D01*
X120722Y308363D01*
X120938Y308410D01*
X121146Y308470D01*
X121346Y308543D01*
X121721Y308729D01*
X122062Y308969D01*
X122371Y309262D01*
X122646Y309609D01*
X122888Y310008D01*
X123099Y310465D01*
X123282Y310984D01*
X123437Y311565D01*
X123564Y312207D01*
X123663Y312911D01*
X123733Y313677D01*
X123775Y314505D01*
X123790Y315394D01*
X123776Y316308D01*
X123734Y317156D01*
X123664Y317937D01*
X123567Y318651D01*
X123442Y319299D01*
X123289Y319879D01*
X123109Y320394D01*
X122900Y320841D01*
X122660Y321229D01*
X122384Y321566D01*
X122072Y321850D01*
X121724Y322083D01*
X121340Y322264D01*
X121135Y322335D01*
X120921Y322394D01*
X120698Y322439D01*
X120465Y322471D01*
X120224Y322491D01*
X119974Y322497D01*
X119730Y322491D01*
X119495Y322471D01*
X119268Y322438D01*
X119051Y322392D01*
X118842Y322333D01*
X118641Y322261D01*
X118267Y322077D01*
X117928Y321841D01*
X117624Y321552D01*
X117356Y321210D01*
X117122Y320816D01*
X116919Y320364D01*
X116743Y319847D01*
X116595Y319266D01*
X116473Y318620D01*
X116379Y317910D01*
X116311Y317136D01*
X116270Y316297D01*
X116257Y315394D01*
X116271Y314521D01*
X116314Y313707D01*
X116385Y312951D01*
X116484Y312253D01*
X116612Y311614D01*
X116768Y311033D01*
X116952Y310510D01*
X117165Y310045D01*
X117408Y309637D01*
X117684Y309283D01*
X117992Y308984D01*
X118333Y308739D01*
X118516Y308636D01*
X118707Y308548D01*
X118906Y308473D01*
X119113Y308412D01*
X119328Y308364D01*
X119552Y308330D01*
X119783Y308310D01*
X120023Y308303D01*
G37*
%LPD*%
G36*
X140654Y306500D02*
X140332Y306506D01*
X140018Y306524D01*
X139714Y306555D01*
X139418Y306599D01*
X139131Y306654D01*
X138853Y306722D01*
X138323Y306895D01*
X137829Y307118D01*
X137369Y307390D01*
X136945Y307711D01*
X136557Y308082D01*
X136209Y308496D01*
X135907Y308946D01*
X135652Y309431D01*
X135443Y309953D01*
X135281Y310511D01*
X135165Y311105D01*
X135095Y311735D01*
X135072Y312401D01*
X135094Y313016D01*
X135160Y313600D01*
X135270Y314151D01*
X135423Y314670D01*
X135621Y315157D01*
X135862Y315612D01*
X136148Y316034D01*
X136477Y316425D01*
X136843Y316775D01*
X137241Y317079D01*
X137669Y317337D01*
X138128Y317547D01*
X138618Y317711D01*
X139139Y317828D01*
X139691Y317898D01*
X140274Y317921D01*
X140621Y317912D01*
X140959Y317885D01*
X141287Y317839D01*
X141605Y317776D01*
X141913Y317694D01*
X142211Y317593D01*
X142498Y317475D01*
X142776Y317338D01*
X143042Y317184D01*
X143292Y317014D01*
X143526Y316826D01*
X143746Y316622D01*
X143950Y316402D01*
X144138Y316164D01*
X144311Y315910D01*
X144469Y315639D01*
X144453Y316449D01*
X144405Y317209D01*
X144324Y317920D01*
X144210Y318582D01*
X144064Y319195D01*
X143886Y319758D01*
X143676Y320272D01*
X143433Y320737D01*
X143160Y321149D01*
X142861Y321507D01*
X142535Y321810D01*
X142183Y322057D01*
X141804Y322250D01*
X141604Y322325D01*
X141398Y322387D01*
X141185Y322435D01*
X140966Y322470D01*
X140740Y322490D01*
X140507Y322497D01*
X140238Y322489D01*
X139982Y322464D01*
X139738Y322423D01*
X139505Y322365D01*
X139285Y322291D01*
X139077Y322200D01*
X138881Y322093D01*
X138697Y321970D01*
X138525Y321830D01*
X138366Y321673D01*
X138218Y321500D01*
X138082Y321310D01*
X137959Y321104D01*
X137847Y320882D01*
X137748Y320643D01*
X137661Y320387D01*
X135551Y320767D01*
X135689Y321194D01*
X135850Y321593D01*
X136034Y321964D01*
X136241Y322308D01*
X136470Y322624D01*
X136721Y322913D01*
X136996Y323174D01*
X137293Y323408D01*
X137612Y323614D01*
X137954Y323793D01*
X138319Y323944D01*
X138706Y324068D01*
X139117Y324165D01*
X139549Y324233D01*
X140004Y324275D01*
X140482Y324288D01*
X140848Y324279D01*
X141203Y324251D01*
X141548Y324204D01*
X141882Y324138D01*
X142205Y324054D01*
X142517Y323950D01*
X142819Y323828D01*
X143111Y323687D01*
X143391Y323528D01*
X143661Y323349D01*
X143921Y323152D01*
X144170Y322936D01*
X144408Y322701D01*
X144635Y322447D01*
X144852Y322175D01*
X145058Y321884D01*
X145253Y321575D01*
X145435Y321250D01*
X145604Y320909D01*
X145761Y320551D01*
X145906Y320177D01*
X146038Y319787D01*
X146157Y319381D01*
X146264Y318958D01*
X146358Y318519D01*
X146439Y318063D01*
X146508Y317592D01*
X146565Y317104D01*
X146609Y316600D01*
X146640Y316079D01*
X146659Y315542D01*
X146665Y314989D01*
X146659Y314479D01*
X146641Y313983D01*
X146611Y313504D01*
X146569Y313039D01*
X146514Y312590D01*
X146448Y312157D01*
X146370Y311739D01*
X146279Y311336D01*
X146176Y310949D01*
X146062Y310577D01*
X145935Y310221D01*
X145796Y309880D01*
X145645Y309555D01*
X145482Y309245D01*
X145307Y308950D01*
X145120Y308671D01*
X144921Y308408D01*
X144712Y308162D01*
X144492Y307933D01*
X144261Y307721D01*
X144019Y307526D01*
X143767Y307348D01*
X143504Y307187D01*
X143230Y307043D01*
X142946Y306915D01*
X142651Y306805D01*
X142345Y306712D01*
X142028Y306635D01*
X141701Y306576D01*
X141363Y306534D01*
X141014Y306508D01*
X140654Y306500D01*
G37*
%LPC*%
G36*
X140728Y308279D02*
X141105Y308298D01*
X141466Y308358D01*
X141808Y308458D01*
X142134Y308597D01*
X142442Y308777D01*
X142732Y308996D01*
X143005Y309255D01*
X143261Y309554D01*
X143492Y309885D01*
X143693Y310238D01*
X143863Y310613D01*
X144002Y311011D01*
X144110Y311432D01*
X144187Y311875D01*
X144233Y312341D01*
X144249Y312830D01*
X144234Y313215D01*
X144189Y313579D01*
X144115Y313921D01*
X144011Y314242D01*
X143877Y314542D01*
X143714Y314821D01*
X143521Y315078D01*
X143298Y315314D01*
X143051Y315526D01*
X142785Y315709D01*
X142501Y315864D01*
X142198Y315991D01*
X141877Y316089D01*
X141537Y316160D01*
X141178Y316202D01*
X140801Y316216D01*
X140402Y316200D01*
X140025Y316152D01*
X139670Y316073D01*
X139338Y315961D01*
X139029Y315818D01*
X138743Y315643D01*
X138479Y315436D01*
X138237Y315198D01*
X138022Y314930D01*
X137835Y314635D01*
X137677Y314313D01*
X137547Y313965D01*
X137447Y313589D01*
X137375Y313187D01*
X137332Y312758D01*
X137317Y312302D01*
X137331Y311846D01*
X137374Y311414D01*
X137445Y311008D01*
X137544Y310626D01*
X137672Y310270D01*
X137828Y309939D01*
X138012Y309633D01*
X138225Y309352D01*
X138463Y309100D01*
X138722Y308882D01*
X139002Y308698D01*
X139305Y308547D01*
X139628Y308429D01*
X139973Y308346D01*
X140340Y308295D01*
X140728Y308279D01*
G37*
%LPD*%
G36*
X160646Y306745D02*
X149200Y306745D01*
X149200Y308622D01*
X158217Y308622D01*
X158004Y309056D01*
X157733Y309498D01*
X157403Y309948D01*
X157015Y310407D01*
X156562Y310884D01*
X156037Y311390D01*
X155439Y311924D01*
X154770Y312486D01*
X153592Y313461D01*
X152620Y314299D01*
X151856Y315001D01*
X151298Y315566D01*
X150872Y316063D01*
X150502Y316559D01*
X150188Y317056D01*
X149930Y317553D01*
X149729Y318051D01*
X149585Y318550D01*
X149535Y318800D01*
X149499Y319051D01*
X149477Y319302D01*
X149470Y319553D01*
X149492Y320104D01*
X149558Y320623D01*
X149668Y321109D01*
X149821Y321563D01*
X150019Y321985D01*
X150260Y322374D01*
X150546Y322731D01*
X150875Y323055D01*
X151245Y323344D01*
X151653Y323595D01*
X152098Y323807D01*
X152582Y323980D01*
X153103Y324115D01*
X153662Y324211D01*
X154258Y324269D01*
X154893Y324288D01*
X155474Y324269D01*
X156029Y324212D01*
X156556Y324116D01*
X157056Y323982D01*
X157530Y323809D01*
X157976Y323598D01*
X158396Y323349D01*
X158788Y323062D01*
X159147Y322742D01*
X159466Y322395D01*
X159746Y322022D01*
X159985Y321623D01*
X160186Y321197D01*
X160346Y320745D01*
X160467Y320267D01*
X160548Y319761D01*
X158291Y319553D01*
X158239Y319890D01*
X158164Y320207D01*
X158065Y320505D01*
X157943Y320784D01*
X157797Y321044D01*
X157627Y321284D01*
X157434Y321505D01*
X157217Y321706D01*
X156981Y321886D01*
X156729Y322041D01*
X156462Y322173D01*
X156179Y322281D01*
X155881Y322365D01*
X155567Y322425D01*
X155238Y322461D01*
X154893Y322473D01*
X154532Y322460D01*
X154191Y322424D01*
X153871Y322362D01*
X153571Y322276D01*
X153291Y322166D01*
X153032Y322031D01*
X152793Y321872D01*
X152574Y321688D01*
X152379Y321481D01*
X152209Y321255D01*
X152066Y321009D01*
X151948Y320743D01*
X151857Y320457D01*
X151792Y320151D01*
X151753Y319825D01*
X151740Y319479D01*
X151747Y319219D01*
X151770Y318966D01*
X151808Y318719D01*
X151861Y318479D01*
X151929Y318247D01*
X152012Y318021D01*
X152111Y317802D01*
X152224Y317590D01*
X152485Y317177D01*
X152784Y316774D01*
X153120Y316380D01*
X153494Y315995D01*
X154327Y315235D01*
X155255Y314474D01*
X156235Y313681D01*
X157224Y312824D01*
X157715Y312366D01*
X158194Y311882D01*
X158662Y311372D01*
X159119Y310836D01*
X159553Y310266D01*
X159952Y309654D01*
X160316Y309000D01*
X160646Y308303D01*
X160646Y306745D01*
G37*
G36*
X131678Y306745D02*
X129286Y306745D01*
X129286Y309432D01*
X131678Y309432D01*
X131678Y306745D01*
G37*
G36*
X287124Y144954D02*
X286588Y144960D01*
X286068Y144977D01*
X285564Y145007D01*
X285077Y145047D01*
X284606Y145100D01*
X284151Y145164D01*
X283712Y145240D01*
X283290Y145328D01*
X282884Y145428D01*
X282495Y145539D01*
X282121Y145661D01*
X281764Y145796D01*
X281424Y145942D01*
X281099Y146100D01*
X280791Y146269D01*
X280499Y146451D01*
X280224Y146644D01*
X279967Y146848D01*
X279728Y147064D01*
X279506Y147292D01*
X279302Y147531D01*
X279116Y147782D01*
X278948Y148044D01*
X278797Y148318D01*
X278664Y148604D01*
X278549Y148901D01*
X278451Y149210D01*
X278372Y149531D01*
X278309Y149863D01*
X278265Y150206D01*
X278239Y150562D01*
X278230Y150928D01*
X278239Y151295D01*
X278265Y151651D01*
X278310Y151995D01*
X278372Y152328D01*
X278453Y152650D01*
X278551Y152960D01*
X278666Y153259D01*
X278800Y153546D01*
X278952Y153822D01*
X279121Y154087D01*
X279308Y154340D01*
X279513Y154582D01*
X279736Y154813D01*
X279977Y155032D01*
X280235Y155240D01*
X280511Y155437D01*
X280805Y155622D01*
X281114Y155795D01*
X281439Y155956D01*
X281780Y156105D01*
X282138Y156242D01*
X282511Y156368D01*
X282900Y156481D01*
X283306Y156583D01*
X283727Y156672D01*
X284164Y156750D01*
X284617Y156815D01*
X285087Y156869D01*
X285572Y156911D01*
X286073Y156941D01*
X286591Y156958D01*
X287124Y156964D01*
X288191Y156942D01*
X289191Y156874D01*
X289666Y156822D01*
X290124Y156760D01*
X290564Y156686D01*
X290988Y156601D01*
X291396Y156504D01*
X291786Y156397D01*
X292159Y156277D01*
X292516Y156147D01*
X292855Y156005D01*
X293178Y155851D01*
X293484Y155687D01*
X293773Y155511D01*
X294045Y155323D01*
X294299Y155122D01*
X294536Y154909D01*
X294755Y154684D01*
X294957Y154446D01*
X295141Y154195D01*
X295308Y153932D01*
X295457Y153657D01*
X295589Y153369D01*
X295703Y153068D01*
X295799Y152755D01*
X295878Y152429D01*
X295939Y152091D01*
X295983Y151741D01*
X296010Y151378D01*
X296018Y151002D01*
X296010Y150616D01*
X295984Y150243D01*
X295940Y149884D01*
X295880Y149537D01*
X295801Y149204D01*
X295706Y148884D01*
X295593Y148577D01*
X295463Y148283D01*
X295316Y148003D01*
X295151Y147735D01*
X294969Y147481D01*
X294769Y147240D01*
X294552Y147012D01*
X294318Y146798D01*
X294067Y146596D01*
X293798Y146408D01*
X293512Y146232D01*
X293208Y146067D01*
X292887Y145914D01*
X292548Y145772D01*
X292192Y145641D01*
X291818Y145522D01*
X291427Y145414D01*
X291019Y145317D01*
X290593Y145232D01*
X290150Y145158D01*
X289689Y145096D01*
X289211Y145045D01*
X288715Y145005D01*
X288202Y144977D01*
X287124Y144954D01*
G37*
%LPC*%
G36*
X287124Y147187D02*
X288038Y147201D01*
X288886Y147242D01*
X289667Y147312D01*
X290381Y147409D01*
X291029Y147534D01*
X291609Y147687D01*
X292124Y147868D01*
X292571Y148076D01*
X292959Y148316D01*
X293296Y148593D01*
X293580Y148905D01*
X293813Y149252D01*
X293994Y149636D01*
X294065Y149841D01*
X294124Y150056D01*
X294169Y150279D01*
X294201Y150511D01*
X294221Y150752D01*
X294227Y151002D01*
X294221Y151246D01*
X294201Y151481D01*
X294168Y151708D01*
X294122Y151926D01*
X294063Y152135D01*
X293991Y152335D01*
X293807Y152709D01*
X293571Y153048D01*
X293282Y153352D01*
X292940Y153621D01*
X292546Y153854D01*
X292094Y154057D01*
X291577Y154233D01*
X290996Y154381D01*
X290350Y154503D01*
X289640Y154598D01*
X288866Y154665D01*
X288027Y154706D01*
X287124Y154719D01*
X286251Y154705D01*
X285437Y154663D01*
X284681Y154592D01*
X283983Y154492D01*
X283344Y154365D01*
X282763Y154209D01*
X282240Y154024D01*
X281775Y153811D01*
X281367Y153568D01*
X281013Y153292D01*
X280714Y152984D01*
X280469Y152643D01*
X280366Y152460D01*
X280278Y152269D01*
X280203Y152070D01*
X280142Y151863D01*
X280094Y151648D01*
X280060Y151424D01*
X280040Y151193D01*
X280033Y150953D01*
X280040Y150712D01*
X280060Y150479D01*
X280093Y150254D01*
X280140Y150038D01*
X280200Y149830D01*
X280273Y149630D01*
X280459Y149255D01*
X280699Y148914D01*
X280992Y148606D01*
X281339Y148330D01*
X281738Y148088D01*
X282195Y147877D01*
X282714Y147694D01*
X283295Y147539D01*
X283937Y147412D01*
X284641Y147314D01*
X285407Y147243D01*
X286235Y147201D01*
X287124Y147187D01*
G37*
%LPD*%
G36*
X287124Y158923D02*
X286588Y158929D01*
X286068Y158946D01*
X285564Y158975D01*
X285077Y159016D01*
X284606Y159069D01*
X284151Y159133D01*
X283712Y159209D01*
X283290Y159297D01*
X282884Y159396D01*
X282495Y159507D01*
X282121Y159630D01*
X281764Y159765D01*
X281424Y159911D01*
X281099Y160069D01*
X280791Y160238D01*
X280499Y160419D01*
X280224Y160612D01*
X279967Y160817D01*
X279728Y161033D01*
X279506Y161261D01*
X279302Y161500D01*
X279116Y161751D01*
X278948Y162013D01*
X278797Y162287D01*
X278664Y162573D01*
X278549Y162870D01*
X278451Y163179D01*
X278372Y163499D01*
X278309Y163832D01*
X278265Y164175D01*
X278239Y164530D01*
X278230Y164897D01*
X278239Y165264D01*
X278265Y165620D01*
X278310Y165964D01*
X278372Y166297D01*
X278453Y166618D01*
X278551Y166929D01*
X278666Y167227D01*
X278800Y167515D01*
X278952Y167791D01*
X279121Y168056D01*
X279308Y168309D01*
X279513Y168551D01*
X279736Y168782D01*
X279977Y169001D01*
X280235Y169209D01*
X280511Y169406D01*
X280805Y169591D01*
X281114Y169764D01*
X281439Y169925D01*
X281780Y170074D01*
X282138Y170211D01*
X282511Y170337D01*
X282900Y170450D01*
X283306Y170551D01*
X283727Y170641D01*
X284164Y170718D01*
X284617Y170784D01*
X285087Y170838D01*
X285572Y170879D01*
X286073Y170909D01*
X286591Y170927D01*
X287124Y170933D01*
X288191Y170910D01*
X289191Y170842D01*
X289666Y170791D01*
X290124Y170729D01*
X290564Y170655D01*
X290988Y170570D01*
X291396Y170473D01*
X291786Y170365D01*
X292159Y170246D01*
X292516Y170115D01*
X292855Y169973D01*
X293178Y169820D01*
X293484Y169655D01*
X293773Y169479D01*
X294045Y169291D01*
X294299Y169091D01*
X294536Y168878D01*
X294755Y168652D01*
X294957Y168414D01*
X295141Y168164D01*
X295308Y167901D01*
X295457Y167625D01*
X295589Y167337D01*
X295703Y167037D01*
X295799Y166724D01*
X295878Y166398D01*
X295939Y166060D01*
X295983Y165710D01*
X296010Y165346D01*
X296018Y164971D01*
X296010Y164585D01*
X295984Y164212D01*
X295940Y163852D01*
X295880Y163506D01*
X295801Y163173D01*
X295706Y162853D01*
X295593Y162546D01*
X295463Y162252D01*
X295316Y161971D01*
X295151Y161704D01*
X294969Y161450D01*
X294769Y161209D01*
X294552Y160981D01*
X294318Y160766D01*
X294067Y160565D01*
X293798Y160376D01*
X293512Y160200D01*
X293208Y160036D01*
X292887Y159882D01*
X292548Y159740D01*
X292192Y159610D01*
X291818Y159491D01*
X291427Y159383D01*
X291019Y159286D01*
X290593Y159201D01*
X290150Y159127D01*
X289689Y159065D01*
X289211Y159014D01*
X288715Y158974D01*
X288202Y158945D01*
X287124Y158923D01*
G37*
%LPC*%
G36*
X287124Y161155D02*
X288038Y161169D01*
X288886Y161211D01*
X289667Y161281D01*
X290381Y161378D01*
X291029Y161503D01*
X291609Y161656D01*
X292124Y161836D01*
X292571Y162045D01*
X292959Y162285D01*
X293296Y162561D01*
X293580Y162873D01*
X293813Y163221D01*
X293994Y163605D01*
X294065Y163810D01*
X294124Y164024D01*
X294169Y164247D01*
X294201Y164480D01*
X294221Y164721D01*
X294227Y164971D01*
X294221Y165215D01*
X294201Y165450D01*
X294168Y165677D01*
X294122Y165894D01*
X294063Y166103D01*
X293991Y166304D01*
X293807Y166678D01*
X293571Y167017D01*
X293282Y167321D01*
X292940Y167589D01*
X292546Y167823D01*
X292094Y168026D01*
X291577Y168202D01*
X290996Y168350D01*
X290350Y168472D01*
X289640Y168566D01*
X288866Y168634D01*
X288027Y168675D01*
X287124Y168688D01*
X286251Y168674D01*
X285437Y168631D01*
X284681Y168560D01*
X283983Y168461D01*
X283344Y168333D01*
X282763Y168177D01*
X282240Y167993D01*
X281775Y167780D01*
X281367Y167537D01*
X281013Y167261D01*
X280714Y166953D01*
X280469Y166612D01*
X280366Y166429D01*
X280278Y166238D01*
X280203Y166039D01*
X280142Y165832D01*
X280094Y165617D01*
X280060Y165393D01*
X280040Y165162D01*
X280033Y164922D01*
X280040Y164681D01*
X280060Y164448D01*
X280093Y164223D01*
X280140Y164007D01*
X280200Y163799D01*
X280273Y163599D01*
X280459Y163224D01*
X280699Y162883D01*
X280992Y162574D01*
X281339Y162299D01*
X281738Y162057D01*
X282195Y161846D01*
X282714Y161663D01*
X283295Y161508D01*
X283937Y161381D01*
X284641Y161282D01*
X285407Y161212D01*
X286235Y161170D01*
X287124Y161155D01*
G37*
%LPD*%
G36*
X283272Y124127D02*
X282974Y124133D01*
X282685Y124151D01*
X282404Y124182D01*
X282132Y124225D01*
X281614Y124347D01*
X281131Y124518D01*
X280682Y124738D01*
X280268Y125007D01*
X279888Y125324D01*
X279542Y125691D01*
X279235Y126101D01*
X278968Y126549D01*
X278742Y127034D01*
X278558Y127557D01*
X278414Y128118D01*
X278312Y128717D01*
X278250Y129354D01*
X278230Y130028D01*
X278251Y130719D01*
X278313Y131368D01*
X278418Y131976D01*
X278564Y132543D01*
X278752Y133068D01*
X278982Y133552D01*
X279253Y133994D01*
X279567Y134395D01*
X279918Y134752D01*
X280301Y135061D01*
X280718Y135322D01*
X281168Y135536D01*
X281651Y135703D01*
X282166Y135821D01*
X282715Y135893D01*
X283001Y135911D01*
X283296Y135916D01*
X283714Y135902D01*
X284113Y135859D01*
X284495Y135787D01*
X284859Y135686D01*
X285205Y135557D01*
X285533Y135399D01*
X285844Y135212D01*
X286136Y134996D01*
X286189Y134949D01*
X286407Y134755D01*
X286650Y134490D01*
X286866Y134203D01*
X287055Y133892D01*
X287217Y133559D01*
X287352Y133202D01*
X287460Y132823D01*
X287541Y132420D01*
X287590Y132420D01*
X287674Y132766D01*
X287783Y133094D01*
X287917Y133403D01*
X288078Y133693D01*
X288264Y133964D01*
X288455Y134192D01*
X288476Y134217D01*
X288713Y134450D01*
X288976Y134665D01*
X289258Y134858D01*
X289552Y135025D01*
X289858Y135166D01*
X290176Y135282D01*
X290505Y135371D01*
X290847Y135436D01*
X291200Y135474D01*
X291565Y135487D01*
X292064Y135464D01*
X292537Y135395D01*
X292983Y135279D01*
X293402Y135118D01*
X293795Y134910D01*
X294162Y134656D01*
X294502Y134355D01*
X294816Y134009D01*
X295098Y133622D01*
X295342Y133203D01*
X295549Y132749D01*
X295718Y132262D01*
X295849Y131742D01*
X295943Y131188D01*
X296000Y130600D01*
X296018Y129979D01*
X295999Y129372D01*
X295942Y128797D01*
X295846Y128253D01*
X295712Y127741D01*
X295539Y127261D01*
X295328Y126812D01*
X295079Y126395D01*
X294792Y126010D01*
X294473Y125664D01*
X294131Y125363D01*
X293766Y125109D01*
X293378Y124901D01*
X292966Y124740D01*
X292530Y124624D01*
X292072Y124555D01*
X291590Y124532D01*
X291224Y124544D01*
X290871Y124583D01*
X290530Y124646D01*
X290200Y124736D01*
X289883Y124850D01*
X289577Y124991D01*
X289283Y125156D01*
X289001Y125348D01*
X288737Y125561D01*
X288497Y125793D01*
X288282Y126043D01*
X288090Y126312D01*
X287923Y126600D01*
X287780Y126906D01*
X287661Y127231D01*
X287566Y127574D01*
X287517Y127574D01*
X287441Y127205D01*
X287337Y126853D01*
X287205Y126518D01*
X287044Y126200D01*
X286855Y125899D01*
X286638Y125614D01*
X286392Y125347D01*
X286118Y125096D01*
X285821Y124869D01*
X285508Y124672D01*
X285177Y124505D01*
X284830Y124369D01*
X284466Y124263D01*
X284085Y124187D01*
X283687Y124142D01*
X283272Y124127D01*
G37*
%LPC*%
G36*
X283456Y126409D02*
X283829Y126423D01*
X284182Y126468D01*
X284514Y126542D01*
X284825Y126645D01*
X285116Y126778D01*
X285387Y126940D01*
X285637Y127132D01*
X285867Y127353D01*
X286072Y127601D01*
X286250Y127872D01*
X286401Y128165D01*
X286524Y128482D01*
X286620Y128822D01*
X286689Y129184D01*
X286730Y129570D01*
X286744Y129979D01*
X286731Y130399D01*
X286693Y130795D01*
X286629Y131167D01*
X286540Y131515D01*
X286425Y131839D01*
X286285Y132139D01*
X286119Y132414D01*
X285928Y132665D01*
X285712Y132890D01*
X285470Y133084D01*
X285205Y133249D01*
X284914Y133383D01*
X284599Y133488D01*
X284259Y133563D01*
X283894Y133607D01*
X283505Y133622D01*
X283049Y133609D01*
X282624Y133567D01*
X282232Y133498D01*
X281872Y133402D01*
X281543Y133277D01*
X281247Y133125D01*
X280983Y132946D01*
X280751Y132739D01*
X280548Y132504D01*
X280372Y132240D01*
X280224Y131947D01*
X280102Y131626D01*
X280007Y131275D01*
X279940Y130897D01*
X279899Y130489D01*
X279886Y130052D01*
X279900Y129611D01*
X279942Y129198D01*
X280011Y128814D01*
X280109Y128458D01*
X280234Y128131D01*
X280388Y127832D01*
X280569Y127562D01*
X280778Y127320D01*
X281015Y127106D01*
X281280Y126921D01*
X281573Y126765D01*
X281894Y126636D01*
X282243Y126537D01*
X282619Y126466D01*
X283024Y126423D01*
X283456Y126409D01*
G37*
G36*
X291442Y126789D02*
X291796Y126802D01*
X292127Y126840D01*
X292435Y126904D01*
X292721Y126993D01*
X292984Y127108D01*
X293225Y127248D01*
X293443Y127414D01*
X293638Y127605D01*
X293811Y127820D01*
X293960Y128059D01*
X294087Y128321D01*
X294190Y128606D01*
X294271Y128915D01*
X294328Y129246D01*
X294363Y129601D01*
X294374Y129979D01*
X294363Y130368D01*
X294329Y130732D01*
X294271Y131071D01*
X294191Y131385D01*
X294088Y131674D01*
X293962Y131937D01*
X293813Y132176D01*
X293641Y132389D01*
X293447Y132578D01*
X293229Y132741D01*
X292989Y132879D01*
X292725Y132992D01*
X292439Y133080D01*
X292130Y133143D01*
X291797Y133180D01*
X291442Y133193D01*
X291054Y133180D01*
X290694Y133142D01*
X290362Y133078D01*
X290058Y132989D01*
X289781Y132874D01*
X289532Y132734D01*
X289311Y132568D01*
X289118Y132377D01*
X288949Y132162D01*
X288804Y131923D01*
X288680Y131661D01*
X288579Y131376D01*
X288501Y131067D01*
X288445Y130736D01*
X288411Y130381D01*
X288400Y130003D01*
X288412Y129631D01*
X288449Y129280D01*
X288509Y128951D01*
X288595Y128643D01*
X288704Y128357D01*
X288838Y128093D01*
X288996Y127850D01*
X289179Y127629D01*
X289385Y127432D01*
X289612Y127262D01*
X289862Y127117D01*
X290134Y126999D01*
X290428Y126907D01*
X290744Y126842D01*
X291082Y126802D01*
X291442Y126789D01*
G37*
%LPD*%
G36*
X280033Y110330D02*
X278475Y110330D01*
X278475Y121776D01*
X280352Y121776D01*
X280352Y112759D01*
X280786Y112972D01*
X281228Y113244D01*
X281678Y113573D01*
X282137Y113961D01*
X282614Y114414D01*
X283120Y114940D01*
X283654Y115537D01*
X284216Y116206D01*
X285191Y117385D01*
X286029Y118356D01*
X286731Y119121D01*
X287296Y119678D01*
X287793Y120104D01*
X288289Y120474D01*
X288786Y120788D01*
X289283Y121046D01*
X289781Y121247D01*
X290280Y121391D01*
X290530Y121441D01*
X290781Y121477D01*
X291032Y121499D01*
X291283Y121506D01*
X291834Y121484D01*
X292353Y121418D01*
X292839Y121309D01*
X293293Y121155D01*
X293715Y120957D01*
X294104Y120716D01*
X294461Y120431D01*
X294785Y120101D01*
X295074Y119731D01*
X295325Y119324D01*
X295537Y118878D01*
X295710Y118395D01*
X295845Y117873D01*
X295941Y117315D01*
X295999Y116718D01*
X296018Y116084D01*
X295999Y115502D01*
X295942Y114948D01*
X295846Y114420D01*
X295712Y113920D01*
X295539Y113446D01*
X295328Y113000D01*
X295079Y112581D01*
X294792Y112188D01*
X294472Y111830D01*
X294125Y111510D01*
X293752Y111231D01*
X293353Y110991D01*
X292927Y110791D01*
X292475Y110630D01*
X291997Y110509D01*
X291491Y110428D01*
X291283Y112685D01*
X291620Y112737D01*
X291937Y112812D01*
X292235Y112911D01*
X292514Y113033D01*
X292774Y113179D01*
X293014Y113349D01*
X293235Y113542D01*
X293436Y113759D01*
X293616Y113995D01*
X293771Y114247D01*
X293903Y114514D01*
X294011Y114797D01*
X294095Y115095D01*
X294155Y115409D01*
X294191Y115739D01*
X294203Y116084D01*
X294190Y116445D01*
X294154Y116785D01*
X294092Y117105D01*
X294006Y117405D01*
X293896Y117685D01*
X293761Y117944D01*
X293602Y118184D01*
X293418Y118402D01*
X293211Y118598D01*
X292985Y118767D01*
X292739Y118911D01*
X292473Y119028D01*
X292187Y119119D01*
X291881Y119184D01*
X291555Y119223D01*
X291209Y119236D01*
X290949Y119229D01*
X290696Y119206D01*
X290449Y119168D01*
X290209Y119115D01*
X289977Y119047D01*
X289751Y118964D01*
X289532Y118865D01*
X289320Y118752D01*
X288907Y118491D01*
X288504Y118192D01*
X288110Y117856D01*
X287725Y117482D01*
X286965Y116649D01*
X286204Y115722D01*
X285411Y114742D01*
X284554Y113753D01*
X284096Y113262D01*
X283612Y112782D01*
X283102Y112314D01*
X282566Y111857D01*
X281996Y111424D01*
X281384Y111025D01*
X280730Y110660D01*
X280033Y110330D01*
G37*
G36*
X281162Y139298D02*
X278475Y139298D01*
X278475Y141690D01*
X281162Y141690D01*
X281162Y139298D01*
G37*
D10*
X0Y280000D02*
X0Y320500D01*
X260000Y320500D02*
X260000Y280000D01*
X259350Y301000D02*
X650Y301000D01*
X26000Y304192D01*
X26000Y297808D01*
X650Y301000D01*
X26000Y302300D01*
X26000Y299700D02*
X650Y301000D01*
X26000Y303600D01*
X26000Y298400D02*
X650Y301000D01*
X234000Y304192D02*
X259350Y301000D01*
X234000Y304192D02*
X234000Y297808D01*
X259350Y301000D01*
X234000Y302300D01*
X234000Y299700D02*
X259350Y301000D01*
X234000Y303600D01*
X234000Y298400D02*
X259350Y301000D01*
X260000Y280000D02*
X321500Y280000D01*
X321500Y0D02*
X260000Y0D01*
X302000Y650D02*
X302000Y279350D01*
X298808Y254000D01*
X305192Y254000D01*
X302000Y279350D01*
X300700Y254000D01*
X303300Y254000D02*
X302000Y279350D01*
X299400Y254000D01*
X304600Y254000D02*
X302000Y279350D01*
X298808Y26000D02*
X302000Y650D01*
X298808Y26000D02*
X305192Y26000D01*
X302000Y650D01*
X300700Y26000D01*
X303300Y26000D02*
X302000Y650D01*
X299400Y26000D01*
X304600Y26000D02*
X302000Y650D01*
D11*
X123099Y217250D03*
X123099Y226750D03*
X123099Y236250D03*
X149101Y236250D03*
X149101Y217250D03*
X149101Y226750D03*
D12*
X109900Y170160D03*
X109900Y137140D03*
X73500Y137140D03*
X73500Y170160D03*
D13*
X36020Y77800D02*
X20780Y77800D01*
X20780Y103200D02*
X36020Y103200D01*
X36020Y128600D02*
X20780Y128600D01*
X20780Y154000D02*
X36020Y154000D01*
X36020Y179400D02*
X20780Y179400D01*
X20780Y204800D02*
X36020Y204800D01*
D12*
X144300Y170160D03*
X144300Y137140D03*
X231250Y79290D03*
X231250Y112310D03*
X231250Y170460D03*
X231250Y137440D03*
X181250Y135590D03*
X181250Y168610D03*
D14*
X157350Y102200D03*
X157350Y95700D03*
X157350Y89200D03*
X157350Y82700D03*
X97950Y102200D03*
X97950Y95700D03*
X97950Y89200D03*
X97950Y82700D03*
D13*
X142700Y36620D02*
X142700Y21380D01*
X117300Y21380D02*
X117300Y36620D01*
D15*
X142700Y65300D02*
X133000Y75000D01*
X142700Y65300D02*
X142700Y29000D01*
X207000Y214000D02*
X223000Y214000D01*
X207000Y214000D02*
X184750Y236250D01*
X149101Y236250D01*
X223000Y214000D02*
X249500Y187500D01*
X210200Y89200D02*
X157350Y89200D01*
X249500Y105500D02*
X249500Y187500D01*
X249500Y105500D02*
X242000Y98000D01*
X219000Y98000D01*
X210200Y89200D01*
X157350Y89200D02*
X136200Y89200D01*
X133000Y86000D02*
X133000Y75000D01*
X133000Y86000D02*
X136200Y89200D01*
X157350Y82700D02*
X181836Y82700D01*
X168750Y226750D02*
X149101Y226750D01*
X109900Y137140D02*
X73500Y137140D01*
X109900Y137140D02*
X144300Y137140D01*
X29090Y102510D02*
X28400Y103200D01*
X149101Y217250D02*
X167750Y217250D01*
X163000Y183000D02*
X163000Y143000D01*
X157140Y137140D01*
X144300Y137140D01*
X174000Y211000D02*
X167750Y217250D01*
X174000Y211000D02*
X174000Y194000D01*
X163000Y183000D01*
X57200Y103200D02*
X28400Y103200D01*
X73500Y119500D02*
X73500Y137140D01*
X73500Y119500D02*
X57200Y103200D01*
X121649Y234800D02*
X123099Y236250D01*
X52800Y204800D02*
X28400Y204800D01*
X84250Y236250D02*
X123099Y236250D01*
X84250Y236250D02*
X52800Y204800D01*
X46400Y179400D02*
X28400Y179400D01*
X46400Y179400D02*
X60000Y193000D01*
X90000Y193000D01*
X99750Y226750D02*
X123099Y226750D01*
X99750Y226750D02*
X92000Y219000D01*
X92000Y195000D02*
X90000Y193000D01*
X92000Y195000D02*
X92000Y219000D01*
X94840Y170160D02*
X109900Y170160D01*
X94840Y170160D02*
X92000Y173000D01*
X92000Y191000D02*
X90000Y193000D01*
X92000Y191000D02*
X92000Y173000D01*
X28400Y156000D02*
X28400Y154000D01*
X28400Y156000D02*
X141000Y156000D01*
X144300Y159300D02*
X144300Y170160D01*
X144300Y159300D02*
X141000Y156000D01*
X122849Y217000D02*
X123099Y217250D01*
X122849Y217000D02*
X110000Y217000D01*
X106000Y213000D01*
X114000Y192000D02*
X141000Y192000D01*
X144300Y188700D01*
X144300Y170160D01*
X106000Y200000D02*
X106000Y213000D01*
X106000Y200000D02*
X114000Y192000D01*
X231250Y137440D02*
X231250Y112310D01*
X228940Y110000D01*
X211000Y110000D01*
X196700Y95700D01*
X157350Y95700D01*
X214310Y170460D02*
X231250Y170460D01*
X214310Y170460D02*
X207450Y163600D01*
X186200Y102200D02*
X157350Y102200D01*
X186200Y102200D02*
X207450Y123450D01*
X117300Y94300D02*
X117300Y29000D01*
X117300Y94300D02*
X125200Y102200D01*
X157350Y102200D01*
X181250Y168610D02*
X181640Y169000D01*
X181250Y168610D02*
X202440Y168610D01*
X207450Y163600D01*
X207450Y123450D01*
X60800Y77800D02*
X28400Y77800D01*
X85200Y102200D02*
X97950Y102200D01*
X85200Y102200D02*
X60800Y77800D01*
M02*
