G04 EAGLE Gerber RS-274X export*
G75*
%MOMM*%
%FSLAX34Y34*%
%LPD*%
%INSilkscreen Bottom*%
%IPPOS*%
%AMOC8*
5,1,8,0,0,1.08239X$1,22.5*%
G01*
G04 Define Apertures*
%ADD10C,0.203200*%
%ADD11C,0.127000*%
%ADD12C,0.152400*%
%ADD13C,0.254000*%
G36*
X16453Y92778D02*
X4112Y92778D01*
X4112Y94451D01*
X8920Y94451D01*
X8920Y98077D01*
X8937Y98555D01*
X8985Y99007D01*
X9066Y99433D01*
X9179Y99834D01*
X9324Y100210D01*
X9502Y100559D01*
X9712Y100883D01*
X9954Y101182D01*
X10224Y101450D01*
X10516Y101682D01*
X10830Y101879D01*
X11167Y102039D01*
X11526Y102164D01*
X11908Y102254D01*
X12312Y102307D01*
X12739Y102325D01*
X13169Y102307D01*
X13574Y102254D01*
X13954Y102165D01*
X14309Y102040D01*
X14639Y101880D01*
X14945Y101685D01*
X15225Y101453D01*
X15481Y101186D01*
X15708Y100887D01*
X15906Y100559D01*
X16073Y100201D01*
X16210Y99813D01*
X16316Y99397D01*
X16392Y98951D01*
X16438Y98476D01*
X16453Y97972D01*
X16453Y92778D01*
G37*
%LPC*%
G36*
X15113Y94451D02*
X15113Y97771D01*
X15103Y98118D01*
X15075Y98444D01*
X15029Y98747D01*
X14963Y99027D01*
X14879Y99286D01*
X14776Y99521D01*
X14655Y99734D01*
X14515Y99925D01*
X14356Y100093D01*
X14179Y100239D01*
X13983Y100363D01*
X13768Y100464D01*
X13534Y100542D01*
X13282Y100598D01*
X13011Y100632D01*
X12722Y100643D01*
X12421Y100632D01*
X12141Y100600D01*
X11879Y100545D01*
X11637Y100468D01*
X11415Y100370D01*
X11211Y100249D01*
X11027Y100107D01*
X10863Y99943D01*
X10717Y99757D01*
X10592Y99549D01*
X10485Y99319D01*
X10398Y99067D01*
X10330Y98793D01*
X10282Y98498D01*
X10253Y98180D01*
X10243Y97841D01*
X10243Y94451D01*
X15113Y94451D01*
G37*
%LPD*%
G36*
X5452Y104642D02*
X4112Y104642D01*
X4112Y112376D01*
X5452Y112376D01*
X5452Y109371D01*
X16453Y109371D01*
X16453Y107918D01*
X14447Y105001D01*
X12958Y105001D01*
X14946Y107786D01*
X5452Y107786D01*
X5452Y104642D01*
G37*
G36*
X7177Y82618D02*
X6785Y82702D01*
X6418Y82805D01*
X6076Y82928D01*
X5760Y83071D01*
X5469Y83234D01*
X5203Y83417D01*
X4962Y83620D01*
X4747Y83842D01*
X4557Y84085D01*
X4393Y84347D01*
X4253Y84630D01*
X4139Y84932D01*
X4051Y85254D01*
X3987Y85597D01*
X3950Y85959D01*
X3937Y86341D01*
X3953Y86752D01*
X4001Y87141D01*
X4082Y87507D01*
X4194Y87852D01*
X4339Y88173D01*
X4516Y88472D01*
X4725Y88749D01*
X4966Y89003D01*
X5235Y89231D01*
X5528Y89429D01*
X5846Y89596D01*
X6187Y89732D01*
X6552Y89839D01*
X6941Y89915D01*
X7354Y89960D01*
X7791Y89975D01*
X16453Y89975D01*
X16453Y85938D01*
X15086Y85938D01*
X15086Y88311D01*
X7756Y88311D01*
X7462Y88303D01*
X7188Y88278D01*
X6931Y88237D01*
X6692Y88180D01*
X6472Y88106D01*
X6270Y88016D01*
X6086Y87909D01*
X5921Y87786D01*
X5774Y87648D01*
X5647Y87499D01*
X5539Y87337D01*
X5451Y87164D01*
X5382Y86978D01*
X5334Y86781D01*
X5304Y86571D01*
X5294Y86349D01*
X5303Y86146D01*
X5330Y85951D01*
X5374Y85765D01*
X5437Y85587D01*
X5517Y85419D01*
X5615Y85259D01*
X5730Y85108D01*
X5864Y84966D01*
X6013Y84834D01*
X6176Y84714D01*
X6354Y84607D01*
X6545Y84512D01*
X6750Y84430D01*
X6969Y84360D01*
X7202Y84302D01*
X7449Y84256D01*
X7177Y82618D01*
G37*
G36*
X112082Y101705D02*
X111539Y101717D01*
X111014Y101755D01*
X110508Y101818D01*
X110020Y101906D01*
X109549Y102019D01*
X109097Y102157D01*
X108664Y102320D01*
X108248Y102508D01*
X107853Y102720D01*
X107482Y102955D01*
X107133Y103212D01*
X106807Y103491D01*
X106504Y103793D01*
X106224Y104117D01*
X105967Y104464D01*
X105733Y104833D01*
X105525Y105222D01*
X105344Y105630D01*
X105191Y106055D01*
X105066Y106498D01*
X104969Y106960D01*
X104900Y107439D01*
X104858Y107937D01*
X104844Y108452D01*
X104844Y119236D01*
X107175Y119236D01*
X107175Y108587D01*
X107195Y107995D01*
X107256Y107440D01*
X107357Y106921D01*
X107498Y106439D01*
X107680Y105993D01*
X107903Y105584D01*
X108166Y105212D01*
X108469Y104876D01*
X108809Y104578D01*
X109181Y104320D01*
X109586Y104102D01*
X110023Y103924D01*
X110492Y103785D01*
X110994Y103686D01*
X111528Y103626D01*
X112094Y103606D01*
X112645Y103625D01*
X113162Y103683D01*
X113646Y103779D01*
X114097Y103913D01*
X114514Y104085D01*
X114898Y104296D01*
X115249Y104545D01*
X115566Y104833D01*
X115848Y105158D01*
X116092Y105518D01*
X116299Y105914D01*
X116468Y106345D01*
X116599Y106812D01*
X116693Y107315D01*
X116750Y107853D01*
X116768Y108428D01*
X116768Y119236D01*
X119112Y119236D01*
X119112Y108231D01*
X119098Y107731D01*
X119057Y107248D01*
X118989Y106783D01*
X118894Y106336D01*
X118771Y105906D01*
X118622Y105494D01*
X118445Y105099D01*
X118241Y104723D01*
X118012Y104365D01*
X117761Y104030D01*
X117487Y103717D01*
X117192Y103425D01*
X116874Y103156D01*
X116534Y102908D01*
X116172Y102682D01*
X115787Y102478D01*
X115383Y102296D01*
X114962Y102139D01*
X114524Y102007D01*
X114070Y101898D01*
X113598Y101813D01*
X113110Y101753D01*
X112604Y101717D01*
X112082Y101705D01*
G37*
G36*
X101630Y101950D02*
X90184Y101950D01*
X90184Y103827D01*
X99201Y103827D01*
X98988Y104261D01*
X98717Y104703D01*
X98387Y105153D01*
X97999Y105612D01*
X97546Y106089D01*
X97020Y106595D01*
X96423Y107129D01*
X95754Y107691D01*
X94575Y108666D01*
X93604Y109504D01*
X92839Y110206D01*
X92282Y110771D01*
X91856Y111268D01*
X91486Y111764D01*
X91172Y112261D01*
X90914Y112758D01*
X90713Y113256D01*
X90569Y113755D01*
X90519Y114005D01*
X90483Y114256D01*
X90461Y114507D01*
X90454Y114758D01*
X90476Y115309D01*
X90542Y115828D01*
X90651Y116314D01*
X90805Y116768D01*
X91003Y117190D01*
X91244Y117579D01*
X91529Y117936D01*
X91859Y118260D01*
X92229Y118549D01*
X92637Y118800D01*
X93082Y119012D01*
X93565Y119185D01*
X94087Y119320D01*
X94645Y119416D01*
X95242Y119474D01*
X95876Y119493D01*
X96458Y119474D01*
X97012Y119417D01*
X97540Y119321D01*
X98040Y119187D01*
X98514Y119014D01*
X98960Y118803D01*
X99379Y118554D01*
X99772Y118267D01*
X100130Y117947D01*
X100450Y117600D01*
X100729Y117227D01*
X100969Y116828D01*
X101169Y116402D01*
X101330Y115950D01*
X101451Y115472D01*
X101532Y114966D01*
X99275Y114758D01*
X99223Y115095D01*
X99148Y115412D01*
X99049Y115710D01*
X98927Y115989D01*
X98781Y116249D01*
X98611Y116489D01*
X98418Y116710D01*
X98201Y116911D01*
X97965Y117091D01*
X97713Y117246D01*
X97446Y117378D01*
X97163Y117486D01*
X96865Y117570D01*
X96551Y117630D01*
X96221Y117666D01*
X95876Y117678D01*
X95515Y117665D01*
X95175Y117629D01*
X94855Y117567D01*
X94555Y117481D01*
X94275Y117371D01*
X94016Y117236D01*
X93776Y117077D01*
X93558Y116893D01*
X93362Y116686D01*
X93193Y116460D01*
X93049Y116214D01*
X92932Y115948D01*
X92841Y115662D01*
X92776Y115356D01*
X92737Y115030D01*
X92724Y114684D01*
X92731Y114424D01*
X92754Y114171D01*
X92792Y113924D01*
X92845Y113684D01*
X92913Y113452D01*
X92996Y113226D01*
X93095Y113007D01*
X93208Y112795D01*
X93469Y112382D01*
X93768Y111979D01*
X94104Y111585D01*
X94478Y111200D01*
X95311Y110440D01*
X96238Y109679D01*
X97218Y108886D01*
X98207Y108029D01*
X98698Y107571D01*
X99178Y107087D01*
X99646Y106577D01*
X100103Y106041D01*
X100536Y105471D01*
X100935Y104859D01*
X101300Y104205D01*
X101630Y103508D01*
X101630Y101950D01*
G37*
G36*
X91628Y22012D02*
X89955Y22012D01*
X89955Y26820D01*
X86329Y26820D01*
X85851Y26837D01*
X85399Y26885D01*
X84973Y26966D01*
X84572Y27079D01*
X84197Y27224D01*
X83847Y27402D01*
X83523Y27612D01*
X83224Y27854D01*
X82956Y28124D01*
X82724Y28416D01*
X82528Y28730D01*
X82367Y29067D01*
X82242Y29426D01*
X82153Y29808D01*
X82099Y30212D01*
X82081Y30639D01*
X82099Y31069D01*
X82152Y31474D01*
X82241Y31854D01*
X82366Y32209D01*
X82526Y32539D01*
X82722Y32845D01*
X82953Y33125D01*
X83220Y33381D01*
X83519Y33608D01*
X83848Y33806D01*
X84206Y33973D01*
X84593Y34110D01*
X85009Y34216D01*
X85455Y34292D01*
X85930Y34338D01*
X86434Y34353D01*
X91628Y34353D01*
X91628Y22012D01*
G37*
%LPC*%
G36*
X89955Y28143D02*
X89955Y33013D01*
X86636Y33013D01*
X86288Y33003D01*
X85962Y32975D01*
X85659Y32929D01*
X85379Y32863D01*
X85121Y32779D01*
X84885Y32676D01*
X84672Y32555D01*
X84481Y32415D01*
X84313Y32256D01*
X84167Y32079D01*
X84043Y31883D01*
X83942Y31668D01*
X83864Y31434D01*
X83808Y31182D01*
X83774Y30911D01*
X83763Y30622D01*
X83774Y30321D01*
X83807Y30041D01*
X83861Y29779D01*
X83938Y29537D01*
X84037Y29315D01*
X84157Y29111D01*
X84299Y28927D01*
X84464Y28763D01*
X84650Y28617D01*
X84858Y28492D01*
X85088Y28385D01*
X85339Y28298D01*
X85613Y28230D01*
X85909Y28182D01*
X86226Y28153D01*
X86566Y28143D01*
X89955Y28143D01*
G37*
%LPD*%
G36*
X80229Y22012D02*
X72057Y22012D01*
X72057Y23352D01*
X78494Y23352D01*
X78342Y23662D01*
X78148Y23977D01*
X77913Y24299D01*
X77636Y24626D01*
X77313Y24967D01*
X76938Y25328D01*
X76511Y25709D01*
X76033Y26111D01*
X75192Y26807D01*
X74498Y27405D01*
X73953Y27906D01*
X73555Y28309D01*
X73251Y28664D01*
X72986Y29019D01*
X72762Y29374D01*
X72578Y29728D01*
X72434Y30084D01*
X72332Y30440D01*
X72270Y30797D01*
X72250Y31156D01*
X72265Y31549D01*
X72312Y31920D01*
X72391Y32267D01*
X72500Y32591D01*
X72641Y32892D01*
X72814Y33170D01*
X73017Y33425D01*
X73252Y33656D01*
X73517Y33863D01*
X73808Y34042D01*
X74126Y34193D01*
X74471Y34317D01*
X74843Y34413D01*
X75242Y34482D01*
X75668Y34523D01*
X76121Y34537D01*
X76536Y34523D01*
X76932Y34482D01*
X77308Y34414D01*
X77666Y34318D01*
X78004Y34195D01*
X78322Y34044D01*
X78622Y33866D01*
X78902Y33661D01*
X79158Y33432D01*
X79386Y33185D01*
X79586Y32919D01*
X79757Y32634D01*
X79900Y32330D01*
X80014Y32007D01*
X80101Y31665D01*
X80159Y31305D01*
X78547Y31156D01*
X78510Y31396D01*
X78456Y31623D01*
X78386Y31836D01*
X78298Y32035D01*
X78194Y32220D01*
X78073Y32392D01*
X77935Y32549D01*
X77781Y32693D01*
X77612Y32821D01*
X77432Y32933D01*
X77241Y33027D01*
X77039Y33104D01*
X76826Y33163D01*
X76602Y33206D01*
X76367Y33232D01*
X76121Y33240D01*
X75863Y33232D01*
X75620Y33205D01*
X75391Y33162D01*
X75177Y33100D01*
X74977Y33021D01*
X74792Y32925D01*
X74622Y32811D01*
X74466Y32680D01*
X74326Y32533D01*
X74205Y32371D01*
X74103Y32195D01*
X74019Y32005D01*
X73954Y31801D01*
X73907Y31583D01*
X73879Y31350D01*
X73870Y31103D01*
X73892Y30737D01*
X73956Y30390D01*
X74065Y30062D01*
X74216Y29755D01*
X74402Y29460D01*
X74616Y29172D01*
X74856Y28891D01*
X75122Y28616D01*
X75717Y28073D01*
X76379Y27530D01*
X77079Y26964D01*
X77785Y26352D01*
X78136Y26025D01*
X78478Y25680D01*
X78812Y25316D01*
X79138Y24933D01*
X79448Y24526D01*
X79733Y24089D01*
X79993Y23622D01*
X80229Y23124D01*
X80229Y22012D01*
G37*
G36*
X98066Y21837D02*
X97654Y21853D01*
X97265Y21901D01*
X96899Y21982D01*
X96555Y22094D01*
X96233Y22239D01*
X95934Y22416D01*
X95657Y22625D01*
X95403Y22866D01*
X95175Y23135D01*
X94978Y23428D01*
X94811Y23746D01*
X94674Y24087D01*
X94568Y24452D01*
X94492Y24841D01*
X94446Y25254D01*
X94431Y25691D01*
X94431Y34353D01*
X98469Y34353D01*
X98469Y32986D01*
X96095Y32986D01*
X96095Y25656D01*
X96103Y25362D01*
X96128Y25088D01*
X96169Y24831D01*
X96226Y24592D01*
X96300Y24372D01*
X96391Y24170D01*
X96497Y23986D01*
X96620Y23821D01*
X96758Y23674D01*
X96907Y23547D01*
X97069Y23439D01*
X97242Y23351D01*
X97428Y23282D01*
X97626Y23234D01*
X97835Y23204D01*
X98057Y23194D01*
X98261Y23203D01*
X98455Y23230D01*
X98642Y23274D01*
X98819Y23337D01*
X98987Y23417D01*
X99147Y23515D01*
X99298Y23630D01*
X99441Y23764D01*
X99573Y23913D01*
X99692Y24076D01*
X99799Y24254D01*
X99894Y24445D01*
X99976Y24650D01*
X100047Y24869D01*
X100105Y25102D01*
X100150Y25349D01*
X101788Y25077D01*
X101705Y24685D01*
X101601Y24318D01*
X101478Y23976D01*
X101335Y23660D01*
X101172Y23369D01*
X100989Y23103D01*
X100787Y22862D01*
X100564Y22647D01*
X100321Y22457D01*
X100059Y22293D01*
X99776Y22153D01*
X99474Y22039D01*
X99152Y21951D01*
X98810Y21887D01*
X98448Y21850D01*
X98066Y21837D01*
G37*
G36*
X145667Y243039D02*
X145827Y243425D01*
X146081Y243757D01*
X146412Y244011D01*
X146798Y244171D01*
X147213Y244225D01*
X147627Y244171D01*
X148013Y244011D01*
X148344Y243757D01*
X148598Y243425D01*
X148758Y243039D01*
X148813Y242625D01*
X148758Y242211D01*
X148598Y241825D01*
X148344Y241493D01*
X148013Y241239D01*
X147627Y241079D01*
X147213Y241025D01*
X146798Y241079D01*
X146412Y241239D01*
X146081Y241493D01*
X145827Y241825D01*
X145667Y242211D01*
X145612Y242625D01*
X145667Y243039D01*
G37*
D10*
X131806Y214050D02*
X140394Y214050D01*
X140394Y239450D02*
X131806Y239450D01*
D11*
X140275Y247776D02*
X140275Y251261D01*
X140276Y247776D02*
X140274Y247705D01*
X140268Y247633D01*
X140259Y247563D01*
X140246Y247493D01*
X140229Y247423D01*
X140208Y247355D01*
X140184Y247288D01*
X140156Y247222D01*
X140125Y247158D01*
X140090Y247095D01*
X140052Y247035D01*
X140011Y246976D01*
X139967Y246920D01*
X139920Y246866D01*
X139871Y246815D01*
X139818Y246767D01*
X139763Y246721D01*
X139706Y246679D01*
X139646Y246639D01*
X139585Y246603D01*
X139521Y246570D01*
X139456Y246541D01*
X139390Y246515D01*
X139322Y246492D01*
X139253Y246473D01*
X139183Y246458D01*
X139113Y246447D01*
X139042Y246439D01*
X138971Y246435D01*
X138899Y246435D01*
X138828Y246439D01*
X138757Y246447D01*
X138687Y246458D01*
X138617Y246473D01*
X138548Y246492D01*
X138480Y246515D01*
X138414Y246541D01*
X138349Y246570D01*
X138285Y246603D01*
X138224Y246639D01*
X138164Y246679D01*
X138107Y246721D01*
X138052Y246767D01*
X137999Y246815D01*
X137950Y246866D01*
X137903Y246920D01*
X137859Y246976D01*
X137818Y247035D01*
X137780Y247095D01*
X137745Y247158D01*
X137714Y247222D01*
X137686Y247288D01*
X137662Y247355D01*
X137641Y247423D01*
X137624Y247493D01*
X137611Y247563D01*
X137602Y247633D01*
X137596Y247705D01*
X137594Y247776D01*
X137594Y251261D01*
X134606Y250189D02*
X133265Y251261D01*
X133265Y246435D01*
X131925Y246435D02*
X134606Y246435D01*
D12*
X121330Y125710D02*
X98470Y125710D01*
X98470Y181590D01*
X121330Y181590D01*
X121330Y125710D01*
X117458Y142045D02*
X103742Y142045D01*
X117458Y142045D02*
X117458Y145855D01*
X117456Y145977D01*
X117450Y146099D01*
X117440Y146221D01*
X117427Y146342D01*
X117409Y146463D01*
X117388Y146583D01*
X117362Y146703D01*
X117333Y146821D01*
X117301Y146939D01*
X117264Y147056D01*
X117224Y147171D01*
X117180Y147285D01*
X117132Y147397D01*
X117081Y147508D01*
X117026Y147617D01*
X116968Y147725D01*
X116906Y147830D01*
X116841Y147933D01*
X116773Y148035D01*
X116701Y148134D01*
X116627Y148230D01*
X116549Y148325D01*
X116468Y148416D01*
X116385Y148506D01*
X116299Y148592D01*
X116209Y148675D01*
X116118Y148756D01*
X116023Y148834D01*
X115927Y148908D01*
X115828Y148980D01*
X115726Y149048D01*
X115623Y149113D01*
X115518Y149175D01*
X115410Y149233D01*
X115301Y149288D01*
X115190Y149339D01*
X115078Y149387D01*
X114964Y149431D01*
X114849Y149471D01*
X114732Y149508D01*
X114614Y149540D01*
X114496Y149569D01*
X114376Y149595D01*
X114256Y149616D01*
X114135Y149634D01*
X114014Y149647D01*
X113892Y149657D01*
X113770Y149663D01*
X113648Y149665D01*
X113526Y149663D01*
X113404Y149657D01*
X113282Y149647D01*
X113161Y149634D01*
X113040Y149616D01*
X112920Y149595D01*
X112800Y149569D01*
X112682Y149540D01*
X112564Y149508D01*
X112447Y149471D01*
X112332Y149431D01*
X112218Y149387D01*
X112106Y149339D01*
X111995Y149288D01*
X111886Y149233D01*
X111778Y149175D01*
X111673Y149113D01*
X111570Y149048D01*
X111468Y148980D01*
X111369Y148908D01*
X111273Y148834D01*
X111178Y148756D01*
X111087Y148675D01*
X110997Y148592D01*
X110911Y148506D01*
X110828Y148416D01*
X110747Y148325D01*
X110669Y148230D01*
X110595Y148134D01*
X110523Y148035D01*
X110455Y147933D01*
X110390Y147830D01*
X110328Y147725D01*
X110270Y147617D01*
X110215Y147508D01*
X110164Y147397D01*
X110116Y147285D01*
X110072Y147171D01*
X110032Y147056D01*
X109995Y146939D01*
X109963Y146821D01*
X109934Y146703D01*
X109908Y146583D01*
X109887Y146463D01*
X109869Y146342D01*
X109856Y146221D01*
X109846Y146099D01*
X109840Y145977D01*
X109838Y145855D01*
X109838Y142045D01*
X109838Y146617D02*
X103742Y149665D01*
X114410Y155635D02*
X117458Y159445D01*
X103742Y159445D01*
X103742Y155635D02*
X103742Y163255D01*
X84930Y181590D02*
X62070Y181590D01*
X84930Y181590D02*
X84930Y125710D01*
X62070Y125710D01*
X62070Y181590D01*
X66592Y149210D02*
X66592Y146162D01*
X66594Y146053D01*
X66600Y145945D01*
X66609Y145836D01*
X66623Y145728D01*
X66640Y145621D01*
X66662Y145514D01*
X66687Y145408D01*
X66715Y145303D01*
X66748Y145199D01*
X66784Y145097D01*
X66824Y144996D01*
X66867Y144896D01*
X66914Y144798D01*
X66965Y144701D01*
X67019Y144607D01*
X67076Y144514D01*
X67136Y144424D01*
X67200Y144335D01*
X67267Y144249D01*
X67336Y144166D01*
X67409Y144085D01*
X67485Y144007D01*
X67563Y143931D01*
X67644Y143858D01*
X67727Y143789D01*
X67813Y143722D01*
X67902Y143658D01*
X67992Y143598D01*
X68085Y143541D01*
X68179Y143487D01*
X68276Y143436D01*
X68374Y143389D01*
X68474Y143346D01*
X68575Y143306D01*
X68677Y143270D01*
X68781Y143237D01*
X68886Y143209D01*
X68992Y143184D01*
X69099Y143162D01*
X69206Y143145D01*
X69314Y143131D01*
X69423Y143122D01*
X69531Y143116D01*
X69640Y143114D01*
X77260Y143114D01*
X77369Y143116D01*
X77477Y143122D01*
X77586Y143131D01*
X77694Y143145D01*
X77801Y143162D01*
X77908Y143184D01*
X78014Y143209D01*
X78119Y143237D01*
X78223Y143270D01*
X78325Y143306D01*
X78426Y143346D01*
X78526Y143389D01*
X78624Y143436D01*
X78721Y143487D01*
X78815Y143541D01*
X78908Y143598D01*
X78998Y143658D01*
X79087Y143722D01*
X79173Y143789D01*
X79256Y143858D01*
X79337Y143931D01*
X79415Y144007D01*
X79491Y144085D01*
X79564Y144166D01*
X79633Y144249D01*
X79700Y144335D01*
X79764Y144424D01*
X79824Y144514D01*
X79881Y144607D01*
X79935Y144701D01*
X79986Y144798D01*
X80033Y144896D01*
X80076Y144996D01*
X80116Y145097D01*
X80152Y145199D01*
X80185Y145303D01*
X80213Y145408D01*
X80238Y145514D01*
X80260Y145621D01*
X80277Y145728D01*
X80291Y145836D01*
X80300Y145945D01*
X80306Y146053D01*
X80308Y146162D01*
X80308Y149210D01*
X77260Y154566D02*
X80308Y158376D01*
X66592Y158376D01*
X66592Y154566D02*
X66592Y162186D01*
X132870Y125710D02*
X155730Y125710D01*
X132870Y125710D02*
X132870Y181590D01*
X155730Y181590D01*
X155730Y125710D01*
X150858Y140045D02*
X137142Y140045D01*
X150858Y140045D02*
X150858Y143855D01*
X150856Y143977D01*
X150850Y144099D01*
X150840Y144221D01*
X150827Y144342D01*
X150809Y144463D01*
X150788Y144583D01*
X150762Y144703D01*
X150733Y144821D01*
X150701Y144939D01*
X150664Y145056D01*
X150624Y145171D01*
X150580Y145285D01*
X150532Y145397D01*
X150481Y145508D01*
X150426Y145617D01*
X150368Y145725D01*
X150306Y145830D01*
X150241Y145933D01*
X150173Y146035D01*
X150101Y146134D01*
X150027Y146230D01*
X149949Y146325D01*
X149868Y146416D01*
X149785Y146506D01*
X149699Y146592D01*
X149609Y146675D01*
X149518Y146756D01*
X149423Y146834D01*
X149327Y146908D01*
X149228Y146980D01*
X149126Y147048D01*
X149023Y147113D01*
X148918Y147175D01*
X148810Y147233D01*
X148701Y147288D01*
X148590Y147339D01*
X148478Y147387D01*
X148364Y147431D01*
X148249Y147471D01*
X148132Y147508D01*
X148014Y147540D01*
X147896Y147569D01*
X147776Y147595D01*
X147656Y147616D01*
X147535Y147634D01*
X147414Y147647D01*
X147292Y147657D01*
X147170Y147663D01*
X147048Y147665D01*
X146926Y147663D01*
X146804Y147657D01*
X146682Y147647D01*
X146561Y147634D01*
X146440Y147616D01*
X146320Y147595D01*
X146200Y147569D01*
X146082Y147540D01*
X145964Y147508D01*
X145847Y147471D01*
X145732Y147431D01*
X145618Y147387D01*
X145506Y147339D01*
X145395Y147288D01*
X145286Y147233D01*
X145178Y147175D01*
X145073Y147113D01*
X144970Y147048D01*
X144868Y146980D01*
X144769Y146908D01*
X144673Y146834D01*
X144578Y146756D01*
X144487Y146675D01*
X144397Y146592D01*
X144311Y146506D01*
X144228Y146416D01*
X144147Y146325D01*
X144069Y146230D01*
X143995Y146134D01*
X143923Y146035D01*
X143855Y145933D01*
X143790Y145830D01*
X143728Y145725D01*
X143670Y145617D01*
X143615Y145508D01*
X143564Y145397D01*
X143516Y145285D01*
X143472Y145171D01*
X143432Y145056D01*
X143395Y144939D01*
X143363Y144821D01*
X143334Y144703D01*
X143308Y144583D01*
X143287Y144463D01*
X143269Y144342D01*
X143256Y144221D01*
X143246Y144099D01*
X143240Y143977D01*
X143238Y143855D01*
X143238Y140045D01*
X143238Y144617D02*
X137142Y147665D01*
X147429Y161255D02*
X147544Y161253D01*
X147658Y161247D01*
X147772Y161238D01*
X147886Y161224D01*
X147999Y161207D01*
X148112Y161186D01*
X148224Y161162D01*
X148335Y161133D01*
X148445Y161101D01*
X148554Y161065D01*
X148661Y161026D01*
X148768Y160983D01*
X148872Y160936D01*
X148976Y160886D01*
X149077Y160833D01*
X149176Y160776D01*
X149274Y160716D01*
X149370Y160653D01*
X149463Y160587D01*
X149554Y160517D01*
X149643Y160445D01*
X149729Y160369D01*
X149813Y160291D01*
X149894Y160210D01*
X149972Y160126D01*
X150048Y160040D01*
X150120Y159951D01*
X150190Y159860D01*
X150256Y159767D01*
X150319Y159671D01*
X150379Y159573D01*
X150436Y159474D01*
X150489Y159373D01*
X150539Y159269D01*
X150586Y159165D01*
X150629Y159058D01*
X150668Y158951D01*
X150704Y158842D01*
X150736Y158732D01*
X150765Y158621D01*
X150789Y158509D01*
X150810Y158396D01*
X150827Y158283D01*
X150841Y158169D01*
X150850Y158055D01*
X150856Y157941D01*
X150858Y157826D01*
X150856Y157694D01*
X150850Y157562D01*
X150840Y157431D01*
X150826Y157300D01*
X150809Y157169D01*
X150787Y157039D01*
X150762Y156909D01*
X150732Y156781D01*
X150699Y156653D01*
X150662Y156527D01*
X150621Y156401D01*
X150577Y156277D01*
X150528Y156154D01*
X150477Y156033D01*
X150421Y155913D01*
X150362Y155795D01*
X150300Y155679D01*
X150234Y155565D01*
X150164Y155453D01*
X150091Y155343D01*
X150015Y155235D01*
X149936Y155130D01*
X149854Y155027D01*
X149769Y154926D01*
X149680Y154828D01*
X149589Y154733D01*
X149495Y154640D01*
X149398Y154551D01*
X149299Y154464D01*
X149197Y154380D01*
X149093Y154300D01*
X148986Y154222D01*
X148877Y154148D01*
X148766Y154077D01*
X148652Y154009D01*
X148537Y153945D01*
X148420Y153885D01*
X148301Y153827D01*
X148181Y153774D01*
X148059Y153724D01*
X147935Y153678D01*
X147810Y153635D01*
X144762Y160112D02*
X144846Y160197D01*
X144932Y160279D01*
X145021Y160359D01*
X145113Y160435D01*
X145206Y160509D01*
X145303Y160579D01*
X145401Y160647D01*
X145502Y160711D01*
X145605Y160771D01*
X145709Y160829D01*
X145815Y160883D01*
X145924Y160933D01*
X146033Y160980D01*
X146144Y161024D01*
X146257Y161063D01*
X146370Y161100D01*
X146485Y161132D01*
X146601Y161161D01*
X146718Y161186D01*
X146835Y161207D01*
X146953Y161224D01*
X147072Y161238D01*
X147191Y161247D01*
X147310Y161253D01*
X147429Y161255D01*
X144762Y160112D02*
X137142Y153635D01*
X137142Y161255D01*
X219820Y123740D02*
X242680Y123740D01*
X242680Y67860D01*
X219820Y67860D01*
X219820Y123740D01*
X224342Y85195D02*
X238058Y85195D01*
X238058Y89005D01*
X238056Y89127D01*
X238050Y89249D01*
X238040Y89371D01*
X238027Y89492D01*
X238009Y89613D01*
X237988Y89733D01*
X237962Y89853D01*
X237933Y89971D01*
X237901Y90089D01*
X237864Y90206D01*
X237824Y90321D01*
X237780Y90435D01*
X237732Y90547D01*
X237681Y90658D01*
X237626Y90767D01*
X237568Y90875D01*
X237506Y90980D01*
X237441Y91083D01*
X237373Y91185D01*
X237301Y91284D01*
X237227Y91380D01*
X237149Y91475D01*
X237068Y91566D01*
X236985Y91656D01*
X236899Y91742D01*
X236809Y91825D01*
X236718Y91906D01*
X236623Y91984D01*
X236527Y92058D01*
X236428Y92130D01*
X236326Y92198D01*
X236223Y92263D01*
X236118Y92325D01*
X236010Y92383D01*
X235901Y92438D01*
X235790Y92489D01*
X235678Y92537D01*
X235564Y92581D01*
X235449Y92621D01*
X235332Y92658D01*
X235214Y92690D01*
X235096Y92719D01*
X234976Y92745D01*
X234856Y92766D01*
X234735Y92784D01*
X234614Y92797D01*
X234492Y92807D01*
X234370Y92813D01*
X234248Y92815D01*
X234126Y92813D01*
X234004Y92807D01*
X233882Y92797D01*
X233761Y92784D01*
X233640Y92766D01*
X233520Y92745D01*
X233400Y92719D01*
X233282Y92690D01*
X233164Y92658D01*
X233047Y92621D01*
X232932Y92581D01*
X232818Y92537D01*
X232706Y92489D01*
X232595Y92438D01*
X232486Y92383D01*
X232378Y92325D01*
X232273Y92263D01*
X232170Y92198D01*
X232068Y92130D01*
X231969Y92058D01*
X231873Y91984D01*
X231778Y91906D01*
X231687Y91825D01*
X231597Y91742D01*
X231511Y91656D01*
X231428Y91566D01*
X231347Y91475D01*
X231269Y91380D01*
X231195Y91284D01*
X231123Y91185D01*
X231055Y91083D01*
X230990Y90980D01*
X230928Y90875D01*
X230870Y90767D01*
X230815Y90658D01*
X230764Y90547D01*
X230716Y90435D01*
X230672Y90321D01*
X230632Y90206D01*
X230595Y90089D01*
X230563Y89971D01*
X230534Y89853D01*
X230508Y89733D01*
X230487Y89613D01*
X230469Y89492D01*
X230456Y89371D01*
X230446Y89249D01*
X230440Y89127D01*
X230438Y89005D01*
X230438Y85195D01*
X230438Y89767D02*
X224342Y92815D01*
X224342Y98785D02*
X224342Y102595D01*
X224344Y102717D01*
X224350Y102839D01*
X224360Y102961D01*
X224373Y103082D01*
X224391Y103203D01*
X224412Y103323D01*
X224438Y103443D01*
X224467Y103561D01*
X224499Y103679D01*
X224536Y103796D01*
X224576Y103911D01*
X224620Y104025D01*
X224668Y104137D01*
X224719Y104248D01*
X224774Y104357D01*
X224832Y104465D01*
X224894Y104570D01*
X224959Y104673D01*
X225027Y104775D01*
X225099Y104874D01*
X225173Y104970D01*
X225251Y105065D01*
X225332Y105156D01*
X225415Y105246D01*
X225501Y105332D01*
X225591Y105415D01*
X225682Y105496D01*
X225777Y105574D01*
X225873Y105648D01*
X225972Y105720D01*
X226074Y105788D01*
X226177Y105853D01*
X226282Y105915D01*
X226390Y105973D01*
X226499Y106028D01*
X226610Y106079D01*
X226722Y106127D01*
X226836Y106171D01*
X226951Y106211D01*
X227068Y106248D01*
X227186Y106280D01*
X227304Y106309D01*
X227424Y106335D01*
X227544Y106356D01*
X227665Y106374D01*
X227786Y106387D01*
X227908Y106397D01*
X228030Y106403D01*
X228152Y106405D01*
X228274Y106403D01*
X228396Y106397D01*
X228518Y106387D01*
X228639Y106374D01*
X228760Y106356D01*
X228880Y106335D01*
X229000Y106309D01*
X229118Y106280D01*
X229236Y106248D01*
X229353Y106211D01*
X229468Y106171D01*
X229582Y106127D01*
X229694Y106079D01*
X229805Y106028D01*
X229914Y105973D01*
X230022Y105915D01*
X230127Y105853D01*
X230230Y105788D01*
X230332Y105720D01*
X230431Y105648D01*
X230527Y105574D01*
X230622Y105496D01*
X230713Y105415D01*
X230803Y105332D01*
X230889Y105246D01*
X230972Y105156D01*
X231053Y105065D01*
X231131Y104970D01*
X231205Y104874D01*
X231277Y104775D01*
X231345Y104673D01*
X231410Y104570D01*
X231472Y104465D01*
X231530Y104357D01*
X231585Y104248D01*
X231636Y104137D01*
X231684Y104025D01*
X231728Y103911D01*
X231768Y103796D01*
X231805Y103679D01*
X231837Y103561D01*
X231866Y103443D01*
X231892Y103323D01*
X231913Y103203D01*
X231931Y103082D01*
X231944Y102961D01*
X231954Y102839D01*
X231960Y102717D01*
X231962Y102595D01*
X238058Y103357D02*
X238058Y98785D01*
X238058Y103357D02*
X238056Y103466D01*
X238050Y103574D01*
X238041Y103683D01*
X238027Y103791D01*
X238010Y103898D01*
X237988Y104005D01*
X237963Y104111D01*
X237935Y104216D01*
X237902Y104320D01*
X237866Y104422D01*
X237826Y104523D01*
X237783Y104623D01*
X237736Y104721D01*
X237685Y104818D01*
X237631Y104912D01*
X237574Y105005D01*
X237514Y105095D01*
X237450Y105184D01*
X237383Y105270D01*
X237314Y105353D01*
X237241Y105434D01*
X237165Y105512D01*
X237087Y105588D01*
X237006Y105661D01*
X236923Y105730D01*
X236837Y105797D01*
X236748Y105861D01*
X236658Y105921D01*
X236565Y105978D01*
X236471Y106032D01*
X236374Y106083D01*
X236276Y106130D01*
X236176Y106173D01*
X236075Y106213D01*
X235973Y106249D01*
X235869Y106282D01*
X235764Y106310D01*
X235658Y106335D01*
X235551Y106357D01*
X235444Y106374D01*
X235336Y106388D01*
X235227Y106397D01*
X235119Y106403D01*
X235010Y106405D01*
X234901Y106403D01*
X234793Y106397D01*
X234684Y106388D01*
X234576Y106374D01*
X234469Y106357D01*
X234362Y106335D01*
X234256Y106310D01*
X234151Y106282D01*
X234047Y106249D01*
X233945Y106213D01*
X233844Y106173D01*
X233744Y106130D01*
X233646Y106083D01*
X233549Y106032D01*
X233455Y105978D01*
X233362Y105921D01*
X233272Y105861D01*
X233183Y105797D01*
X233097Y105730D01*
X233014Y105661D01*
X232933Y105588D01*
X232855Y105512D01*
X232779Y105434D01*
X232706Y105353D01*
X232637Y105270D01*
X232570Y105184D01*
X232506Y105095D01*
X232446Y105005D01*
X232389Y104912D01*
X232335Y104818D01*
X232284Y104721D01*
X232237Y104623D01*
X232194Y104523D01*
X232154Y104422D01*
X232118Y104320D01*
X232085Y104216D01*
X232057Y104111D01*
X232032Y104005D01*
X232010Y103898D01*
X231993Y103791D01*
X231979Y103683D01*
X231970Y103574D01*
X231964Y103466D01*
X231962Y103357D01*
X231962Y100309D01*
X242680Y126010D02*
X219820Y126010D01*
X219820Y181890D01*
X242680Y181890D01*
X242680Y126010D01*
X238158Y144345D02*
X224442Y144345D01*
X238158Y144345D02*
X238158Y148155D01*
X238156Y148277D01*
X238150Y148399D01*
X238140Y148521D01*
X238127Y148642D01*
X238109Y148763D01*
X238088Y148883D01*
X238062Y149003D01*
X238033Y149121D01*
X238001Y149239D01*
X237964Y149356D01*
X237924Y149471D01*
X237880Y149585D01*
X237832Y149697D01*
X237781Y149808D01*
X237726Y149917D01*
X237668Y150025D01*
X237606Y150130D01*
X237541Y150233D01*
X237473Y150335D01*
X237401Y150434D01*
X237327Y150530D01*
X237249Y150625D01*
X237168Y150716D01*
X237085Y150806D01*
X236999Y150892D01*
X236909Y150975D01*
X236818Y151056D01*
X236723Y151134D01*
X236627Y151208D01*
X236528Y151280D01*
X236426Y151348D01*
X236323Y151413D01*
X236218Y151475D01*
X236110Y151533D01*
X236001Y151588D01*
X235890Y151639D01*
X235778Y151687D01*
X235664Y151731D01*
X235549Y151771D01*
X235432Y151808D01*
X235314Y151840D01*
X235196Y151869D01*
X235076Y151895D01*
X234956Y151916D01*
X234835Y151934D01*
X234714Y151947D01*
X234592Y151957D01*
X234470Y151963D01*
X234348Y151965D01*
X234226Y151963D01*
X234104Y151957D01*
X233982Y151947D01*
X233861Y151934D01*
X233740Y151916D01*
X233620Y151895D01*
X233500Y151869D01*
X233382Y151840D01*
X233264Y151808D01*
X233147Y151771D01*
X233032Y151731D01*
X232918Y151687D01*
X232806Y151639D01*
X232695Y151588D01*
X232586Y151533D01*
X232478Y151475D01*
X232373Y151413D01*
X232270Y151348D01*
X232168Y151280D01*
X232069Y151208D01*
X231973Y151134D01*
X231878Y151056D01*
X231787Y150975D01*
X231697Y150892D01*
X231611Y150806D01*
X231528Y150716D01*
X231447Y150625D01*
X231369Y150530D01*
X231295Y150434D01*
X231223Y150335D01*
X231155Y150233D01*
X231090Y150130D01*
X231028Y150025D01*
X230970Y149917D01*
X230915Y149808D01*
X230864Y149697D01*
X230816Y149585D01*
X230772Y149471D01*
X230732Y149356D01*
X230695Y149239D01*
X230663Y149121D01*
X230634Y149003D01*
X230608Y148883D01*
X230587Y148763D01*
X230569Y148642D01*
X230556Y148521D01*
X230546Y148399D01*
X230540Y148277D01*
X230538Y148155D01*
X230538Y144345D01*
X230538Y148917D02*
X224442Y151965D01*
X227490Y157935D02*
X238158Y160983D01*
X227490Y157935D02*
X227490Y165555D01*
X230538Y163269D02*
X224442Y163269D01*
X192680Y180040D02*
X169820Y180040D01*
X192680Y180040D02*
X192680Y124160D01*
X169820Y124160D01*
X169820Y180040D01*
X174342Y140495D02*
X188058Y140495D01*
X188058Y144305D01*
X188056Y144427D01*
X188050Y144549D01*
X188040Y144671D01*
X188027Y144792D01*
X188009Y144913D01*
X187988Y145033D01*
X187962Y145153D01*
X187933Y145271D01*
X187901Y145389D01*
X187864Y145506D01*
X187824Y145621D01*
X187780Y145735D01*
X187732Y145847D01*
X187681Y145958D01*
X187626Y146067D01*
X187568Y146175D01*
X187506Y146280D01*
X187441Y146383D01*
X187373Y146485D01*
X187301Y146584D01*
X187227Y146680D01*
X187149Y146775D01*
X187068Y146866D01*
X186985Y146956D01*
X186899Y147042D01*
X186809Y147125D01*
X186718Y147206D01*
X186623Y147284D01*
X186527Y147358D01*
X186428Y147430D01*
X186326Y147498D01*
X186223Y147563D01*
X186118Y147625D01*
X186010Y147683D01*
X185901Y147738D01*
X185790Y147789D01*
X185678Y147837D01*
X185564Y147881D01*
X185449Y147921D01*
X185332Y147958D01*
X185214Y147990D01*
X185096Y148019D01*
X184976Y148045D01*
X184856Y148066D01*
X184735Y148084D01*
X184614Y148097D01*
X184492Y148107D01*
X184370Y148113D01*
X184248Y148115D01*
X184126Y148113D01*
X184004Y148107D01*
X183882Y148097D01*
X183761Y148084D01*
X183640Y148066D01*
X183520Y148045D01*
X183400Y148019D01*
X183282Y147990D01*
X183164Y147958D01*
X183047Y147921D01*
X182932Y147881D01*
X182818Y147837D01*
X182706Y147789D01*
X182595Y147738D01*
X182486Y147683D01*
X182378Y147625D01*
X182273Y147563D01*
X182170Y147498D01*
X182068Y147430D01*
X181969Y147358D01*
X181873Y147284D01*
X181778Y147206D01*
X181687Y147125D01*
X181597Y147042D01*
X181511Y146956D01*
X181428Y146866D01*
X181347Y146775D01*
X181269Y146680D01*
X181195Y146584D01*
X181123Y146485D01*
X181055Y146383D01*
X180990Y146280D01*
X180928Y146175D01*
X180870Y146067D01*
X180815Y145958D01*
X180764Y145847D01*
X180716Y145735D01*
X180672Y145621D01*
X180632Y145506D01*
X180595Y145389D01*
X180563Y145271D01*
X180534Y145153D01*
X180508Y145033D01*
X180487Y144913D01*
X180469Y144792D01*
X180456Y144671D01*
X180446Y144549D01*
X180440Y144427D01*
X180438Y144305D01*
X180438Y140495D01*
X180438Y145067D02*
X174342Y148115D01*
X174342Y154085D02*
X174342Y158657D01*
X174344Y158766D01*
X174350Y158874D01*
X174359Y158983D01*
X174373Y159091D01*
X174390Y159198D01*
X174412Y159305D01*
X174437Y159411D01*
X174465Y159516D01*
X174498Y159620D01*
X174534Y159722D01*
X174574Y159823D01*
X174617Y159923D01*
X174664Y160021D01*
X174715Y160118D01*
X174769Y160212D01*
X174826Y160305D01*
X174886Y160395D01*
X174950Y160484D01*
X175017Y160570D01*
X175086Y160653D01*
X175159Y160734D01*
X175235Y160812D01*
X175313Y160888D01*
X175394Y160961D01*
X175477Y161030D01*
X175563Y161097D01*
X175652Y161161D01*
X175742Y161221D01*
X175835Y161278D01*
X175929Y161332D01*
X176026Y161383D01*
X176124Y161430D01*
X176224Y161473D01*
X176325Y161513D01*
X176427Y161549D01*
X176531Y161582D01*
X176636Y161610D01*
X176742Y161635D01*
X176849Y161657D01*
X176956Y161674D01*
X177064Y161688D01*
X177173Y161697D01*
X177281Y161703D01*
X177390Y161705D01*
X178914Y161705D01*
X179023Y161703D01*
X179131Y161697D01*
X179240Y161688D01*
X179348Y161674D01*
X179455Y161657D01*
X179562Y161635D01*
X179668Y161610D01*
X179773Y161582D01*
X179877Y161549D01*
X179979Y161513D01*
X180080Y161473D01*
X180180Y161430D01*
X180278Y161383D01*
X180375Y161332D01*
X180469Y161278D01*
X180562Y161221D01*
X180652Y161161D01*
X180741Y161097D01*
X180827Y161030D01*
X180910Y160961D01*
X180991Y160888D01*
X181069Y160812D01*
X181145Y160734D01*
X181218Y160653D01*
X181287Y160570D01*
X181354Y160484D01*
X181418Y160395D01*
X181478Y160305D01*
X181535Y160212D01*
X181589Y160118D01*
X181640Y160021D01*
X181687Y159923D01*
X181730Y159823D01*
X181770Y159722D01*
X181806Y159620D01*
X181839Y159516D01*
X181867Y159411D01*
X181892Y159305D01*
X181914Y159198D01*
X181931Y159091D01*
X181945Y158983D01*
X181954Y158874D01*
X181960Y158766D01*
X181962Y158657D01*
X181962Y154085D01*
X188058Y154085D01*
X188058Y161705D01*
X149650Y107450D02*
X105650Y107450D01*
X105650Y77450D01*
X149650Y77450D01*
X149650Y107450D01*
D13*
X139080Y101340D02*
X139082Y101411D01*
X139088Y101482D01*
X139098Y101553D01*
X139112Y101623D01*
X139130Y101692D01*
X139151Y101759D01*
X139177Y101826D01*
X139206Y101891D01*
X139238Y101954D01*
X139275Y102016D01*
X139314Y102075D01*
X139357Y102132D01*
X139403Y102186D01*
X139452Y102238D01*
X139504Y102287D01*
X139558Y102333D01*
X139615Y102376D01*
X139674Y102415D01*
X139736Y102452D01*
X139799Y102484D01*
X139864Y102513D01*
X139931Y102539D01*
X139998Y102560D01*
X140067Y102578D01*
X140137Y102592D01*
X140208Y102602D01*
X140279Y102608D01*
X140350Y102610D01*
X140421Y102608D01*
X140492Y102602D01*
X140563Y102592D01*
X140633Y102578D01*
X140702Y102560D01*
X140769Y102539D01*
X140836Y102513D01*
X140901Y102484D01*
X140964Y102452D01*
X141026Y102415D01*
X141085Y102376D01*
X141142Y102333D01*
X141196Y102287D01*
X141248Y102238D01*
X141297Y102186D01*
X141343Y102132D01*
X141386Y102075D01*
X141425Y102016D01*
X141462Y101954D01*
X141494Y101891D01*
X141523Y101826D01*
X141549Y101759D01*
X141570Y101692D01*
X141588Y101623D01*
X141602Y101553D01*
X141612Y101482D01*
X141618Y101411D01*
X141620Y101340D01*
X141618Y101269D01*
X141612Y101198D01*
X141602Y101127D01*
X141588Y101057D01*
X141570Y100988D01*
X141549Y100921D01*
X141523Y100854D01*
X141494Y100789D01*
X141462Y100726D01*
X141425Y100664D01*
X141386Y100605D01*
X141343Y100548D01*
X141297Y100494D01*
X141248Y100442D01*
X141196Y100393D01*
X141142Y100347D01*
X141085Y100304D01*
X141026Y100265D01*
X140964Y100228D01*
X140901Y100196D01*
X140836Y100167D01*
X140769Y100141D01*
X140702Y100120D01*
X140633Y100102D01*
X140563Y100088D01*
X140492Y100078D01*
X140421Y100072D01*
X140350Y100070D01*
X140279Y100072D01*
X140208Y100078D01*
X140137Y100088D01*
X140067Y100102D01*
X139998Y100120D01*
X139931Y100141D01*
X139864Y100167D01*
X139799Y100196D01*
X139736Y100228D01*
X139674Y100265D01*
X139615Y100304D01*
X139558Y100347D01*
X139504Y100393D01*
X139452Y100442D01*
X139403Y100494D01*
X139357Y100548D01*
X139314Y100605D01*
X139275Y100664D01*
X139238Y100726D01*
X139206Y100789D01*
X139177Y100854D01*
X139151Y100921D01*
X139130Y100988D01*
X139112Y101057D01*
X139098Y101127D01*
X139088Y101198D01*
X139082Y101269D01*
X139080Y101340D01*
M02*
