G04 EAGLE Gerber RS-274X export*
G75*
%MOMM*%
%FSLAX34Y34*%
%LPD*%
%INSilkscreen Top*%
%IPPOS*%
%AMOC8*
5,1,8,0,0,1.08239X$1,22.5*%
G01*
G04 Define Apertures*
%ADD10C,0.152400*%
D10*
X15700Y147650D02*
X15700Y160350D01*
X22050Y166700D01*
X34750Y166700D01*
X41100Y160350D01*
X22050Y166700D02*
X15700Y173050D01*
X15700Y185750D01*
X22050Y192100D01*
X34750Y192100D01*
X41100Y185750D01*
X41100Y173050D01*
X34750Y166700D01*
X15700Y122250D02*
X22050Y115900D01*
X15700Y122250D02*
X15700Y134950D01*
X22050Y141300D01*
X34750Y141300D01*
X41100Y134950D01*
X41100Y122250D01*
X34750Y115900D01*
X22050Y141300D02*
X15700Y147650D01*
X34750Y141300D02*
X41100Y147650D01*
X41100Y160350D01*
X15700Y84150D02*
X15700Y71450D01*
X15700Y84150D02*
X22050Y90500D01*
X34750Y90500D01*
X41100Y84150D01*
X22050Y90500D02*
X15700Y96850D01*
X15700Y109550D01*
X22050Y115900D01*
X34750Y115900D01*
X41100Y109550D01*
X41100Y96850D01*
X34750Y90500D01*
X34750Y65100D02*
X22050Y65100D01*
X15700Y71450D01*
X34750Y65100D02*
X41100Y71450D01*
X41100Y84150D01*
X15700Y198450D02*
X15700Y211150D01*
X22050Y217500D01*
X34750Y217500D01*
X41100Y211150D01*
X22050Y192100D02*
X15700Y198450D01*
X34750Y192100D02*
X41100Y198450D01*
X41100Y211150D01*
X136350Y16300D02*
X149050Y16300D01*
X136350Y16300D02*
X130000Y22650D01*
X130000Y35350D01*
X136350Y41700D01*
X155400Y35350D02*
X155400Y22650D01*
X149050Y16300D01*
X155400Y35350D02*
X149050Y41700D01*
X136350Y41700D01*
X130000Y22650D02*
X123650Y16300D01*
X110950Y16300D01*
X104600Y22650D01*
X104600Y35350D01*
X110950Y41700D01*
X123650Y41700D01*
X130000Y35350D01*
M02*
