M48
;GenerationSoftware,Autodesk,EAGLE,9.7.0*%
;CreationDate,2023-10-31T19:07:33Z*%
FMAT,2
ICI,OFF
METRIC,TZ,000.000
T7C0.406
T6C0.610
T5C0.950
T4C1.016
T3C2.200
T2C3.200
T1C3.302
%
G90
M71
T1
X11684Y8306
X5690Y8306
X8687Y3302
T2
X96520Y2540
X15240Y50800
X90170Y50800
X13970Y2540
X66040Y35560
X66040Y7620
T3
X3810Y44100
X3810Y32100
T4
X63627Y30480
X66167Y30480
X63627Y27940
X66167Y27940
X63627Y25400
X66167Y25400
X63500Y50800
X60960Y50800
X58420Y50800
X55880Y50800
X50800Y50800
X48260Y50800
X45720Y50800
X41656Y50800
X39116Y50800
X36576Y50800
X34036Y50800
X31496Y50800
X28956Y50800
X26416Y50800
X23876Y50800
X33020Y2540
X35560Y2540
X38100Y2540
X40640Y2540
X43180Y2540
X45720Y2540
X50800Y2540
X53340Y2540
X55880Y2540
X58420Y2540
X60960Y2540
X63500Y2540
X66040Y2540
X68580Y2540
X86360Y50800
X83820Y50800
X81280Y50800
X78740Y50800
X76200Y50800
X73660Y50800
X71120Y50800
X68580Y50800
X73660Y2540
X76200Y2540
X78740Y2540
X81280Y2540
X83820Y2540
X86360Y2540
X88900Y2540
X91440Y2540
X93980Y45720
X53340Y50800
X96520Y30480
X93980Y30480
X96520Y33020
X93980Y33020
X96520Y35560
X93980Y35560
X96520Y38100
X93980Y38100
X96520Y40640
X93980Y40640
X96520Y43180
X93980Y43180
X96520Y45720
X96520Y48260
X93980Y48260
X96520Y10160
X93980Y10160
X96520Y12700
X93980Y12700
X96520Y15240
X93980Y15240
X96520Y17780
X93980Y17780
X96520Y20320
X93980Y20320
X96520Y22860
X93980Y22860
X96520Y25400
X93980Y25400
X96520Y27940
X93980Y27940
X93980Y50800
X96520Y50800
X93980Y7620
X96520Y7620
X20828Y47498
X20828Y44958
X18288Y47498
X18288Y44958
X15748Y47498
X15748Y44958
T5
X6520Y36850
X8520Y36850
X8520Y39350
X6520Y39350
T6
X20828Y30480
X15748Y30480
X36830Y17145
X36830Y12065
T7
X40894Y25146
X49230Y10287
X49403Y47371
X40386Y35179
X39624Y33528
X31496Y36703
X30607Y37973
X40640Y36449
X25781Y18161
X21971Y38354
X50673Y47117
X72644Y17907
X72009Y19177
X41021Y28829
X66802Y47371
X32639Y33655
X39751Y28829
X65278Y47371
X55753Y31877
X45212Y25400
X49403Y11557
X59055Y21463
X59055Y18669
X60833Y22479
X59944Y19558
X60579Y20701
X60325Y29083
X30861Y40767
X16955Y41593
X16510Y15240
X9652Y42672
X30353Y4953
X32258Y14224
X83439Y39116
X56490Y34163
X63144Y34138
X57023Y26670
X44577Y30861
X43688Y36703
X6350Y22225
X8890Y29210
X4445Y22225
X8255Y22225
X2540Y22225
X8890Y19685
X2540Y13970
X6350Y13970
X55753Y29718
X4445Y13970
X8890Y15875
X8255Y13970
X15367Y35433
X19304Y34544
X28067Y28067
X23622Y41529
X23876Y16383
X18415Y26035
X55880Y27940
X60833Y31369
X69000Y20000
X38227Y21209
X45085Y28702
X45212Y33401
X55245Y38862
X38354Y29226
X87630Y38608
X87757Y20955
X72492Y35712
X24638Y11684
X13589Y13970
X32639Y16002
X40767Y21209
X17272Y37211
X18542Y41656
X25527Y24257
X58293Y41402
X77495Y47803
X43815Y40386
X44704Y27305
X48387Y5667
X25781Y3429
X13208Y22098
X24130Y26543
X24511Y43307
X60833Y27813
X58039Y20447
X12192Y28956
X37719Y24638
X77978Y27686
X76708Y18042
X99806Y31750
X79883Y23876
X70358Y23876
X71628Y27051
X18288Y28829
X70342Y32097
X63000Y20000
X17272Y32385
X99806Y16510
X66151Y51435
X22082Y50800
X18288Y20193
X42088Y38354
X28194Y45847
X26543Y11684
X78613Y8763
X46855Y8263
X31496Y9398
X80010Y27305
X80010Y32131
X24003Y7366
X81407Y39116
X75962Y38624
X80137Y46736
X60071Y46736
X30480Y46736
X45466Y38862
X46990Y40894
X46101Y40005
X47879Y41783
X48768Y42672
X49657Y43561
X49276Y39370
X50419Y42291
X34671Y10160
X24003Y22606
X74041Y17653
X78740Y38989
X75311Y16891
X51308Y43180
X50419Y40513
X51943Y42037
X52324Y44196
X53213Y43307
X54102Y44196
X54610Y42037
X54610Y40259
X44577Y22987
X49022Y8636
X81026Y8763
X39878Y24130
X50673Y10125
X75819Y10160
X73914Y10922
M30