G04 EAGLE Gerber RS-274X export*
G75*
%MOMM*%
%FSLAX34Y34*%
%LPD*%
%INSilkscreen Bottom*%
%IPPOS*%
%AMOC8*
5,1,8,0,0,1.08239X$1,22.5*%
G01*
G04 Define Apertures*
%ADD10C,0.177800*%
%ADD11C,0.152400*%
G36*
X514295Y311150D02*
X509125Y311150D01*
X508632Y311163D01*
X508154Y311203D01*
X507690Y311270D01*
X507241Y311363D01*
X506807Y311483D01*
X506387Y311630D01*
X505983Y311804D01*
X505593Y312004D01*
X505221Y312229D01*
X504871Y312477D01*
X504543Y312749D01*
X504236Y313045D01*
X503952Y313364D01*
X503689Y313706D01*
X503448Y314072D01*
X503228Y314461D01*
X503033Y314871D01*
X502863Y315297D01*
X502720Y315740D01*
X502603Y316199D01*
X502512Y316675D01*
X502446Y317168D01*
X502407Y317678D01*
X502394Y318204D01*
X502402Y318605D01*
X502424Y318993D01*
X502461Y319370D01*
X502514Y319735D01*
X502581Y320089D01*
X502663Y320431D01*
X502759Y320762D01*
X502871Y321080D01*
X502998Y321388D01*
X503140Y321683D01*
X503296Y321967D01*
X503468Y322240D01*
X503654Y322500D01*
X503855Y322750D01*
X504071Y322987D01*
X504303Y323213D01*
X504547Y323426D01*
X504805Y323626D01*
X505075Y323812D01*
X505357Y323984D01*
X505652Y324142D01*
X505959Y324286D01*
X506279Y324417D01*
X506612Y324534D01*
X506957Y324637D01*
X507315Y324727D01*
X507685Y324802D01*
X508067Y324864D01*
X508463Y324912D01*
X508870Y324947D01*
X509291Y324967D01*
X509723Y324974D01*
X514295Y324974D01*
X514295Y311150D01*
G37*
%LPC*%
G36*
X512421Y312651D02*
X512421Y323473D01*
X509763Y323473D01*
X509115Y323452D01*
X508507Y323389D01*
X507938Y323283D01*
X507409Y323136D01*
X506919Y322946D01*
X506469Y322714D01*
X506058Y322440D01*
X505686Y322124D01*
X505356Y321768D01*
X505070Y321373D01*
X504828Y320940D01*
X504630Y320470D01*
X504476Y319961D01*
X504366Y319413D01*
X504300Y318828D01*
X504278Y318204D01*
X504288Y317785D01*
X504317Y317379D01*
X504365Y316987D01*
X504433Y316610D01*
X504519Y316247D01*
X504626Y315897D01*
X504751Y315562D01*
X504896Y315241D01*
X505059Y314937D01*
X505239Y314650D01*
X505435Y314382D01*
X505648Y314133D01*
X505878Y313901D01*
X506124Y313689D01*
X506387Y313494D01*
X506667Y313318D01*
X506961Y313162D01*
X507267Y313026D01*
X507583Y312912D01*
X507912Y312818D01*
X508252Y312745D01*
X508603Y312693D01*
X508966Y312662D01*
X509341Y312651D01*
X512421Y312651D01*
G37*
%LPD*%
G36*
X532698Y311150D02*
X531010Y311150D01*
X531010Y324974D01*
X533414Y324974D01*
X537024Y315389D01*
X537153Y315034D01*
X537363Y314383D01*
X537570Y313685D01*
X537692Y313191D01*
X537781Y313577D01*
X537932Y314147D01*
X538117Y314789D01*
X538310Y315389D01*
X541989Y324974D01*
X544452Y324974D01*
X544452Y311150D01*
X542784Y311150D01*
X542784Y320373D01*
X542823Y322227D01*
X542852Y323316D01*
X542529Y322237D01*
X541979Y320569D01*
X538359Y311150D01*
X537044Y311150D01*
X533473Y320569D01*
X533275Y321112D01*
X533066Y321751D01*
X532844Y322486D01*
X532609Y323316D01*
X532676Y321874D01*
X532698Y320373D01*
X532698Y311150D01*
G37*
G36*
X517900Y311150D02*
X515987Y311150D01*
X521540Y324974D01*
X523669Y324974D01*
X529311Y311150D01*
X527368Y311150D01*
X525779Y315192D01*
X519480Y315192D01*
X517900Y311150D01*
G37*
%LPC*%
G36*
X525210Y316654D02*
X523444Y321197D01*
X523022Y322357D01*
X522718Y323287D01*
X522629Y323561D01*
X522364Y322747D01*
X522090Y321938D01*
X521815Y321216D01*
X520039Y316654D01*
X525210Y316654D01*
G37*
%LPD*%
G36*
X466234Y311150D02*
X463977Y311150D01*
X463977Y324974D01*
X465665Y324974D01*
X465665Y315909D01*
X465636Y314780D01*
X465547Y313122D01*
X473024Y324974D01*
X475202Y324974D01*
X475202Y311150D01*
X473534Y311150D01*
X473534Y320333D01*
X473583Y321972D01*
X473632Y322924D01*
X466234Y311150D01*
G37*
G36*
X499795Y311150D02*
X488905Y311150D01*
X488905Y312681D01*
X497921Y312681D01*
X497921Y317498D01*
X489896Y317498D01*
X489896Y319009D01*
X497921Y319009D01*
X497921Y323444D01*
X489307Y323444D01*
X489307Y324974D01*
X499795Y324974D01*
X499795Y311150D01*
G37*
G36*
X480589Y311150D02*
X478715Y311150D01*
X478715Y324974D01*
X480589Y324974D01*
X480589Y311150D01*
G37*
G36*
X505575Y292100D02*
X503662Y292100D01*
X509215Y305924D01*
X511344Y305924D01*
X516986Y292100D01*
X515043Y292100D01*
X513454Y296142D01*
X507155Y296142D01*
X505575Y292100D01*
G37*
%LPC*%
G36*
X512885Y297604D02*
X511119Y302147D01*
X510697Y303307D01*
X510393Y304237D01*
X510304Y304511D01*
X510039Y303697D01*
X509765Y302888D01*
X509490Y302166D01*
X507714Y297604D01*
X512885Y297604D01*
G37*
%LPD*%
G36*
X488172Y292100D02*
X486308Y292100D01*
X486308Y297830D01*
X480970Y305924D01*
X483031Y305924D01*
X487220Y299341D01*
X491429Y305924D01*
X493490Y305924D01*
X488172Y297830D01*
X488172Y292100D01*
G37*
G36*
X522606Y292100D02*
X520742Y292100D01*
X520742Y304394D01*
X515993Y304394D01*
X515993Y305924D01*
X527355Y305924D01*
X527355Y304394D01*
X522606Y304394D01*
X522606Y292100D01*
G37*
G36*
X501970Y292100D02*
X493111Y292100D01*
X493111Y293631D01*
X500096Y293631D01*
X500096Y305924D01*
X501970Y305924D01*
X501970Y292100D01*
G37*
G36*
X531546Y292100D02*
X529672Y292100D01*
X529672Y305924D01*
X531546Y305924D01*
X531546Y292100D01*
G37*
G36*
X859417Y300630D02*
X858879Y300648D01*
X858375Y300700D01*
X857907Y300787D01*
X857473Y300910D01*
X857073Y301067D01*
X856709Y301259D01*
X856379Y301487D01*
X856084Y301749D01*
X855823Y302046D01*
X855598Y302378D01*
X855407Y302745D01*
X855250Y303147D01*
X855129Y303584D01*
X855042Y304056D01*
X854990Y304562D01*
X854973Y305104D01*
X854973Y313218D01*
X854958Y314602D01*
X854939Y315080D01*
X854914Y315416D01*
X856591Y315416D01*
X856611Y315341D01*
X856631Y315183D01*
X856670Y314621D01*
X856709Y313601D01*
X856729Y313601D01*
X856848Y313832D01*
X856978Y314049D01*
X857120Y314253D01*
X857275Y314443D01*
X857441Y314620D01*
X857618Y314783D01*
X857808Y314932D01*
X858009Y315068D01*
X858221Y315188D01*
X858442Y315293D01*
X858673Y315382D01*
X858913Y315454D01*
X859162Y315510D01*
X859421Y315551D01*
X859689Y315575D01*
X859967Y315583D01*
X860453Y315562D01*
X860908Y315499D01*
X861331Y315394D01*
X861722Y315248D01*
X862080Y315060D01*
X862407Y314829D01*
X862701Y314557D01*
X862964Y314243D01*
X863195Y313886D01*
X863395Y313482D01*
X863565Y313031D01*
X863703Y312535D01*
X863811Y311993D01*
X863888Y311404D01*
X863935Y310769D01*
X863950Y310088D01*
X863936Y309417D01*
X863893Y308793D01*
X863821Y308214D01*
X863721Y307682D01*
X863592Y307196D01*
X863434Y306757D01*
X863248Y306364D01*
X863033Y306017D01*
X862787Y305713D01*
X862509Y305450D01*
X862199Y305227D01*
X861856Y305045D01*
X861482Y304904D01*
X861074Y304802D01*
X860635Y304742D01*
X860163Y304722D01*
X859876Y304730D01*
X859597Y304754D01*
X859329Y304794D01*
X859069Y304850D01*
X858818Y304923D01*
X858577Y305011D01*
X858345Y305116D01*
X858122Y305237D01*
X858108Y305246D01*
X857910Y305373D01*
X857709Y305526D01*
X857520Y305694D01*
X857342Y305878D01*
X857176Y306078D01*
X857022Y306293D01*
X856879Y306525D01*
X856748Y306772D01*
X856729Y306772D01*
X856729Y305065D01*
X856739Y304691D01*
X856770Y304341D01*
X856822Y304015D01*
X856894Y303713D01*
X856987Y303435D01*
X857100Y303182D01*
X857234Y302952D01*
X857389Y302747D01*
X857564Y302566D01*
X857760Y302409D01*
X857976Y302276D01*
X858213Y302168D01*
X858471Y302083D01*
X858749Y302023D01*
X859032Y301988D01*
X859048Y301986D01*
X859368Y301974D01*
X859607Y301981D01*
X859835Y301999D01*
X860051Y302030D01*
X860255Y302074D01*
X860447Y302130D01*
X860627Y302198D01*
X860796Y302279D01*
X860953Y302372D01*
X861097Y302476D01*
X861228Y302592D01*
X861345Y302717D01*
X861449Y302854D01*
X861540Y303001D01*
X861618Y303158D01*
X861682Y303326D01*
X861733Y303505D01*
X863508Y303250D01*
X863423Y302945D01*
X863315Y302658D01*
X863184Y302389D01*
X863030Y302137D01*
X862853Y301904D01*
X862653Y301689D01*
X862430Y301492D01*
X862184Y301312D01*
X861915Y301152D01*
X861625Y301014D01*
X861312Y300897D01*
X860977Y300801D01*
X860620Y300726D01*
X860241Y300673D01*
X859840Y300641D01*
X859417Y300630D01*
G37*
%LPC*%
G36*
X859564Y306026D02*
X859902Y306041D01*
X860214Y306086D01*
X860501Y306160D01*
X860761Y306264D01*
X860996Y306398D01*
X861205Y306562D01*
X861389Y306755D01*
X861546Y306978D01*
X861682Y307235D01*
X861799Y307531D01*
X861899Y307864D01*
X861980Y308236D01*
X862044Y308647D01*
X862089Y309096D01*
X862116Y309583D01*
X862125Y310108D01*
X862115Y310638D01*
X862086Y311131D01*
X862038Y311585D01*
X861971Y312002D01*
X861884Y312380D01*
X861777Y312720D01*
X861652Y313023D01*
X861507Y313287D01*
X861341Y313517D01*
X861152Y313716D01*
X860940Y313885D01*
X860705Y314023D01*
X860447Y314130D01*
X860166Y314207D01*
X859862Y314253D01*
X859535Y314268D01*
X859334Y314260D01*
X859138Y314237D01*
X858948Y314198D01*
X858763Y314144D01*
X858584Y314074D01*
X858410Y313989D01*
X858078Y313773D01*
X857775Y313497D01*
X857508Y313167D01*
X857277Y312781D01*
X857082Y312340D01*
X856927Y311849D01*
X856817Y311314D01*
X856751Y310733D01*
X856729Y310108D01*
X856751Y309497D01*
X856817Y308929D01*
X856927Y308405D01*
X857082Y307925D01*
X857277Y307493D01*
X857509Y307114D01*
X857614Y306987D01*
X857777Y306789D01*
X858083Y306517D01*
X858418Y306302D01*
X858595Y306218D01*
X858777Y306149D01*
X858965Y306095D01*
X859159Y306057D01*
X859359Y306034D01*
X859564Y306026D01*
G37*
%LPD*%
G36*
X808024Y304604D02*
X807551Y304625D01*
X807108Y304691D01*
X806696Y304799D01*
X806315Y304951D01*
X805964Y305146D01*
X805644Y305385D01*
X805354Y305667D01*
X805095Y305992D01*
X804866Y306361D01*
X804668Y306773D01*
X804500Y307229D01*
X804363Y307727D01*
X804256Y308270D01*
X804180Y308855D01*
X804134Y309485D01*
X804119Y310157D01*
X804133Y310822D01*
X804178Y311444D01*
X804252Y312021D01*
X804355Y312556D01*
X804488Y313047D01*
X804651Y313494D01*
X804844Y313898D01*
X805065Y314258D01*
X805319Y314576D01*
X805605Y314851D01*
X805925Y315083D01*
X806278Y315274D01*
X806665Y315422D01*
X807084Y315528D01*
X807537Y315591D01*
X808024Y315612D01*
X808317Y315605D01*
X808598Y315585D01*
X808867Y315550D01*
X809124Y315502D01*
X809368Y315440D01*
X809601Y315364D01*
X809822Y315274D01*
X810030Y315171D01*
X810227Y315051D01*
X810415Y314914D01*
X810592Y314758D01*
X810760Y314584D01*
X810917Y314393D01*
X811065Y314183D01*
X811202Y313955D01*
X811330Y313709D01*
X811369Y313709D01*
X811340Y314516D01*
X811330Y315210D01*
X811330Y319360D01*
X813096Y319360D01*
X813096Y306988D01*
X813111Y305612D01*
X813129Y305135D01*
X813155Y304800D01*
X811448Y304800D01*
X811389Y305521D01*
X811359Y306064D01*
X811350Y306448D01*
X811330Y306448D01*
X811200Y306214D01*
X811061Y305996D01*
X810913Y305795D01*
X810755Y305611D01*
X810588Y305443D01*
X810411Y305292D01*
X810225Y305158D01*
X810030Y305040D01*
X809824Y304938D01*
X809605Y304849D01*
X809373Y304774D01*
X809129Y304713D01*
X808871Y304665D01*
X808602Y304631D01*
X808319Y304611D01*
X808024Y304604D01*
G37*
%LPC*%
G36*
X808495Y305909D02*
X808857Y305924D01*
X809193Y305971D01*
X809503Y306049D01*
X809787Y306158D01*
X810045Y306298D01*
X810277Y306469D01*
X810483Y306671D01*
X810663Y306905D01*
X810819Y307171D01*
X810955Y307471D01*
X811069Y307805D01*
X811163Y308174D01*
X811236Y308577D01*
X811288Y309014D01*
X811320Y309485D01*
X811330Y309990D01*
X811319Y310526D01*
X811287Y311024D01*
X811234Y311485D01*
X811160Y311908D01*
X811064Y312294D01*
X810946Y312643D01*
X810808Y312954D01*
X810648Y313228D01*
X810465Y313467D01*
X810257Y313674D01*
X810023Y313850D01*
X809764Y313993D01*
X809480Y314105D01*
X809170Y314185D01*
X808835Y314232D01*
X808475Y314248D01*
X808155Y314233D01*
X807859Y314188D01*
X807585Y314113D01*
X807334Y314008D01*
X807107Y313873D01*
X806902Y313708D01*
X806720Y313512D01*
X806562Y313287D01*
X806424Y313027D01*
X806304Y312727D01*
X806203Y312388D01*
X806120Y312009D01*
X806056Y311591D01*
X806010Y311133D01*
X805982Y310635D01*
X805973Y310098D01*
X805982Y309563D01*
X806010Y309066D01*
X806056Y308608D01*
X806121Y308189D01*
X806205Y307807D01*
X806307Y307465D01*
X806427Y307160D01*
X806567Y306895D01*
X806727Y306664D01*
X806910Y306463D01*
X807116Y306294D01*
X807345Y306155D01*
X807598Y306047D01*
X807874Y305970D01*
X808172Y305924D01*
X808495Y305909D01*
G37*
%LPD*%
G36*
X826483Y304604D02*
X826189Y304611D01*
X825908Y304631D01*
X825639Y304666D01*
X825382Y304714D01*
X825138Y304776D01*
X824905Y304852D01*
X824685Y304942D01*
X824476Y305045D01*
X824279Y305165D01*
X824091Y305302D01*
X823914Y305458D01*
X823746Y305632D01*
X823589Y305823D01*
X823441Y306033D01*
X823304Y306261D01*
X823176Y306507D01*
X823137Y306507D01*
X823128Y306056D01*
X823103Y305526D01*
X823069Y305060D01*
X823039Y304800D01*
X821351Y304800D01*
X821377Y305135D01*
X821395Y305612D01*
X821410Y306988D01*
X821410Y319360D01*
X823176Y319360D01*
X823176Y314955D01*
X823156Y313768D01*
X823176Y313768D01*
X823304Y314000D01*
X823441Y314216D01*
X823588Y314416D01*
X823745Y314599D01*
X823912Y314766D01*
X824089Y314917D01*
X824275Y315052D01*
X824471Y315171D01*
X824679Y315274D01*
X824899Y315364D01*
X825131Y315440D01*
X825376Y315502D01*
X825634Y315550D01*
X825904Y315585D01*
X826187Y315605D01*
X826483Y315612D01*
X826955Y315590D01*
X827398Y315525D01*
X827810Y315417D01*
X828191Y315265D01*
X828542Y315070D01*
X828862Y314831D01*
X829152Y314549D01*
X829411Y314224D01*
X829640Y313855D01*
X829838Y313443D01*
X830006Y312987D01*
X830143Y312488D01*
X830250Y311946D01*
X830326Y311360D01*
X830372Y310731D01*
X830388Y310059D01*
X830373Y309394D01*
X830328Y308772D01*
X830254Y308194D01*
X830151Y307660D01*
X830018Y307169D01*
X829855Y306722D01*
X829663Y306318D01*
X829441Y305958D01*
X829187Y305640D01*
X828901Y305365D01*
X828581Y305133D01*
X828228Y304942D01*
X827841Y304794D01*
X827422Y304688D01*
X826969Y304625D01*
X826483Y304604D01*
G37*
%LPC*%
G36*
X826031Y305968D02*
X826351Y305983D01*
X826648Y306028D01*
X826921Y306103D01*
X827172Y306208D01*
X827399Y306343D01*
X827604Y306508D01*
X827786Y306704D01*
X827944Y306929D01*
X828082Y307189D01*
X828202Y307489D01*
X828303Y307828D01*
X828386Y308207D01*
X828450Y308625D01*
X828496Y309083D01*
X828524Y309581D01*
X828533Y310118D01*
X828524Y310653D01*
X828496Y311150D01*
X828450Y311608D01*
X828385Y312027D01*
X828301Y312409D01*
X828199Y312751D01*
X828079Y313055D01*
X827940Y313321D01*
X827780Y313552D01*
X827596Y313753D01*
X827390Y313922D01*
X827161Y314061D01*
X826908Y314169D01*
X826632Y314246D01*
X826334Y314292D01*
X826012Y314307D01*
X825654Y314292D01*
X825321Y314246D01*
X825014Y314169D01*
X824731Y314062D01*
X824474Y313924D01*
X824242Y313755D01*
X824035Y313556D01*
X823853Y313326D01*
X823694Y313063D01*
X823557Y312765D01*
X823441Y312432D01*
X823345Y312063D01*
X823271Y311659D01*
X823218Y311220D01*
X823187Y310745D01*
X823176Y310236D01*
X823187Y309706D01*
X823218Y309213D01*
X823271Y308756D01*
X823345Y308335D01*
X823441Y307949D01*
X823557Y307599D01*
X823694Y307286D01*
X823853Y307008D01*
X823875Y306978D01*
X824035Y306764D01*
X824243Y306553D01*
X824477Y306374D01*
X824736Y306228D01*
X825021Y306114D01*
X825332Y306033D01*
X825669Y305984D01*
X826031Y305968D01*
G37*
%LPD*%
G36*
X896951Y304604D02*
X896658Y304611D01*
X896377Y304631D01*
X896108Y304666D01*
X895851Y304714D01*
X895606Y304776D01*
X895374Y304852D01*
X895153Y304942D01*
X894945Y305045D01*
X894748Y305165D01*
X894560Y305302D01*
X894383Y305458D01*
X894215Y305632D01*
X894058Y305823D01*
X893910Y306033D01*
X893772Y306261D01*
X893645Y306507D01*
X893606Y306507D01*
X893597Y306056D01*
X893571Y305526D01*
X893538Y305060D01*
X893508Y304800D01*
X891820Y304800D01*
X891846Y305135D01*
X891864Y305612D01*
X891879Y306988D01*
X891879Y319360D01*
X893645Y319360D01*
X893645Y314955D01*
X893625Y313768D01*
X893645Y313768D01*
X893772Y314000D01*
X893910Y314216D01*
X894057Y314416D01*
X894214Y314599D01*
X894381Y314766D01*
X894557Y314917D01*
X894744Y315052D01*
X894940Y315171D01*
X895147Y315274D01*
X895367Y315364D01*
X895600Y315440D01*
X895845Y315502D01*
X896103Y315550D01*
X896373Y315585D01*
X896656Y315605D01*
X896951Y315612D01*
X897424Y315590D01*
X897867Y315525D01*
X898278Y315417D01*
X898660Y315265D01*
X899011Y315070D01*
X899331Y314831D01*
X899621Y314549D01*
X899880Y314224D01*
X900109Y313855D01*
X900307Y313443D01*
X900475Y312987D01*
X900612Y312488D01*
X900719Y311946D01*
X900795Y311360D01*
X900841Y310731D01*
X900856Y310059D01*
X900841Y309394D01*
X900797Y308772D01*
X900723Y308194D01*
X900620Y307660D01*
X900486Y307169D01*
X900324Y306722D01*
X900131Y306318D01*
X899909Y305958D01*
X899656Y305640D01*
X899370Y305365D01*
X899050Y305133D01*
X898697Y304942D01*
X898310Y304794D01*
X897890Y304688D01*
X897438Y304625D01*
X896951Y304604D01*
G37*
%LPC*%
G36*
X896500Y305968D02*
X896820Y305983D01*
X897116Y306028D01*
X897390Y306103D01*
X897641Y306208D01*
X897868Y306343D01*
X898073Y306508D01*
X898255Y306704D01*
X898413Y306929D01*
X898551Y307189D01*
X898671Y307489D01*
X898772Y307828D01*
X898855Y308207D01*
X898919Y308625D01*
X898965Y309083D01*
X898993Y309581D01*
X899002Y310118D01*
X898993Y310653D01*
X898965Y311150D01*
X898918Y311608D01*
X898853Y312027D01*
X898770Y312409D01*
X898668Y312751D01*
X898547Y313055D01*
X898408Y313321D01*
X898248Y313552D01*
X898065Y313753D01*
X897859Y313922D01*
X897630Y314061D01*
X897377Y314169D01*
X897101Y314246D01*
X896802Y314292D01*
X896480Y314307D01*
X896123Y314292D01*
X895790Y314246D01*
X895482Y314169D01*
X895200Y314062D01*
X894943Y313924D01*
X894711Y313755D01*
X894504Y313556D01*
X894322Y313326D01*
X894163Y313063D01*
X894026Y312765D01*
X893909Y312432D01*
X893814Y312063D01*
X893740Y311659D01*
X893687Y311220D01*
X893655Y310745D01*
X893645Y310236D01*
X893655Y309706D01*
X893687Y309213D01*
X893740Y308756D01*
X893814Y308335D01*
X893909Y307949D01*
X894026Y307599D01*
X894163Y307286D01*
X894322Y307008D01*
X894344Y306978D01*
X894504Y306764D01*
X894712Y306553D01*
X894945Y306374D01*
X895205Y306228D01*
X895490Y306114D01*
X895801Y306033D01*
X896138Y305984D01*
X896500Y305968D01*
G37*
%LPD*%
G36*
X836748Y304604D02*
X836335Y304614D01*
X835942Y304643D01*
X835567Y304692D01*
X835212Y304761D01*
X834875Y304849D01*
X834557Y304957D01*
X834258Y305085D01*
X833979Y305232D01*
X833718Y305398D01*
X833476Y305585D01*
X833252Y305791D01*
X833048Y306017D01*
X832863Y306262D01*
X832697Y306527D01*
X832549Y306811D01*
X832421Y307115D01*
X833971Y307557D01*
X834039Y307384D01*
X834122Y307219D01*
X834328Y306912D01*
X834590Y306635D01*
X834908Y306389D01*
X835088Y306281D01*
X835283Y306188D01*
X835491Y306108D01*
X835714Y306044D01*
X835951Y305993D01*
X836202Y305957D01*
X836468Y305936D01*
X836748Y305928D01*
X837100Y305944D01*
X837430Y305990D01*
X837739Y306068D01*
X838026Y306176D01*
X838291Y306315D01*
X838534Y306486D01*
X838756Y306687D01*
X838955Y306919D01*
X839132Y307180D01*
X839286Y307467D01*
X839416Y307780D01*
X839522Y308119D01*
X839605Y308484D01*
X839664Y308875D01*
X839699Y309292D01*
X839711Y309735D01*
X832136Y309735D01*
X832136Y309971D01*
X832155Y310654D01*
X832210Y311293D01*
X832301Y311888D01*
X832429Y312439D01*
X832593Y312946D01*
X832795Y313408D01*
X833032Y313827D01*
X833306Y314202D01*
X833617Y314532D01*
X833965Y314819D01*
X834348Y315061D01*
X834769Y315260D01*
X835226Y315414D01*
X835720Y315524D01*
X836250Y315590D01*
X836816Y315612D01*
X837372Y315590D01*
X837894Y315524D01*
X838383Y315415D01*
X838839Y315261D01*
X839262Y315064D01*
X839652Y314823D01*
X840010Y314538D01*
X840334Y314209D01*
X840622Y313839D01*
X840873Y313431D01*
X841084Y312984D01*
X841257Y312499D01*
X841392Y311976D01*
X841488Y311415D01*
X841546Y310815D01*
X841565Y310177D01*
X841546Y309506D01*
X841488Y308878D01*
X841392Y308293D01*
X841257Y307751D01*
X841084Y307251D01*
X840873Y306794D01*
X840622Y306379D01*
X840334Y306007D01*
X840008Y305678D01*
X839648Y305393D01*
X839252Y305152D01*
X838822Y304955D01*
X838356Y304801D01*
X837855Y304691D01*
X837319Y304626D01*
X836748Y304604D01*
G37*
%LPC*%
G36*
X839691Y311089D02*
X839666Y311454D01*
X839619Y311800D01*
X839550Y312125D01*
X839459Y312430D01*
X839347Y312715D01*
X839214Y312979D01*
X839059Y313224D01*
X838882Y313449D01*
X838686Y313650D01*
X838473Y313824D01*
X838244Y313972D01*
X837998Y314093D01*
X837735Y314187D01*
X837455Y314254D01*
X837159Y314294D01*
X836846Y314307D01*
X836524Y314295D01*
X836222Y314259D01*
X835939Y314199D01*
X835676Y314115D01*
X835432Y314006D01*
X835207Y313874D01*
X835001Y313718D01*
X834815Y313537D01*
X834647Y313330D01*
X834497Y313095D01*
X834364Y312832D01*
X834248Y312540D01*
X834150Y312220D01*
X834070Y311871D01*
X834007Y311494D01*
X833961Y311089D01*
X839691Y311089D01*
G37*
%LPD*%
G36*
X884842Y304604D02*
X884429Y304614D01*
X884036Y304643D01*
X883661Y304692D01*
X883305Y304761D01*
X882969Y304849D01*
X882651Y304957D01*
X882352Y305085D01*
X882072Y305232D01*
X881811Y305398D01*
X881569Y305585D01*
X881346Y305791D01*
X881142Y306017D01*
X880957Y306262D01*
X880791Y306527D01*
X880643Y306811D01*
X880515Y307115D01*
X882065Y307557D01*
X882133Y307384D01*
X882215Y307219D01*
X882422Y306912D01*
X882684Y306635D01*
X883002Y306389D01*
X883182Y306281D01*
X883376Y306188D01*
X883585Y306108D01*
X883808Y306044D01*
X884045Y305993D01*
X884296Y305957D01*
X884562Y305936D01*
X884842Y305928D01*
X885194Y305944D01*
X885524Y305990D01*
X885833Y306068D01*
X886119Y306176D01*
X886385Y306315D01*
X886628Y306486D01*
X886849Y306687D01*
X887049Y306919D01*
X887226Y307180D01*
X887380Y307467D01*
X887509Y307780D01*
X887616Y308119D01*
X887698Y308484D01*
X887757Y308875D01*
X887793Y309292D01*
X887805Y309735D01*
X880230Y309735D01*
X880230Y309971D01*
X880248Y310654D01*
X880303Y311293D01*
X880395Y311888D01*
X880523Y312439D01*
X880687Y312946D01*
X880888Y313408D01*
X881126Y313827D01*
X881400Y314202D01*
X881711Y314532D01*
X882058Y314819D01*
X882442Y315061D01*
X882863Y315260D01*
X883320Y315414D01*
X883813Y315524D01*
X884343Y315590D01*
X884910Y315612D01*
X885465Y315590D01*
X885987Y315524D01*
X886476Y315415D01*
X886933Y315261D01*
X887356Y315064D01*
X887746Y314823D01*
X888103Y314538D01*
X888428Y314209D01*
X888716Y313839D01*
X888966Y313431D01*
X889178Y312984D01*
X889351Y312499D01*
X889486Y311976D01*
X889582Y311415D01*
X889640Y310815D01*
X889659Y310177D01*
X889640Y309506D01*
X889582Y308878D01*
X889486Y308293D01*
X889351Y307751D01*
X889178Y307251D01*
X888966Y306794D01*
X888716Y306379D01*
X888428Y306007D01*
X888102Y305678D01*
X887742Y305393D01*
X887346Y305152D01*
X886915Y304955D01*
X886450Y304801D01*
X885949Y304691D01*
X885413Y304626D01*
X884842Y304604D01*
G37*
%LPC*%
G36*
X887785Y311089D02*
X887759Y311454D01*
X887712Y311800D01*
X887644Y312125D01*
X887553Y312430D01*
X887441Y312715D01*
X887308Y312979D01*
X887152Y313224D01*
X886976Y313449D01*
X886780Y313650D01*
X886567Y313824D01*
X886337Y313972D01*
X886091Y314093D01*
X885828Y314187D01*
X885549Y314254D01*
X885253Y314294D01*
X884940Y314307D01*
X884618Y314295D01*
X884316Y314259D01*
X884033Y314199D01*
X883770Y314115D01*
X883525Y314006D01*
X883301Y313874D01*
X883095Y313718D01*
X882909Y313537D01*
X882741Y313330D01*
X882590Y313095D01*
X882458Y312832D01*
X882342Y312540D01*
X882244Y312220D01*
X882164Y311871D01*
X882101Y311494D01*
X882055Y311089D01*
X887785Y311089D01*
G37*
%LPD*%
G36*
X801389Y300630D02*
X801173Y300637D01*
X800963Y300656D01*
X800561Y300732D01*
X800181Y300859D01*
X799824Y301037D01*
X799485Y301267D01*
X799163Y301550D01*
X798855Y301885D01*
X798563Y302274D01*
X798273Y302742D01*
X797972Y303320D01*
X797660Y304006D01*
X797336Y304800D01*
X793255Y315416D01*
X795119Y315416D01*
X797444Y308656D01*
X798131Y306723D01*
X798533Y307940D01*
X798975Y309220D01*
X799093Y309549D01*
X801330Y315416D01*
X803213Y315416D01*
X799004Y304849D01*
X799171Y304427D01*
X799422Y303859D01*
X799695Y303367D01*
X799989Y302950D01*
X800144Y302771D01*
X800304Y302610D01*
X800470Y302468D01*
X800641Y302345D01*
X800818Y302240D01*
X801000Y302155D01*
X801187Y302089D01*
X801380Y302042D01*
X801578Y302013D01*
X801781Y302004D01*
X802213Y302018D01*
X802605Y302063D01*
X802605Y300738D01*
X802345Y300691D01*
X802056Y300657D01*
X801737Y300637D01*
X801389Y300630D01*
G37*
G36*
X845512Y304800D02*
X843736Y304800D01*
X843736Y311874D01*
X843749Y312357D01*
X843787Y312804D01*
X843850Y313216D01*
X843938Y313592D01*
X844052Y313933D01*
X844191Y314239D01*
X844356Y314509D01*
X844545Y314744D01*
X844762Y314947D01*
X845009Y315124D01*
X845284Y315273D01*
X845589Y315395D01*
X845923Y315490D01*
X846287Y315558D01*
X846679Y315599D01*
X847101Y315612D01*
X847392Y315605D01*
X847671Y315584D01*
X847937Y315548D01*
X848192Y315498D01*
X848434Y315434D01*
X848664Y315356D01*
X848882Y315263D01*
X849088Y315156D01*
X849285Y315032D01*
X849476Y314888D01*
X849661Y314723D01*
X849840Y314539D01*
X850013Y314335D01*
X850180Y314110D01*
X850496Y313601D01*
X850526Y313601D01*
X850560Y314656D01*
X850584Y315151D01*
X850604Y315416D01*
X852272Y315416D01*
X852246Y315120D01*
X852228Y314643D01*
X852213Y313150D01*
X852213Y304800D01*
X850447Y304800D01*
X850447Y310952D01*
X850436Y311329D01*
X850401Y311685D01*
X850344Y312019D01*
X850263Y312333D01*
X850160Y312625D01*
X850033Y312896D01*
X849884Y313146D01*
X849711Y313375D01*
X849519Y313580D01*
X849310Y313757D01*
X849083Y313907D01*
X848840Y314030D01*
X848581Y314126D01*
X848304Y314194D01*
X848010Y314235D01*
X847700Y314248D01*
X847290Y314232D01*
X846932Y314185D01*
X846627Y314105D01*
X846375Y313993D01*
X846165Y313845D01*
X845985Y313657D01*
X845836Y313429D01*
X845718Y313159D01*
X845628Y312840D01*
X845563Y312463D01*
X845525Y312026D01*
X845512Y311531D01*
X845512Y304800D01*
G37*
G36*
X874311Y304604D02*
X873815Y304617D01*
X873348Y304655D01*
X872908Y304718D01*
X872498Y304807D01*
X872115Y304922D01*
X871761Y305062D01*
X871435Y305227D01*
X871137Y305418D01*
X870872Y305632D01*
X870642Y305868D01*
X870447Y306125D01*
X870288Y306404D01*
X870164Y306704D01*
X870075Y307026D01*
X870022Y307369D01*
X870004Y307734D01*
X870016Y308029D01*
X870053Y308309D01*
X870115Y308572D01*
X870200Y308818D01*
X870309Y309049D01*
X870437Y309265D01*
X870586Y309468D01*
X870755Y309657D01*
X870950Y309834D01*
X871178Y310004D01*
X871438Y310165D01*
X871731Y310319D01*
X872089Y310472D01*
X872545Y310632D01*
X873100Y310798D01*
X873752Y310971D01*
X874979Y311295D01*
X875400Y311428D01*
X875695Y311540D01*
X875911Y311649D01*
X876100Y311769D01*
X876260Y311899D01*
X876391Y312041D01*
X876494Y312198D01*
X876568Y312374D01*
X876612Y312571D01*
X876627Y312786D01*
X876618Y312965D01*
X876591Y313131D01*
X876547Y313286D01*
X876485Y313429D01*
X876405Y313561D01*
X876307Y313681D01*
X876191Y313789D01*
X876058Y313885D01*
X875906Y313970D01*
X875734Y314044D01*
X875543Y314107D01*
X875332Y314158D01*
X875101Y314197D01*
X874851Y314226D01*
X874292Y314248D01*
X874029Y314242D01*
X873779Y314225D01*
X873544Y314195D01*
X873322Y314154D01*
X873113Y314101D01*
X872918Y314036D01*
X872737Y313959D01*
X872570Y313871D01*
X872417Y313771D01*
X872280Y313661D01*
X872158Y313541D01*
X872051Y313411D01*
X871960Y313270D01*
X871885Y313119D01*
X871825Y312958D01*
X871780Y312786D01*
X870191Y312983D01*
X870271Y313312D01*
X870376Y313618D01*
X870504Y313901D01*
X870655Y314160D01*
X870831Y314396D01*
X871030Y314609D01*
X871254Y314798D01*
X871500Y314965D01*
X871770Y315109D01*
X872063Y315235D01*
X872378Y315341D01*
X872716Y315428D01*
X873076Y315496D01*
X873459Y315544D01*
X873864Y315573D01*
X874292Y315583D01*
X874772Y315571D01*
X875224Y315535D01*
X875645Y315476D01*
X876037Y315393D01*
X876399Y315286D01*
X876732Y315155D01*
X877035Y315001D01*
X877309Y314822D01*
X877551Y314621D01*
X877762Y314399D01*
X877940Y314155D01*
X878085Y313889D01*
X878198Y313602D01*
X878279Y313293D01*
X878328Y312962D01*
X878344Y312610D01*
X878321Y312233D01*
X878253Y311886D01*
X878140Y311570D01*
X877981Y311285D01*
X877782Y311026D01*
X877548Y310786D01*
X877279Y310567D01*
X876975Y310368D01*
X876599Y310178D01*
X876113Y309987D01*
X875517Y309793D01*
X874812Y309598D01*
X873546Y309264D01*
X873098Y309128D01*
X872717Y308975D01*
X872402Y308804D01*
X872153Y308617D01*
X871964Y308406D01*
X871829Y308165D01*
X871782Y308034D01*
X871748Y307895D01*
X871728Y307750D01*
X871721Y307596D01*
X871731Y307397D01*
X871760Y307210D01*
X871809Y307036D01*
X871877Y306875D01*
X871965Y306727D01*
X872072Y306592D01*
X872198Y306469D01*
X872344Y306360D01*
X872511Y306263D01*
X872701Y306180D01*
X872913Y306109D01*
X873148Y306051D01*
X873405Y306006D01*
X873684Y305974D01*
X873987Y305954D01*
X874311Y305948D01*
X874617Y305954D01*
X874905Y305973D01*
X875176Y306004D01*
X875430Y306047D01*
X875667Y306103D01*
X875886Y306171D01*
X876088Y306252D01*
X876274Y306345D01*
X876443Y306452D01*
X876597Y306572D01*
X876736Y306707D01*
X876860Y306857D01*
X876969Y307020D01*
X877063Y307198D01*
X877142Y307390D01*
X877206Y307596D01*
X878766Y307292D01*
X878673Y306958D01*
X878557Y306646D01*
X878417Y306357D01*
X878254Y306091D01*
X878068Y305848D01*
X877858Y305628D01*
X877625Y305431D01*
X877368Y305256D01*
X877085Y305103D01*
X876774Y304971D01*
X876434Y304859D01*
X876066Y304767D01*
X875670Y304696D01*
X875246Y304645D01*
X874793Y304614D01*
X874311Y304604D01*
G37*
G36*
X867918Y304800D02*
X866152Y304800D01*
X866152Y315416D01*
X867918Y315416D01*
X867918Y304800D01*
G37*
G36*
X867918Y317673D02*
X866152Y317673D01*
X866152Y319360D01*
X867918Y319360D01*
X867918Y317673D01*
G37*
D10*
X879685Y297020D02*
X879685Y288715D01*
X877609Y286639D01*
X877609Y294943D02*
X881761Y294943D01*
X873030Y294943D02*
X870953Y294943D01*
X870953Y286639D01*
X868877Y286639D02*
X873030Y286639D01*
X870953Y299096D02*
X870953Y301172D01*
X864298Y294943D02*
X864298Y286639D01*
X864298Y294943D02*
X858070Y294943D01*
X855994Y292867D01*
X855994Y286639D01*
X851201Y286639D02*
X851201Y299096D01*
X851201Y290791D02*
X844972Y286639D01*
X851201Y290791D02*
X844972Y294943D01*
X838210Y286639D02*
X834058Y286639D01*
X838210Y286639D02*
X840286Y288715D01*
X840286Y292867D01*
X838210Y294943D01*
X834058Y294943D01*
X831982Y292867D01*
X831982Y290791D01*
X840286Y290791D01*
X827189Y286639D02*
X827189Y294943D01*
X827189Y290791D02*
X823037Y294943D01*
X820961Y294943D01*
X803178Y294943D02*
X801101Y294943D01*
X801101Y286639D01*
X799025Y286639D02*
X803178Y286639D01*
X801101Y299096D02*
X801101Y301172D01*
X792370Y297020D02*
X792370Y288715D01*
X790294Y286639D01*
X790294Y294943D02*
X794446Y294943D01*
D11*
X200660Y394970D02*
X200660Y422910D01*
X218440Y425450D02*
X218540Y425448D01*
X218639Y425442D01*
X218739Y425432D01*
X218837Y425419D01*
X218936Y425401D01*
X219033Y425380D01*
X219129Y425355D01*
X219225Y425326D01*
X219319Y425293D01*
X219412Y425257D01*
X219503Y425217D01*
X219593Y425173D01*
X219681Y425126D01*
X219767Y425076D01*
X219851Y425022D01*
X219933Y424965D01*
X220012Y424905D01*
X220090Y424841D01*
X220164Y424775D01*
X220236Y424706D01*
X220305Y424634D01*
X220371Y424560D01*
X220435Y424482D01*
X220495Y424403D01*
X220552Y424321D01*
X220606Y424237D01*
X220656Y424151D01*
X220703Y424063D01*
X220747Y423973D01*
X220787Y423882D01*
X220823Y423789D01*
X220856Y423695D01*
X220885Y423599D01*
X220910Y423503D01*
X220931Y423406D01*
X220949Y423307D01*
X220962Y423209D01*
X220972Y423109D01*
X220978Y423010D01*
X220980Y422910D01*
X220980Y394970D02*
X220978Y394870D01*
X220972Y394771D01*
X220962Y394671D01*
X220949Y394573D01*
X220931Y394474D01*
X220910Y394377D01*
X220885Y394281D01*
X220856Y394185D01*
X220823Y394091D01*
X220787Y393998D01*
X220747Y393907D01*
X220703Y393817D01*
X220656Y393729D01*
X220606Y393643D01*
X220552Y393559D01*
X220495Y393477D01*
X220435Y393398D01*
X220371Y393320D01*
X220305Y393246D01*
X220236Y393174D01*
X220164Y393105D01*
X220090Y393039D01*
X220012Y392975D01*
X219933Y392915D01*
X219851Y392858D01*
X219767Y392804D01*
X219681Y392754D01*
X219593Y392707D01*
X219503Y392663D01*
X219412Y392623D01*
X219319Y392587D01*
X219225Y392554D01*
X219129Y392525D01*
X219033Y392500D01*
X218936Y392479D01*
X218837Y392461D01*
X218739Y392448D01*
X218639Y392438D01*
X218540Y392432D01*
X218440Y392430D01*
X203200Y392430D02*
X203100Y392432D01*
X203001Y392438D01*
X202901Y392448D01*
X202803Y392461D01*
X202704Y392479D01*
X202607Y392500D01*
X202511Y392525D01*
X202415Y392554D01*
X202321Y392587D01*
X202228Y392623D01*
X202137Y392663D01*
X202047Y392707D01*
X201959Y392754D01*
X201873Y392804D01*
X201789Y392858D01*
X201707Y392915D01*
X201628Y392975D01*
X201550Y393039D01*
X201476Y393105D01*
X201404Y393174D01*
X201335Y393246D01*
X201269Y393320D01*
X201205Y393398D01*
X201145Y393477D01*
X201088Y393559D01*
X201034Y393643D01*
X200984Y393729D01*
X200937Y393817D01*
X200893Y393907D01*
X200853Y393998D01*
X200817Y394091D01*
X200784Y394185D01*
X200755Y394281D01*
X200730Y394377D01*
X200709Y394474D01*
X200691Y394573D01*
X200678Y394671D01*
X200668Y394771D01*
X200662Y394870D01*
X200660Y394970D01*
X200660Y422910D02*
X200662Y423010D01*
X200668Y423109D01*
X200678Y423209D01*
X200691Y423307D01*
X200709Y423406D01*
X200730Y423503D01*
X200755Y423599D01*
X200784Y423695D01*
X200817Y423789D01*
X200853Y423882D01*
X200893Y423973D01*
X200937Y424063D01*
X200984Y424151D01*
X201034Y424237D01*
X201088Y424321D01*
X201145Y424403D01*
X201205Y424482D01*
X201269Y424560D01*
X201335Y424634D01*
X201404Y424706D01*
X201476Y424775D01*
X201550Y424841D01*
X201628Y424905D01*
X201707Y424965D01*
X201789Y425022D01*
X201873Y425076D01*
X201959Y425126D01*
X202047Y425173D01*
X202137Y425217D01*
X202228Y425257D01*
X202321Y425293D01*
X202415Y425326D01*
X202511Y425355D01*
X202607Y425380D01*
X202704Y425401D01*
X202803Y425419D01*
X202901Y425432D01*
X203001Y425442D01*
X203100Y425448D01*
X203200Y425450D01*
X218440Y425450D01*
X218440Y392430D02*
X203200Y392430D01*
X220980Y394970D02*
X220980Y422910D01*
X121920Y340360D02*
X93980Y340360D01*
X121920Y320040D02*
X122020Y320042D01*
X122119Y320048D01*
X122219Y320058D01*
X122317Y320071D01*
X122416Y320089D01*
X122513Y320110D01*
X122609Y320135D01*
X122705Y320164D01*
X122799Y320197D01*
X122892Y320233D01*
X122983Y320273D01*
X123073Y320317D01*
X123161Y320364D01*
X123247Y320414D01*
X123331Y320468D01*
X123413Y320525D01*
X123492Y320585D01*
X123570Y320649D01*
X123644Y320715D01*
X123716Y320784D01*
X123785Y320856D01*
X123851Y320930D01*
X123915Y321008D01*
X123975Y321087D01*
X124032Y321169D01*
X124086Y321253D01*
X124136Y321339D01*
X124183Y321427D01*
X124227Y321517D01*
X124267Y321608D01*
X124303Y321701D01*
X124336Y321795D01*
X124365Y321891D01*
X124390Y321987D01*
X124411Y322084D01*
X124429Y322183D01*
X124442Y322281D01*
X124452Y322381D01*
X124458Y322480D01*
X124460Y322580D01*
X93980Y320040D02*
X93880Y320042D01*
X93781Y320048D01*
X93681Y320058D01*
X93583Y320071D01*
X93484Y320089D01*
X93387Y320110D01*
X93291Y320135D01*
X93195Y320164D01*
X93101Y320197D01*
X93008Y320233D01*
X92917Y320273D01*
X92827Y320317D01*
X92739Y320364D01*
X92653Y320414D01*
X92569Y320468D01*
X92487Y320525D01*
X92408Y320585D01*
X92330Y320649D01*
X92256Y320715D01*
X92184Y320784D01*
X92115Y320856D01*
X92049Y320930D01*
X91985Y321008D01*
X91925Y321087D01*
X91868Y321169D01*
X91814Y321253D01*
X91764Y321339D01*
X91717Y321427D01*
X91673Y321517D01*
X91633Y321608D01*
X91597Y321701D01*
X91564Y321795D01*
X91535Y321891D01*
X91510Y321987D01*
X91489Y322084D01*
X91471Y322183D01*
X91458Y322281D01*
X91448Y322381D01*
X91442Y322480D01*
X91440Y322580D01*
X91440Y337820D02*
X91442Y337920D01*
X91448Y338019D01*
X91458Y338119D01*
X91471Y338217D01*
X91489Y338316D01*
X91510Y338413D01*
X91535Y338509D01*
X91564Y338605D01*
X91597Y338699D01*
X91633Y338792D01*
X91673Y338883D01*
X91717Y338973D01*
X91764Y339061D01*
X91814Y339147D01*
X91868Y339231D01*
X91925Y339313D01*
X91985Y339392D01*
X92049Y339470D01*
X92115Y339544D01*
X92184Y339616D01*
X92256Y339685D01*
X92330Y339751D01*
X92408Y339815D01*
X92487Y339875D01*
X92569Y339932D01*
X92653Y339986D01*
X92739Y340036D01*
X92827Y340083D01*
X92917Y340127D01*
X93008Y340167D01*
X93101Y340203D01*
X93195Y340236D01*
X93291Y340265D01*
X93387Y340290D01*
X93484Y340311D01*
X93583Y340329D01*
X93681Y340342D01*
X93781Y340352D01*
X93880Y340358D01*
X93980Y340360D01*
X121920Y340360D02*
X122020Y340358D01*
X122119Y340352D01*
X122219Y340342D01*
X122317Y340329D01*
X122416Y340311D01*
X122513Y340290D01*
X122609Y340265D01*
X122705Y340236D01*
X122799Y340203D01*
X122892Y340167D01*
X122983Y340127D01*
X123073Y340083D01*
X123161Y340036D01*
X123247Y339986D01*
X123331Y339932D01*
X123413Y339875D01*
X123492Y339815D01*
X123570Y339751D01*
X123644Y339685D01*
X123716Y339616D01*
X123785Y339544D01*
X123851Y339470D01*
X123915Y339392D01*
X123975Y339313D01*
X124032Y339231D01*
X124086Y339147D01*
X124136Y339061D01*
X124183Y338973D01*
X124227Y338883D01*
X124267Y338792D01*
X124303Y338699D01*
X124336Y338605D01*
X124365Y338509D01*
X124390Y338413D01*
X124411Y338316D01*
X124429Y338217D01*
X124442Y338119D01*
X124452Y338019D01*
X124458Y337920D01*
X124460Y337820D01*
X124460Y322580D01*
X91440Y322580D02*
X91440Y337820D01*
X93980Y320040D02*
X121920Y320040D01*
M02*
