G04 EAGLE Gerber RS-274X export*
G75*
%MOMM*%
%FSLAX34Y34*%
%LPD*%
%INSoldermask Bottom*%
%IPPOS*%
%AMOC8*
5,1,8,0,0,1.08239X$1,22.5*%
G01*
G04 Define Apertures*
%ADD10C,3.301600*%
%ADD11P,1.75953X8X292.5*%
%ADD12C,1.625600*%
%ADD13P,5.33358X8X112.5*%
%ADD14P,1.6881X8X292.5*%
%ADD15C,3.317600*%
%ADD16P,1.75953X8X112.5*%
%ADD17P,1.75953X8X22.5*%
%ADD18P,1.75953X8X202.5*%
%ADD19C,0.215900*%
%ADD20R,1.828800X0.152400*%
%ADD21R,0.152400X1.828800*%
%ADD22C,1.219200*%
%ADD23P,1.09971X8X22.5*%
%ADD24C,1.016000*%
D10*
X965200Y25400D03*
X152400Y508000D03*
X901700Y508000D03*
X139700Y25400D03*
X660400Y355600D03*
X660400Y76200D03*
D11*
X636270Y304800D03*
X661670Y304800D03*
X636270Y279400D03*
X661670Y279400D03*
X636270Y254000D03*
X661670Y254000D03*
D12*
X635000Y500380D02*
X635000Y515620D01*
X609600Y515620D02*
X609600Y500380D01*
X584200Y500380D02*
X584200Y515620D01*
X558800Y515620D02*
X558800Y500380D01*
X533400Y500380D02*
X533400Y515620D01*
X508000Y515620D02*
X508000Y500380D01*
X482600Y500380D02*
X482600Y515620D01*
X457200Y515620D02*
X457200Y500380D01*
X416560Y500380D02*
X416560Y515620D01*
X391160Y515620D02*
X391160Y500380D01*
X365760Y500380D02*
X365760Y515620D01*
X340360Y515620D02*
X340360Y500380D01*
X314960Y500380D02*
X314960Y515620D01*
X289560Y515620D02*
X289560Y500380D01*
X264160Y500380D02*
X264160Y515620D01*
X238760Y515620D02*
X238760Y500380D01*
D13*
X86868Y33020D03*
X116840Y83058D03*
X56896Y83058D03*
D12*
X330200Y33020D02*
X330200Y17780D01*
X355600Y17780D02*
X355600Y33020D01*
X381000Y33020D02*
X381000Y17780D01*
X406400Y17780D02*
X406400Y33020D01*
X431800Y33020D02*
X431800Y17780D01*
X457200Y17780D02*
X457200Y33020D01*
X508000Y33020D02*
X508000Y17780D01*
X533400Y17780D02*
X533400Y33020D01*
X558800Y33020D02*
X558800Y17780D01*
X584200Y17780D02*
X584200Y33020D01*
X609600Y33020D02*
X609600Y17780D01*
X635000Y17780D02*
X635000Y33020D01*
X660400Y33020D02*
X660400Y17780D01*
X685800Y17780D02*
X685800Y33020D01*
X863600Y500380D02*
X863600Y515620D01*
X838200Y515620D02*
X838200Y500380D01*
X812800Y500380D02*
X812800Y515620D01*
X787400Y515620D02*
X787400Y500380D01*
X762000Y500380D02*
X762000Y515620D01*
X736600Y515620D02*
X736600Y500380D01*
X711200Y500380D02*
X711200Y515620D01*
X685800Y515620D02*
X685800Y500380D01*
X736600Y33020D02*
X736600Y17780D01*
X762000Y17780D02*
X762000Y33020D01*
X787400Y33020D02*
X787400Y17780D01*
X812800Y17780D02*
X812800Y33020D01*
X838200Y33020D02*
X838200Y17780D01*
X863600Y17780D02*
X863600Y33020D01*
X889000Y33020D02*
X889000Y17780D01*
X914400Y17780D02*
X914400Y33020D01*
D14*
X85200Y368500D03*
X85200Y393500D03*
X65200Y393500D03*
X65200Y368500D03*
D15*
X38100Y441000D03*
X38100Y321000D03*
D16*
X965200Y304800D03*
X939800Y304800D03*
X965200Y330200D03*
X939800Y330200D03*
X965200Y355600D03*
X939800Y355600D03*
X965200Y381000D03*
X939800Y381000D03*
X965200Y406400D03*
X939800Y406400D03*
X965200Y431800D03*
X939800Y431800D03*
X965200Y457200D03*
X939800Y457200D03*
X965200Y482600D03*
X939800Y482600D03*
X965200Y101600D03*
X939800Y101600D03*
X965200Y127000D03*
X939800Y127000D03*
X965200Y152400D03*
X939800Y152400D03*
X965200Y177800D03*
X939800Y177800D03*
X965200Y203200D03*
X939800Y203200D03*
X965200Y228600D03*
X939800Y228600D03*
X965200Y254000D03*
X939800Y254000D03*
X965200Y279400D03*
X939800Y279400D03*
D17*
X939800Y508000D03*
X965200Y508000D03*
X939800Y76200D03*
X965200Y76200D03*
D18*
X208280Y474980D03*
X208280Y449580D03*
X182880Y474980D03*
X182880Y449580D03*
X157480Y474980D03*
X157480Y449580D03*
D19*
X218250Y406591D02*
X218250Y396049D01*
X203390Y396049D01*
X203390Y406591D01*
X218250Y406591D01*
X218250Y398100D02*
X203390Y398100D01*
X203390Y400151D02*
X218250Y400151D01*
X218250Y402202D02*
X203390Y402202D01*
X203390Y404253D02*
X218250Y404253D01*
X218250Y406304D02*
X203390Y406304D01*
X218250Y411289D02*
X218250Y421831D01*
X218250Y411289D02*
X203390Y411289D01*
X203390Y421831D01*
X218250Y421831D01*
X218250Y413340D02*
X203390Y413340D01*
X203390Y415391D02*
X218250Y415391D01*
X218250Y417442D02*
X203390Y417442D01*
X203390Y419493D02*
X218250Y419493D01*
X218250Y421544D02*
X203390Y421544D01*
D20*
X210820Y408940D03*
D19*
X105601Y322770D02*
X95059Y322770D01*
X95059Y337630D01*
X105601Y337630D01*
X105601Y322770D01*
X105601Y324821D02*
X95059Y324821D01*
X95059Y326872D02*
X105601Y326872D01*
X105601Y328923D02*
X95059Y328923D01*
X95059Y330974D02*
X105601Y330974D01*
X105601Y333025D02*
X95059Y333025D01*
X95059Y335076D02*
X105601Y335076D01*
X105601Y337127D02*
X95059Y337127D01*
X110299Y322770D02*
X120841Y322770D01*
X110299Y322770D02*
X110299Y337630D01*
X120841Y337630D01*
X120841Y322770D01*
X120841Y324821D02*
X110299Y324821D01*
X110299Y326872D02*
X120841Y326872D01*
X120841Y328923D02*
X110299Y328923D01*
X110299Y330974D02*
X120841Y330974D01*
X120841Y333025D02*
X110299Y333025D01*
X110299Y335076D02*
X120841Y335076D01*
X120841Y337127D02*
X110299Y337127D01*
D21*
X107950Y330200D03*
D22*
X208280Y310388D02*
X208280Y299212D01*
X157480Y299212D02*
X157480Y310388D01*
X362712Y171450D02*
X373888Y171450D01*
X373888Y120650D02*
X362712Y120650D01*
D23*
X303530Y49530D03*
X322580Y142240D03*
X834390Y391160D03*
X564896Y341630D03*
X631444Y341376D03*
X570230Y266700D03*
X445770Y308610D03*
X436880Y367030D03*
X63500Y222250D03*
X88900Y292100D03*
X44450Y222250D03*
X82550Y222250D03*
X25400Y222250D03*
X88900Y196850D03*
X25400Y139700D03*
X63500Y139700D03*
X44450Y139700D03*
X88900Y158750D03*
X82550Y139700D03*
X153670Y354330D03*
X193040Y345440D03*
X280670Y280670D03*
X236220Y415290D03*
X238760Y163830D03*
X184150Y260350D03*
X558800Y279400D03*
X608330Y313690D03*
X690000Y200000D03*
X382270Y212090D03*
X450850Y287020D03*
X452120Y334010D03*
X552450Y388620D03*
X326390Y336550D03*
X383540Y292260D03*
X876300Y386080D03*
X877570Y209550D03*
X724916Y357124D03*
X246380Y116840D03*
X135890Y139700D03*
X326390Y160020D03*
X407670Y212090D03*
X172720Y372110D03*
X185420Y416560D03*
X255270Y242570D03*
X582930Y414020D03*
X774954Y478028D03*
X438150Y403860D03*
X447040Y273050D03*
X483870Y56670D03*
X257810Y34290D03*
X132080Y220980D03*
X241300Y265430D03*
X245110Y433070D03*
X608330Y278130D03*
X580390Y204470D03*
X121920Y289560D03*
X377190Y246380D03*
X779780Y276860D03*
X767080Y180420D03*
X998060Y317500D03*
X798830Y238760D03*
X703580Y238760D03*
X716280Y270510D03*
X182880Y288290D03*
X703416Y320974D03*
X630000Y200000D03*
X172720Y323850D03*
X998060Y165100D03*
X661510Y514350D03*
X220820Y508000D03*
X182880Y201930D03*
X420878Y383540D03*
X281940Y458470D03*
X265430Y116840D03*
X786130Y87630D03*
X468550Y82630D03*
X314960Y93980D03*
X800100Y273050D03*
X800100Y321310D03*
X240030Y73660D03*
X759620Y386240D03*
X801370Y467360D03*
X600710Y467360D03*
X304800Y467360D03*
X454660Y388620D03*
X469900Y408940D03*
X461010Y400050D03*
X478790Y417830D03*
X487680Y426720D03*
X496570Y435610D03*
X492760Y393700D03*
X504190Y422910D03*
X346710Y101600D03*
X240030Y226060D03*
X740410Y176530D03*
X787400Y389890D03*
X814070Y391160D03*
X753110Y168910D03*
X513080Y431800D03*
X504190Y405130D03*
X519430Y420370D03*
X523240Y441960D03*
X532130Y433070D03*
X541020Y441960D03*
X546100Y420370D03*
X546100Y402590D03*
X445770Y229870D03*
X490220Y86360D03*
X810260Y87630D03*
X398780Y241300D03*
X506730Y101250D03*
X758190Y101600D03*
X739140Y109220D03*
X408940Y251460D03*
X492300Y102870D03*
X494030Y473710D03*
X403860Y351790D03*
X396240Y335280D03*
X314960Y367030D03*
X306070Y379730D03*
X406400Y364490D03*
X257810Y181610D03*
X219710Y383540D03*
X506730Y471170D03*
X726440Y179070D03*
D24*
X720090Y191770D03*
D23*
X410210Y288290D03*
X668020Y473710D03*
X557530Y297180D03*
X397510Y288290D03*
X652780Y473710D03*
X557530Y318770D03*
X452120Y254000D03*
X494030Y115570D03*
X590550Y214630D03*
X590550Y186690D03*
X608330Y224790D03*
X599440Y195580D03*
X605790Y207010D03*
X603250Y290830D03*
X308610Y407670D03*
X169545Y415925D03*
X165100Y152400D03*
X96520Y426720D03*
M02*
