G04 EAGLE Gerber RS-274X export*
G75*
%MOMM*%
%FSLAX34Y34*%
%LPD*%
%INSoldermask Top*%
%IPPOS*%
%AMOC8*
5,1,8,0,0,1.08239X$1,22.5*%
G01*
%ADD10C,1.625600*%
%ADD11P,1.951982X8X112.500000*%
%ADD12C,1.828800*%
%ADD13C,2.260600*%
%ADD14R,2.260600X2.260600*%
%ADD15R,4.219200X4.219200*%
%ADD16C,4.719200*%


D10*
X139740Y163268D02*
X139740Y177492D01*
X165140Y177492D02*
X165140Y163268D01*
X292140Y163268D02*
X292140Y177492D01*
X292140Y239468D02*
X292140Y253692D01*
X190540Y177492D02*
X190540Y163268D01*
X215940Y163268D02*
X215940Y177492D01*
X266740Y177492D02*
X266740Y163268D01*
X241340Y163268D02*
X241340Y177492D01*
X266740Y239468D02*
X266740Y253692D01*
X241340Y253692D02*
X241340Y239468D01*
X215940Y239468D02*
X215940Y253692D01*
X190540Y253692D02*
X190540Y239468D01*
X165140Y239468D02*
X165140Y253692D01*
X139740Y253692D02*
X139740Y239468D01*
D11*
X512180Y182510D03*
X512180Y207910D03*
X435980Y258710D03*
X435980Y233310D03*
X512180Y233310D03*
X512180Y258710D03*
X435980Y207910D03*
X435980Y182510D03*
D12*
X61668Y165300D02*
X45412Y165300D01*
X45412Y190700D02*
X61668Y190700D01*
X61668Y216100D02*
X45412Y216100D01*
D13*
X98100Y96720D03*
X123500Y96720D03*
D14*
X148900Y96720D03*
D13*
X382100Y96720D03*
X407500Y96720D03*
D14*
X432900Y96720D03*
D13*
X238100Y96720D03*
X263500Y96720D03*
D14*
X288900Y96720D03*
D13*
X568100Y96720D03*
X593500Y96720D03*
D14*
X618900Y96720D03*
D12*
X61668Y274520D02*
X45412Y274520D01*
X45412Y249120D02*
X61668Y249120D01*
X685872Y267450D02*
X702128Y267450D01*
X702128Y242050D02*
X685872Y242050D01*
X685872Y152790D02*
X702128Y152790D01*
X702128Y178190D02*
X685872Y178190D01*
D13*
X524150Y339000D03*
X498750Y339000D03*
D14*
X473350Y339000D03*
D13*
X605500Y278350D03*
X605500Y303750D03*
D14*
X605500Y329150D03*
D15*
X63500Y38660D03*
X683500Y38660D03*
D16*
X35000Y350000D03*
X700000Y350000D03*
X35000Y100000D03*
X700000Y100000D03*
M02*
